<svg id="Capa_1" enable-background="new 0 0 512 512" height="512" viewBox="0 0 512 512" width="512" xmlns="http://www.w3.org/2000/svg"><g><path d="m512 256c0 91.355-47.852 171.534-119.858 216.838-2.649 1.667-9.547-.929-12.26.642-33.236 19.246-63.889 28.664-104.413 31.222-3.27.206-9.653 7.134-12.956 7.217-2.165.054-4.336.081-6.513.081-.928 0-1.855-.005-2.781-.015-2.633-.028-14.201-19.602-16.815-19.709-39.054-1.598-62.856-9.874-95.489-27.064-4.505-2.373-12.983 12.558-17.324 9.929-74.081-44.856-123.591-126.217-123.591-219.141 0-141.385 114.615-256 256-256s256 114.615 256 256z" fill="#0a4499"/><path d="m452.532 256c0 108.542-87.99 196.532-196.532 196.532s-196.532-87.99-196.532-196.532 87.99-196.532 196.532-196.532 196.532 87.99 196.532 196.532z" fill="#0956c6"/><path d="m233.327 362.722 19.892 149.263c-47.413-.505-91.735-13.898-129.628-36.843l-8.139-111.707c-5.611-4.369-11.99-10.184-19.286-17.73-13.001-13.447-27.992-29.231-40.841-44.067-8.927-10.307-19.438-19.061-31.252-24.72-2.049-.982-3.668-2.43-4.556-4.412-5.228-11.666.31-18.452 7.693-21.83 1.533-.702 3.189-.967 4.897-.844 13.12-.125 42.561 14.534 68.812 33.859-3.719-7.92-7.534-18.727-11.46-33.257-12.959-47.952-22.239-118.289-11.079-121.401s38.534 62.18 51.494 110.132c.456 1.689.889 3.334 1.298 4.936l5.757-.563c-1.837-9.978-3.43-21.446-4.693-34.373-5.451-55.791-2.686-117.63 8.077-118.681 10.762-1.052 25.446 59.082 30.897 114.873 1.263 12.927 1.92 24.487 2.049 34.632l6.778-.662c.03-1.47.07-2.976.12-4.52 1.607-49.659 12.867-119.541 23.952-119.113s17.798 71.005 16.191 120.664c-.144 4.452-.35 8.585-.614 12.42 11.116-31.91 24.384-58.243 32.824-56.324 13.2 3.002 9.592 73.977-.526 122.443-5.541 26.536-11.884 40.822-18.657 47.825z" fill="#ffcdbe"/><path d="m206.129 293.476c-2.444 1.622-5.089 2.156-7.842 2.049-11.085-.428-19.738-11.06-18.131-60.72s12.867-119.541 23.952-119.113c2.551.099 4.871 3.913 6.911 10.332-8.101 21.218-14.948 70.887-16.174 108.78-1.256 38.793 3.749 53.77 11.284 58.672zm-59.72-96.117c-3.723-38.105-3.613-79.031.259-101.484-2.199-3.648-4.346-5.588-6.357-5.391-10.762 1.052-13.528 62.89-8.077 118.681 2.044 20.922 4.954 38.022 8.36 51.169 5.676 21.912 20.762 9.231 17.025-2.053-4.627-13.973-8.615-34.37-11.21-60.922zm-5.718 179.855c-.966-13.26-6.896-25.638-16.53-34.8-3.095-2.944-6.336-6.163-9.733-9.676-16.634-17.204-32.639-30.609-50.726-48.696-9.743-9.743-45.995-23.527-46.189-21.297-.243 2.785.327 6.023 2.003 9.762.888 1.982 2.507 3.43 4.556 4.412 11.814 5.659 22.325 14.413 31.252 24.72 12.849 14.836 27.839 30.62 40.841 44.067 7.296 7.546 13.675 13.361 19.286 17.73l8.139 111.707c8.12 4.917 16.534 9.394 25.211 13.401zm-39.646-142.892c-8.936-33.066-16.123-76.776-16.065-101.748-2.541-2.744-4.785-4.048-6.6-3.542-11.16 3.112-1.879 73.449 11.08 121.401 4.05 14.985 7.98 26.011 11.81 33.993 8.426 17.562 22.48 2.158 15.553-8.837-5.074-8.053-10.317-21.06-15.778-41.267zm85.115 136.718c3.439-33.944-21.379-64.358-55.323-67.797-2.746-.278-5.2 1.723-5.478 4.47-.279 2.747 1.723 5.2 4.47 5.478 28.458 2.884 49.265 28.382 46.382 56.84-.279 2.747 1.723 5.2 4.47 5.478.337.034.671.034.996.002 2.322-.225 4.239-2.061 4.483-4.471z" fill="#faa68e"/><path d="m495.368 272.09c-.882 1.985-2.495 3.439-4.542 4.427-11.796 5.698-22.277 14.487-31.17 24.823-12.8 14.878-27.738 30.711-40.695 44.201-7.271 7.57-13.631 13.406-19.228 17.793l-7.616 109.518c-37.713 23.722-82.049 37.878-129.606 39.066l19.345-148.907c-6.796-6.98-13.186-21.246-18.813-47.764-10.278-48.432-14.12-119.395-.929-122.44 7.477-1.726 18.82 18.739 29.117 45.613.76 1.983 3.703 1.394 3.622-.727-.014-.361-.027-.724-.04-1.089-1.771-49.654 4.709-120.252 15.793-120.717 11.083-.465 22.573 69.379 24.344 119.033.022.615.042 1.225.061 1.828.049 1.561 1.253 2.836 2.808 2.983l.36.034c1.794.169 3.355-1.214 3.391-3.016.187-9.324.797-19.77 1.885-31.307 5.267-55.809 19.753-115.991 30.518-114.974 10.766 1.016 13.735 62.845 8.468 118.654-1.094 11.588-2.457 22.006-4.026 31.23-.291 1.71.937 3.299 2.663 3.462 1.456.137 2.801-.798 3.169-2.213.212-.818.43-1.647.654-2.487 12.801-47.995 39.96-113.376 51.13-110.301s2.122 73.442-10.679 121.437c-3.879 14.542-7.657 25.362-11.35 33.294 26.187-19.412 55.579-34.167 68.7-34.086 1.708-.129 3.364.131 4.9.828 7.395 3.353 12.956 10.121 7.766 21.804z" fill="#ffdecf"/><path d="m400.891 246.323c-4.758 19.473-22.142 17.154-17.352-1.943.428-1.706.882-3.461 1.364-5.266 12.801-47.995 39.96-113.376 51.13-110.301 2.678.737 4.194 5.343 4.774 12.581-12.696 20.91-28.993 63.687-38.071 97.721-.666 2.497-1.28 4.898-1.845 7.208zm-39.752-40.881c3.677-38.956 11.845-80.042 20.104-100.958-1.789-8.547-4.215-13.728-7.269-14.016-10.766-1.016-25.251 59.166-30.518 114.974-1.239 13.124-1.857 24.837-1.939 35.09-.122 15.351 17.633 12.357 17.676 1.216.041-10.541.659-22.661 1.946-36.306zm-50.399 31.162c-1.326-37.183 1.975-86.111 8.371-108.537-2.745-7.718-5.639-12.299-8.505-12.179-11.084.465-17.564 71.063-15.793 120.717.205 5.747.512 10.961.911 15.689 1.524 18.06 17.003 12.647 15.941.174-.406-4.775-.717-10.047-.925-15.864zm-21 273.192 17.329-133.395c1.602-12.334-.488-24.825-5.768-36.086-4.16-8.871-8.107-21.337-11.758-38.546-5.958-28.075-9.928-63.107-10.167-90.217-6.462-12.304-12.61-19.82-17.261-18.746-13.19 3.046-9.348 74.008.929 122.44 5.627 26.518 12.017 40.784 18.813 47.764l-19.345 148.907c9.205-.228 18.289-.944 27.228-2.121zm132.074-214.504c24.743-19.914 57.949-33.118 74.64-36.656-1.576-3.875-4.959-6.586-8.851-8.351-1.536-.697-3.192-.957-4.9-.828-13.216-.082-42.943 14.89-69.273 34.511-2.531 1.886-6.075 8.488-3.312 11.893 4.389 5.412 9.933.85 11.696-.569zm-75.46 77.061c.325.031.658.03.996-.006 2.747-.287 4.74-2.747 4.452-5.493-2.977-28.449 17.745-54.015 46.194-56.993 2.747-.287 4.74-2.747 4.452-5.493s-2.748-4.74-5.493-4.452c-33.933 3.551-58.65 34.047-55.099 67.979.252 2.409 2.175 4.239 4.498 4.458z" fill="#ffbeaa"/><path d="m341.825 300.037c-7.535 14.797-22.053 29.244-31.86 30.065-.276.025-.557.037-.843.037-.286.001-.567-.012-.843-.037-9.807-.82-24.325-15.268-31.86-30.065-8.382-16.461-4.947-27.12 4.619-29.803 7.901-2.215 17.513 1.703 25.343 12.407 1.305 1.784 4.177 1.784 5.482 0 7.829-10.704 17.442-14.623 25.342-12.407 9.567 2.683 13.002 13.343 4.62 29.803z" fill="#ff72c3"/><path d="m321.859 324.525c-4.212 3.215-8.359 5.281-11.894 5.577-.276.025-.557.037-.843.037-.286.001-.567-.012-.843-.037-9.807-.82-24.325-15.268-31.86-30.065-8.382-16.461-4.947-27.12 4.619-29.803.26-.073.521-.139.785-.198.061 5.35 1.819 11.87 5.659 19.412 8.098 15.902 22.967 31.465 34.377 35.077z" fill="#ff50b5"/><path d="m340.457 113.463c-12.4 24.351-36.292 48.126-52.431 49.477-.454.041-.917.061-1.387.06-.47.001-.932-.019-1.387-.06-16.139-1.35-40.032-25.126-52.431-49.477-13.794-27.089-8.142-44.631 7.602-49.046 13.002-3.646 28.821 2.803 41.706 20.419 2.148 2.937 6.874 2.937 9.021 0 12.885-17.616 28.703-24.065 41.706-20.419 15.743 4.414 21.395 21.957 7.601 49.046z" fill="#ff94d2"/><path d="m307.599 153.761c-6.931 5.291-13.756 8.692-19.574 9.178-.454.041-.917.061-1.387.06-.47.001-.932-.019-1.387-.06-16.139-1.35-40.032-25.126-52.431-49.477-13.794-27.089-8.142-44.631 7.602-49.046.427-.12.858-.229 1.291-.327.1 8.805 2.993 19.534 9.313 31.946 13.327 26.171 37.795 51.783 56.573 57.726z" fill="#ff72c3"/><path d="m275.44 244.232c-17.381 34.134-50.873 67.461-73.496 69.354-.637.058-1.285.086-1.944.085-.659.001-1.307-.027-1.944-.085-22.623-1.893-56.114-35.22-73.496-69.354-19.335-37.972-11.413-62.562 10.656-68.75 18.226-5.111 40.4 3.929 58.461 28.622 3.011 4.116 9.635 4.116 12.646 0 18.061-24.693 40.235-33.732 58.461-28.622 22.068 6.188 29.991 30.779 10.656 68.75zm-68.456-196.501c-7.369 14.472-21.568 28.601-31.159 29.403-.27.024-.545.036-.824.036-.279.001-.554-.011-.824-.036-9.591-.802-23.79-14.932-31.159-29.403-8.198-16.099-4.839-26.524 4.518-29.148 7.727-2.167 17.128 1.666 24.785 12.135 1.276 1.745 4.085 1.745 5.361 0 7.657-10.469 17.058-14.301 24.785-12.135 9.355 2.624 12.714 13.049 4.517 29.148z" fill="#fb5858"/><path d="m229.381 300.721c-9.715 7.417-19.282 12.183-27.437 12.866-.637.058-1.285.086-1.944.085-.659.001-1.307-.027-1.944-.085-22.623-1.893-56.114-35.22-73.496-69.354-19.335-37.972-11.413-62.562 10.656-68.75.599-.168 1.203-.32 1.81-.458.14 12.342 4.195 27.382 13.055 44.78 18.68 36.683 52.979 72.585 79.3 80.916zm-41.925-229.041c-4.119 3.144-8.175 5.165-11.632 5.455-.27.024-.545.036-.824.036-.279.001-.554-.011-.824-.036-9.591-.802-23.79-14.932-31.159-29.403-8.198-16.099-4.839-26.524 4.518-29.148.254-.071.51-.136.767-.194.06 5.232 1.779 11.609 5.535 18.985 7.919 15.552 22.46 30.773 33.619 34.305z" fill="#f44545"/><path d="m439.333 90c0 2.761-2.238 5-5 5h-8.333v8.333c0 2.761-2.238 5-5 5s-5-2.239-5-5v-8.333h-8.334c-2.762 0-5-2.239-5-5s2.238-5 5-5h8.334v-8.333c0-2.761 2.238-5 5-5s5 2.239 5 5v8.333h8.333c2.762 0 5 2.239 5 5zm-147-63h-8.333v-8.333c0-2.761-2.238-5-5-5s-5 2.239-5 5v8.333h-8.334c-2.762 0-5 2.239-5 5s2.238 5 5 5h8.334v8.333c0 2.761 2.238 5 5 5s5-2.239 5-5v-8.333h8.333c2.762 0 5-2.239 5-5s-2.238-5-5-5z" fill="#fff"/></g></svg>