<svg width="19" height="20" viewBox="0 0 19 20" fill="none" xmlns="http://www.w3.org/2000/svg">
<g clip-path="url(#clip0)">
<path d="M15.4613 0.5H3.53681C1.58608 0.5 -0.000976562 2.08702 -0.000976562 4.03775V15.9623C-0.000976562 17.913 1.58608 19.5 3.53681 19.5H15.4613C17.412 19.5 18.999 17.913 18.999 15.9623V4.03775C18.999 2.08702 17.412 0.5 15.4613 0.5ZM9.49902 14.134C7.21951 14.134 5.36504 12.2794 5.36504 10C5.36504 7.72056 7.21951 5.86602 9.49902 5.86602C11.7785 5.86602 13.633 7.72052 13.633 10C13.633 12.2795 11.7785 14.134 9.49902 14.134ZM15.2585 5.02768C15.155 5.13121 15.0118 5.19059 14.8652 5.19059C14.7186 5.19059 14.575 5.13121 14.4714 5.02768C14.3679 4.92414 14.3085 4.78053 14.3085 4.63395C14.3085 4.4874 14.3679 4.34409 14.4714 4.24059C14.575 4.13664 14.7186 4.07731 14.8652 4.07731C15.0114 4.07731 15.155 4.13668 15.2585 4.24059C15.3625 4.34409 15.4218 4.48737 15.4218 4.63395C15.4218 4.78053 15.3625 4.92414 15.2585 5.02768Z" fill="#0A2540"/>
<path d="M9.51123 6.81723C11.2596 6.81723 12.6819 8.23961 12.6819 9.98795C12.6819 11.7363 11.2596 13.1587 9.51123 13.1587C7.7629 13.1587 6.34051 11.7363 6.34051 9.98795C6.34051 8.23961 7.76286 6.81723 9.51123 6.81723Z" fill="#0A2540"/>
</g>
<defs>
<clipPath id="clip0">
<rect width="19" height="19" fill="white" transform="translate(-0.000976562 0.5)"/>
</clipPath>
</defs>
</svg>
