<svg width="443" height="435" viewBox="0 0 443 435" fill="none" xmlns="http://www.w3.org/2000/svg">
<path opacity="0.97" d="M298.93 10.069C298.93 10.069 225.881 -15.9557 154.167 25.4705C82.4536 66.8968 46.2654 149.126 15.1995 214.987C-15.8664 280.848 2.01183 347.857 56.7512 378.408C111.491 408.96 148.713 363.922 225.489 361.729C302.265 359.536 322.915 370.532 386.664 327.083C450.413 283.635 461.913 181.015 411.643 105.084C361.373 29.1524 298.93 10.069 298.93 10.069Z" fill="white"/>
<path d="M23.863 433.95H430.543" stroke="#263238" stroke-linecap="round" stroke-linejoin="round"/>
<path d="M218.283 434.52V0.140015" stroke="#263238" stroke-linecap="round" stroke-linejoin="round"/>
<path d="M201.263 41.29H176.313V51.31H201.263V41.29Z" stroke="#263238" stroke-linecap="round" stroke-linejoin="round"/>
<path d="M181.283 52.75H156.333V62.77H181.283V52.75Z" stroke="#263238" stroke-linecap="round" stroke-linejoin="round"/>
<path d="M124.013 117.73H99.063V127.75H124.013V117.73Z" stroke="#263238" stroke-linecap="round" stroke-linejoin="round"/>
<path d="M136.483 130.96H111.533V140.98H136.483V130.96Z" stroke="#263238" stroke-linecap="round" stroke-linejoin="round"/>
<path d="M213.743 211.85H188.793V221.87H213.743V211.85Z" stroke="#263238" stroke-linecap="round" stroke-linejoin="round"/>
<path d="M200.073 224.32H175.123V234.34H200.073V224.32Z" stroke="#263238" stroke-linecap="round" stroke-linejoin="round"/>
<path d="M54.753 236.23H29.803V246.25H54.753V236.23Z" stroke="#263238" stroke-linecap="round" stroke-linejoin="round"/>
<path d="M67.933 249.57H42.983V259.59H67.933V249.57Z" stroke="#263238" stroke-linecap="round" stroke-linejoin="round"/>
<path d="M205.863 301.94H180.913V311.96H205.863V301.94Z" stroke="#263238" stroke-linecap="round" stroke-linejoin="round"/>
<path d="M185.783 211.85H160.833V221.87H185.783V211.85Z" stroke="#263238" stroke-linecap="round" stroke-linejoin="round"/>
<path d="M67.193 182.73C91.443 183 116.443 183 139.953 182.73" stroke="#263238" stroke-linecap="round" stroke-linejoin="round"/>
<path d="M57.193 182.73H63.293" stroke="#263238" stroke-linecap="round" stroke-linejoin="round"/>
<path d="M213.443 92.77H218.263" stroke="#263238" stroke-linecap="round" stroke-linejoin="round"/>
<path d="M196.233 92.77L210.163 92.89" stroke="#263238" stroke-linecap="round" stroke-linejoin="round"/>
<path d="M182.023 286.17H178.583" stroke="#263238" stroke-linecap="round" stroke-linejoin="round"/>
<path d="M218.283 286.17H185.933" stroke="#263238" stroke-linecap="round" stroke-linejoin="round"/>
<path d="M255.493 434.34H145.523L139.033 330.47H249.013L255.493 434.34Z" fill="#BFBFBF" stroke="#263238" stroke-miterlimit="10"/>
<path d="M259.493 434.34H149.523L143.033 330.47H253.013L259.493 434.34Z" fill="white"/>
<path d="M154.913 354.15C154.913 354.15 162.393 341.15 175.803 342.28C189.213 343.41 191.553 356 198.303 351.12C205.053 346.24 224.433 343.69 231.953 343.58C239.473 343.47 239.463 344.13 241.443 351.12C243.423 358.11 236.693 367.2 241.443 372.74C246.193 378.28 250.503 387.54 241.813 396.74C233.123 405.94 233.153 419.54 224.443 420.66C215.733 421.78 198.713 409.82 189.623 415.21C180.533 420.6 163.113 428.4 164.693 420.74C166.273 413.08 169.063 397.54 161.543 392.25C154.023 386.96 149.933 360.14 154.913 354.15Z" fill="#263238"/>
<path opacity="0.8" d="M154.913 354.15C154.913 354.15 162.393 341.15 175.803 342.28C189.213 343.41 191.553 356 198.303 351.12C205.053 346.24 224.433 343.69 231.953 343.58C239.473 343.47 239.463 344.13 241.443 351.12C243.423 358.11 236.693 367.2 241.443 372.74C246.193 378.28 250.503 387.54 241.813 396.74C233.123 405.94 233.153 419.54 224.443 420.66C215.733 421.78 198.713 409.82 189.623 415.21C180.533 420.6 163.113 428.4 164.693 420.74C166.273 413.08 169.063 397.54 161.543 392.25C154.023 386.96 149.933 360.14 154.913 354.15Z" fill="white"/>
<path opacity="0.4" d="M207.953 365.62C198.453 358.98 200.183 370.75 193.383 373.99C186.583 377.23 182.023 377.81 177.713 379.99C173.403 382.17 179.153 392.44 182.473 400.11C185.793 407.78 180.043 414.68 187.933 418.11C195.823 421.54 206.933 418.67 213.133 415.22C219.333 411.77 229.313 408.63 227.733 396.75C226.153 384.87 213.733 375.37 214.283 370.63C214.833 365.89 210.673 367.53 207.953 365.62Z" fill="white"/>
<path opacity="0.4" d="M241.133 359.23C231.853 353.08 235.633 361.89 230.233 363.62C224.833 365.35 212.963 363.51 220.343 371.16C227.723 378.81 230.603 384.09 229.563 386.46C228.523 388.83 233.003 391.73 233.563 395.69C234.123 399.65 229.083 405.2 236.203 405.19C243.323 405.18 245.433 403.58 243.843 391.46C242.253 379.34 246.223 379.07 245.693 373.54C245.163 368.01 245.753 362.29 241.133 359.23Z" fill="white"/>
<path opacity="0.4" d="M183.683 368C188.783 368.92 192.563 364 196.033 360.35C199.503 356.7 204.253 357.71 209.533 360.35C214.813 362.99 220.613 360.35 221.533 357.08C222.453 353.81 223.813 347.64 217.993 343.58C212.173 339.52 206.363 336.05 200.563 337.39C194.763 338.73 196.343 354.28 185.793 349.27C175.243 344.26 172.083 365.89 183.683 368Z" fill="white"/>
<path opacity="0.4" d="M150.193 374.59C149.923 366.42 151.513 355.59 160.193 354.81C168.873 354.03 168.373 367.81 174.433 369.08C180.493 370.35 180.233 376.96 173.433 377.76C166.633 378.56 168.943 388.33 173.433 392.27C177.923 396.21 171.433 412.15 164.513 408.93C157.593 405.71 150.983 398.85 150.193 374.59Z" fill="white"/>
<path opacity="0.4" d="M167.333 369.08C162.713 360.42 169.403 352.75 178.783 357.08C188.163 361.41 193.623 358 196.033 355.75C198.443 353.5 211.333 368 198.303 377.75C185.273 387.5 200.083 397.75 187.933 402.8C175.783 407.85 170.033 408.34 166.703 393.57C163.373 378.8 173.443 380.45 167.333 369.08Z" fill="white"/>
<path opacity="0.4" d="M210.963 395.69C205.903 383.23 219.023 373.01 229.313 379.61C239.603 386.21 226.893 390.06 234.853 396.76C242.813 403.46 248.303 407.06 237.753 418.12C227.203 429.18 208.253 431.03 202.033 421.8C195.813 412.57 215.023 405.71 210.963 395.69Z" fill="white"/>
<path opacity="0.4" d="M157.663 413.62C156.583 403.62 158.363 392.28 173.403 392.27C188.443 392.26 200.523 396.59 198.303 408.93C196.083 421.27 204.573 424.7 187.933 427.73C171.293 430.76 159.863 433.93 157.663 413.62Z" fill="white"/>
<path opacity="0.4" d="M158.893 345.05C158.893 345.05 167.383 339.84 173.133 345.05C178.883 350.26 184.133 360.66 193.383 357.05C202.633 353.44 206.383 349.18 219.813 348.16C233.243 347.14 229.313 341.59 235.373 346.34C241.433 351.09 232.443 360 237.753 366.75C243.063 373.5 249.193 367.24 245.753 352.45C242.313 337.66 238.323 337.58 229.083 337.1C219.843 336.62 199.813 352.7 194.273 345.58C188.733 338.46 176.273 334.68 165.873 337.1C155.473 339.52 152.443 345.78 158.893 345.05Z" fill="white"/>
<path d="M187.893 434.34H145.523L139.033 330.47H153.283L187.893 434.34Z" fill="black" fill-opacity="0.2"/>
<path d="M259.493 434.34H149.523L143.033 330.47H253.013L259.493 434.34Z" stroke="#263238" stroke-linecap="round" stroke-linejoin="round"/>
<path d="M49.313 434.23H159.293L141.013 270.77H31.033L49.313 434.23Z" fill="#BFBFBF" stroke="#263238" stroke-miterlimit="10"/>
<path d="M39.303 308.96L53.313 434.23H163.293L145.013 270.77H35.033L36.433 283.32" fill="white"/>
<path d="M39.303 308.96L53.313 434.23H163.293L145.013 270.77H35.033L36.433 283.32" stroke="#263238" stroke-linecap="round" stroke-linejoin="round"/>
<path d="M37.843 295.86L38.513 301.94" stroke="#263238" stroke-linecap="round" stroke-linejoin="round"/>
<path d="M55.7329 310.68C59.0229 300.81 67.9929 300.78 76.3029 291.49C84.6129 282.2 81.8429 277.85 97.3029 284.18C112.763 290.51 111.203 294.36 118.493 301.93C125.783 309.5 135.383 308.93 131.573 318.51C127.763 328.09 136.823 338.77 140.803 345.51C144.783 352.25 143.943 363.7 140.803 370.83C137.663 377.96 151.463 390.61 140.803 402.08C130.143 413.55 111.913 413.67 100.243 415C88.5729 416.33 78.6729 413.16 73.1329 403.66C67.5929 394.16 55.7329 410.78 61.2629 389.42C66.7929 368.06 68.7829 348.52 62.0629 340.29C55.3429 332.06 53.3529 317.8 55.7329 310.68Z" fill="#FCC101"/>
<path opacity="0.6" d="M55.7329 310.68C59.0229 300.81 67.9929 300.78 76.3029 291.49C84.6129 282.2 81.8429 277.85 97.3029 284.18C112.763 290.51 111.203 294.36 118.493 301.93C125.783 309.5 135.383 308.93 131.573 318.51C127.763 328.09 136.823 338.77 140.803 345.51C144.783 352.25 143.943 363.7 140.803 370.83C137.663 377.96 151.463 390.61 140.803 402.08C130.143 413.55 111.913 413.67 100.243 415C88.5729 416.33 78.6729 413.16 73.1329 403.66C67.5929 394.16 55.7329 410.78 61.2629 389.42C66.7929 368.06 68.7829 348.52 62.0629 340.29C55.3429 332.06 53.3529 317.8 55.7329 310.68Z" fill="white"/>
<path opacity="0.6" d="M116.083 279.69L57.043 352.5L59.423 356.18L127.733 284.97L116.083 279.69Z" fill="white"/>
<path opacity="0.6" d="M129.553 298.9L95.163 342.2L104.253 357.23L122.193 337.45L126.143 342.99L97.663 375.69L106.633 388.35L136.693 346.68L127.733 332.44L136.693 307.91L129.553 298.9Z" fill="white"/>
<path opacity="0.2" d="M115.233 327.78C113.207 324.858 110.448 322.52 107.233 321C104.323 319.62 100.993 318.88 98.603 316.71C95.283 313.71 94.673 308.63 95.323 304.18C95.703 301.54 96.443 298.86 95.923 296.24C95.403 293.62 93.013 291.1 90.393 291.61C89.4489 291.849 88.5794 292.32 87.863 292.98C85.824 294.877 84.0932 297.08 82.733 299.51C77.943 307.08 71.273 313.28 66.133 320.74C63.5025 324.414 61.213 328.32 59.293 332.41C54.9777 342.224 54.2485 353.243 57.233 363.54C60.4088 361.025 64.3986 359.765 68.443 360C69.1202 359.975 69.7804 360.215 70.283 360.67C70.5763 361.063 70.7373 361.539 70.743 362.03C70.953 364.45 69.933 366.79 69.363 369.15C68.754 371.692 68.6622 374.331 69.093 376.91C69.2774 378.445 69.8715 379.903 70.813 381.13C71.6343 381.974 72.6494 382.605 73.77 382.967C74.8906 383.33 76.0829 383.413 77.243 383.21C79.5618 382.771 81.7729 381.884 83.753 380.6C85.542 379.746 87.0508 378.4 88.103 376.72C88.7184 375.14 89.0567 373.465 89.103 371.77C89.903 365.54 93.213 359.85 97.383 355.15C101.553 350.45 106.603 346.62 111.563 342.76C113.983 340.87 116.563 338.76 117.253 335.76C117.983 333 116.843 330.12 115.233 327.78Z" fill="white"/>
<path opacity="0.2" d="M61.0029 373.32L86.4829 351.17L93.7029 391.51L77.3529 408.98L72.2129 402.36L81.3129 386.77L77.2729 383.25L68.3829 391.51L61.0029 373.32Z" fill="white"/>
<path opacity="0.2" d="M130.602 414.71C138.623 406.688 138.623 393.683 130.602 385.662C122.58 377.64 109.575 377.64 101.554 385.662C93.5325 393.683 93.5325 406.688 101.554 414.71C109.575 422.731 122.58 422.731 130.602 414.71Z" fill="white"/>
<path opacity="0.2" d="M119.553 391.51L93.703 423.69L97.663 427.78L123.773 395.48L119.553 391.51Z" fill="white"/>
<path opacity="0.2" d="M146.873 377.8L122.193 418.69L150.293 423.96L146.873 377.8Z" fill="white"/>
<path opacity="0.2" d="M54.7629 281.19L90.2729 277.85L63.9029 311.87L54.7629 281.19Z" fill="white"/>
<path d="M336.383 187.4L378.193 434.23H386.343L344.543 187.4H336.383Z" fill="#757575" stroke="#263238" stroke-linecap="round" stroke-linejoin="round"/>
<path d="M382.263 434.23H378.193L336.383 187.4H340.463L382.263 434.23Z" fill="#999999" stroke="#263238" stroke-linecap="round" stroke-linejoin="round"/>
<path d="M356.343 93.19H348.193L323.843 433.95H331.993L356.343 93.19Z" fill="#757575" stroke="#263238" stroke-linecap="round" stroke-linejoin="round"/>
<path d="M326.343 93.19H318.193L260.433 434.23H268.583L326.343 93.19Z" fill="#757575" stroke="#263238" stroke-linecap="round" stroke-linejoin="round"/>
<path d="M322.263 93.19H318.193L260.433 434.23H264.513L322.263 93.19Z" fill="#999999" stroke="#263238" stroke-linecap="round" stroke-linejoin="round"/>
<path d="M352.263 93.19H348.193L323.843 433.95H327.913L352.263 93.19Z" fill="#999999" stroke="#263238" stroke-linecap="round" stroke-linejoin="round"/>
<path d="M373.153 273.41H263.183L281.463 109.95H391.433L373.153 273.41Z" fill="#BFBFBF" stroke="#263238" stroke-miterlimit="10"/>
<path d="M383.163 148.13L369.153 273.41H259.183L277.463 109.95H387.433L386.033 122.5" fill="white"/>
<path d="M383.163 148.13L369.153 273.41H259.183L277.463 109.95H387.433L386.033 122.5" stroke="#263238" stroke-linecap="round" stroke-linejoin="round"/>
<path d="M384.633 135.04L383.953 141.12" stroke="#263238" stroke-linecap="round" stroke-linejoin="round"/>
<path d="M278.823 159C281.633 150.48 288.913 143.55 290.043 134.62C291.173 125.69 292.683 120.73 301.183 119.47C309.683 118.21 315.923 133.23 327.803 126.56C339.683 119.89 355.443 110.33 361.443 124.68C367.443 139.03 367.313 143.68 372.783 145.74C378.253 147.8 377.053 170.8 369.453 173.61C361.853 176.42 360.373 189.04 365.283 197.94C370.193 206.84 369.233 223.18 362.693 230.61C356.153 238.04 363.833 244.86 357.963 255.46C352.093 266.06 329.963 268.56 314.673 264.63C299.383 260.7 297.543 246.29 288.323 244.36C279.103 242.43 272.673 230.3 273.373 219C274.073 207.7 282.723 202 282.023 189.29C281.323 176.58 276.013 167.54 278.823 159Z" fill="#2C8CF4"/>
<path opacity="0.2" d="M278.823 159C281.633 150.48 288.913 143.55 290.043 134.62C291.173 125.69 292.683 120.73 301.183 119.47C309.683 118.21 315.923 133.23 327.803 126.56C339.683 119.89 355.443 110.33 361.443 124.68C367.443 139.03 367.313 143.68 372.783 145.74C378.253 147.8 377.053 170.8 369.453 173.61C361.853 176.42 360.373 189.04 365.283 197.94C370.193 206.84 369.233 223.18 362.693 230.61C356.153 238.04 363.833 244.86 357.963 255.46C352.093 266.06 329.963 268.56 314.673 264.63C299.383 260.7 297.543 246.29 288.323 244.36C279.103 242.43 272.673 230.3 273.373 219C274.073 207.7 282.723 202 282.023 189.29C281.323 176.58 276.013 167.54 278.823 159Z" fill="white"/>
<path d="M370.823 136.94C371.013 132.22 366.283 128.94 362.143 126.71L360.453 125.79C359.524 125.232 358.534 124.783 357.503 124.45C351.893 122.83 346.833 127.97 341.373 130.04C338.019 131.223 334.371 131.287 330.978 130.221C327.585 129.156 324.629 127.018 322.553 124.13C320.493 121.13 318.283 116.75 314.703 117.53C311.453 118.24 310.333 122.96 307.083 123.62C304.083 124.22 301.223 121.02 298.353 121.96C297.353 122.28 296.603 123.04 295.633 123.38C293.563 124.12 291.013 122.82 289.163 124.01C287.313 125.2 287.503 127.7 287.793 129.77C288.383 133.87 289.023 136.77 287.703 140.66C286.153 145.21 284.033 149.49 285.703 154.39C286.363 156.39 287.583 158.39 286.973 160.32C286.596 161.169 286.172 161.997 285.703 162.8C284.493 165.56 286.113 168.65 286.703 171.61C287.353 175.01 286.583 178.51 285.803 181.89C285.491 183.88 284.776 185.785 283.703 187.49C282.615 188.729 281.457 189.905 280.233 191.01C278.825 192.596 277.89 194.547 277.537 196.638C277.183 198.73 277.424 200.879 278.233 202.84C280.233 207.49 285.433 210.73 285.883 215.78C286.153 218.86 284.493 221.83 282.293 223.99C280.093 226.15 277.353 227.67 274.783 229.39C273.575 230.054 272.593 231.064 271.963 232.29C270.453 236.05 275.543 239.58 275.293 243.64C275.153 245.88 273.353 247.87 273.623 250.1C273.903 252.51 276.393 253.96 278.623 254.83C285.383 257.46 293.113 258.42 299.853 255.74C304.963 253.74 309.853 249.61 315.243 250.74C319.813 251.68 323.293 256.27 327.963 256.19C333.083 256.1 336.453 250.47 341.423 249.24C339.863 247.82 340.423 245.02 342.053 243.71C343.683 242.4 346.053 242.28 348.103 242.61C350.363 242.97 352.943 243.71 354.733 242.28C357.163 240.36 355.893 236.56 354.993 233.59C353.961 230.06 353.78 226.335 354.464 222.721C355.149 219.108 356.681 215.708 358.933 212.8C360.313 211.05 362.053 209.08 361.493 206.93C361.193 205.81 360.303 204.93 359.973 203.82C358.903 200.29 363.663 197.68 364.373 194.07C364.803 191.91 363.713 189.77 362.653 187.84L357.283 178C355.443 174.65 353.563 170.67 355.103 167.17C357.533 161.68 366.713 161.29 368.103 155.46C368.803 152.6 367.183 149.65 367.463 146.72C367.823 143.24 370.683 140.39 370.823 136.94Z" fill="#2C8CF4"/>
<path opacity="0.2" d="M314.543 187.82L319.823 223.13L354.673 209.41L347.443 176.28L314.543 187.82Z" fill="white"/>
<path opacity="0.6" d="M327.583 193.96L363.223 216.19L324.403 241.24L327.583 193.96Z" fill="white"/>
<path opacity="0.4" d="M317.022 202.624L311.226 202.403L309.184 256.034L314.98 256.255L317.022 202.624Z" fill="white"/>
<path opacity="0.2" d="M367.682 141.904C368.442 134.087 362.721 127.135 354.904 126.375C347.087 125.616 340.135 131.337 339.375 139.153C338.616 146.97 344.337 153.922 352.153 154.682C359.97 155.441 366.922 149.721 367.682 141.904Z" fill="white"/>
<path opacity="0.2" d="M281.473 248.85L282.253 228.44L292.463 223.67L295.663 201.81L287.173 196.28L291.163 157.11L308.573 152.19L304.583 190.94L320.733 199.21L320.863 229.01L303.813 234.66L302.733 262.95L281.473 248.85Z" fill="white"/>
<path opacity="0.6" d="M288.373 137.8L324.743 141.11L320.493 134.4L288.373 137.8Z" fill="white"/>
<path opacity="0.4" d="M324.193 155.73L338.483 153.94L346.433 160L324.193 155.73Z" fill="white"/>
<path opacity="0.6" d="M284.433 170.27L319.773 165.77L324.193 180.28L311.333 184.23L314.543 196.04L297.623 199.7L284.433 170.27Z" fill="white"/>
<path d="M396.553 390C396.553 390 399.473 364.6 409.173 342.58C418.873 320.56 410.173 315.85 404.943 321.35C399.713 326.85 394.053 347.51 394.053 347.51C394.053 347.51 396.633 325.89 395.583 314.36C394.053 297.48 391.423 284.3 383.643 286.36C374.643 288.77 387.423 321.36 384.053 355.51C384.053 355.51 372.203 336.68 368.053 320.58C363.903 304.48 353.183 311.46 356.903 325.86C360.623 340.26 375.033 348.31 380.603 363.93C380.603 363.93 362.053 346.77 356.133 353.53C352.793 357.34 361.243 360.08 364.903 361.84C382.663 370.34 387.213 391.61 387.213 391.61L396.553 390Z" fill="#40C140"/>
<path opacity="0.2" d="M396.553 390C396.553 390 399.473 364.6 409.173 342.58C418.873 320.56 410.173 315.85 404.943 321.35C399.713 326.85 394.053 347.51 394.053 347.51C394.053 347.51 396.633 325.89 395.583 314.36C394.053 297.48 391.423 284.3 383.643 286.36C374.643 288.77 387.423 321.36 384.053 355.51C384.053 355.51 372.203 336.68 368.053 320.58C363.903 304.48 353.183 311.46 356.903 325.86C360.623 340.26 375.033 348.31 380.603 363.93C380.603 363.93 362.053 346.77 356.133 353.53C352.793 357.34 361.243 360.08 364.903 361.84C382.663 370.34 387.213 391.61 387.213 391.61L396.553 390Z" fill="black" fill-opacity="0.7"/>
<path d="M396.553 390C396.553 390 399.473 364.6 409.173 342.58C418.873 320.56 410.173 315.85 404.943 321.35C399.713 326.85 394.053 347.51 394.053 347.51C394.053 347.51 396.633 325.89 395.583 314.36C394.053 297.48 391.423 284.3 383.643 286.36C374.643 288.77 387.423 321.36 384.053 355.51C384.053 355.51 372.203 336.68 368.053 320.58C363.903 304.48 353.183 311.46 356.903 325.86C360.623 340.26 375.033 348.31 380.603 363.93C380.603 363.93 362.053 346.77 356.133 353.53C352.793 357.34 361.243 360.08 364.903 361.84C382.663 370.34 387.213 391.61 387.213 391.61L396.553 390Z" stroke="#263238" stroke-linecap="round" stroke-linejoin="round"/>
<path d="M385.763 384.53C385.763 384.53 387.233 357.95 377.533 335.93C367.833 313.91 376.533 312.19 381.683 317.69C386.833 323.19 390.833 351.69 390.833 351.69C390.833 351.69 395.393 326.15 393.323 308.49C391.253 290.83 391.393 280.88 398.673 280.88C407.963 280.88 405.783 324.11 398.263 350.02C398.263 350.02 410.113 331.2 414.263 315.1C418.413 299 429.173 306 425.443 320.41C421.713 334.82 407.323 342.85 401.743 358.48C401.743 358.48 420.293 341.32 426.213 348.08C429.553 351.89 421.103 354.63 417.443 356.38C399.683 364.89 395.133 386.16 395.133 386.16L385.763 384.53Z" fill="#40C140" stroke="#263238" stroke-linecap="round" stroke-linejoin="round"/>
<path d="M399.253 324C399.873 317.348 399.873 310.652 399.253 304" stroke="#263238" stroke-linecap="round" stroke-linejoin="round"/>
<path d="M384.823 341C389.043 353.71 390.823 367.16 391.143 380.51C394.851 362.747 397.493 344.778 399.053 326.7" stroke="#263238" stroke-linecap="round" stroke-linejoin="round"/>
<path d="M382.443 334.82C382.923 335.9 383.363 337 383.783 338.1" stroke="#263238" stroke-linecap="round" stroke-linejoin="round"/>
<path d="M412.663 334.51C407.813 343.27 402.463 352.73 394.893 359.45" stroke="#263238" stroke-linecap="round" stroke-linejoin="round"/>
<path d="M418.043 324.14C416.753 326.85 415.363 329.52 413.943 332.14" stroke="#263238" stroke-linecap="round" stroke-linejoin="round"/>
<path d="M401.743 363.5C398.443 366.23 394.913 369.18 392.593 372.85" stroke="#263238" stroke-linecap="round" stroke-linejoin="round"/>
<path d="M418.043 351.64C413.123 354.83 408.323 358.25 403.723 361.9" stroke="#263238" stroke-linecap="round" stroke-linejoin="round"/>
<path d="M419.373 375.11H362.463L366.863 435.34H414.973L419.373 375.11Z" fill="#263238"/>
<path d="M173.803 370.63L198.953 423.66H210.963L190.973 363.64L173.803 370.63Z" fill="white" stroke="#263238" stroke-linecap="round" stroke-linejoin="round"/>
<path d="M198.303 385C198.303 385 188.573 389.69 180.663 388L177.663 382.77C177.663 382.77 170.183 376.57 162.743 364.33C160.664 360.899 158.794 357.346 157.143 353.69C148.433 334.41 139.813 309.69 139.813 309.69L120.173 261.95L119.173 259.44L111.523 237.09L157.653 213.09C157.653 213.09 163.873 244.93 163.473 253.09C163.073 261.25 185.473 330.93 187.913 339.24C190.353 347.55 198.293 371.6 196.313 379.35L198.303 385Z" fill="#EC625E"/>
<path opacity="0.2" d="M163.293 363.64C163.123 363.88 162.963 364.1 162.783 364.32C160.704 360.889 158.834 357.336 157.183 353.68C148.473 334.4 139.853 309.68 139.853 309.68L120.213 261.94L137.793 246.25L142.953 247.07C142.953 247.07 146.403 252.47 141.473 255.57C136.543 258.67 144.913 270.85 149.073 279.69C153.233 288.53 146.073 297.11 146.073 297.11C146.073 297.11 152.663 311.04 160.803 317.94C160.803 317.94 154.363 316.23 157.633 322.94C160.903 329.65 170.093 353.87 163.293 363.64Z" fill="black" fill-opacity="0.7"/>
<path d="M198.303 385C198.303 385 188.573 389.69 180.663 388L177.663 382.77C177.663 382.77 170.183 376.57 162.743 364.33C160.664 360.899 158.794 357.346 157.143 353.69C148.433 334.41 139.813 309.69 139.813 309.69L120.173 261.95L119.173 259.44L111.523 237.09L157.653 213.09C157.653 213.09 163.873 244.93 163.473 253.09C163.073 261.25 185.473 330.93 187.913 339.24C190.353 347.55 198.293 371.6 196.313 379.35L198.303 385Z" stroke="#263238" stroke-linecap="round" stroke-linejoin="round"/>
<path d="M182.443 382.16C182.443 382.16 190.143 382.54 193.353 379.99" stroke="#263238" stroke-linecap="round" stroke-linejoin="round"/>
<path d="M196.973 434.23C194.473 433.11 196.773 423.66 196.773 423.66C196.773 423.66 193.403 421.4 196.773 419.05C198.076 420.155 199.656 420.884 201.342 421.157C203.029 421.43 204.758 421.238 206.343 420.6C206.343 420.6 207.003 414.27 210.963 415.09C210.963 415.09 211.963 419.09 214.293 421.39C220.583 427.59 228.713 428.3 230.073 431.29C230.268 432.264 230.238 433.27 229.983 434.23H196.973Z" fill="#263238"/>
<path d="M191.883 131L220.583 174.11L259.583 143.31L268.583 147.83C268.583 147.83 231.923 192.37 219.793 193.83C207.663 195.29 178.583 153.33 178.583 153.33" fill="white"/>
<path d="M191.883 131L220.583 174.11L259.583 143.31L268.583 147.83C268.583 147.83 231.923 192.37 219.793 193.83C207.663 195.29 178.583 153.33 178.583 153.33" stroke="#263238" stroke-linecap="round" stroke-linejoin="round"/>
<path d="M187.593 124.37C193.479 126.903 198.39 131.27 201.593 136.82C206.873 146.05 212.443 154 212.443 154C212.443 154 199.673 168 189.443 171.93L177.243 167.71L187.593 124.37Z" fill="#263238"/>
<path d="M118.763 373.26L132.603 423.66H144.513L139.353 365.97L118.763 373.26Z" fill="white" stroke="#263238" stroke-linecap="round" stroke-linejoin="round"/>
<path d="M157.663 228.6L105.073 202.89C105.073 202.89 95.573 230.95 96.073 254.57C96.573 278.19 104.433 310.57 105.073 325.5C105.713 340.43 104.763 368.56 121.073 387.99L123.073 394.23C123.073 394.23 138.133 396.34 142.873 394.23L142.083 388.35C142.083 388.35 148.573 375.24 143.683 354.14C138.793 333.04 136.443 255.77 136.443 255.77C136.443 255.77 142.313 250.77 144.683 245.68" fill="#EC625E"/>
<path d="M157.663 228.6L105.073 202.89C105.073 202.89 95.573 230.95 96.073 254.57C96.573 278.19 104.433 310.57 105.073 325.5C105.713 340.43 104.763 368.56 121.073 387.99L123.073 394.23C123.073 394.23 138.133 396.34 142.873 394.23L142.083 388.35C142.083 388.35 148.573 375.24 143.683 354.14C138.793 333.04 136.443 255.77 136.443 255.77C136.443 255.77 142.313 250.77 144.683 245.68" stroke="#263238" stroke-linecap="round" stroke-linejoin="round"/>
<path d="M107.703 196.2C110.873 178.35 115.003 136.13 129.243 126.49C143.483 116.85 167.923 116.03 177.783 119.93C197.113 127.59 197.413 131.19 194.253 145.78C191.093 160.37 170.313 205.18 170.313 205.18L165.503 228.91C165.503 228.91 147.423 242.69 126.693 236.91C102.383 230.14 98.443 214.78 98.443 214.78L107.703 196.2Z" fill="#263238"/>
<path d="M179.973 110.1C179.596 110.759 179.128 111.361 178.583 111.89C178.161 112.299 177.761 112.73 177.383 113.18C176.022 114.649 175.085 116.46 174.673 118.42C174.504 119.42 174.559 120.444 174.833 121.42C175.255 122.834 176.083 124.092 177.213 125.04C177.213 125.04 177.443 131.4 169.553 132.17C160.063 133.09 154.733 123.17 154.733 123.17C166.553 106.94 157.663 100.08 157.663 100.08C169.133 93.77 184.323 102.4 179.973 110.1Z" fill="white" stroke="#263238" stroke-linecap="round" stroke-linejoin="round"/>
<path d="M177.383 113.18C176.022 114.649 175.085 116.46 174.673 118.42C168.323 115.29 167.923 110.7 167.923 110.7C170.618 111.129 173.253 111.874 175.773 112.92C176.29 113.1 176.835 113.188 177.383 113.18Z" fill="#263238"/>
<path d="M155.873 92.77C151.573 74.35 160.473 66.36 166.313 63.95C175.653 60.08 187.803 66.16 190.573 76.4C193.343 86.64 190.843 88.96 190.973 93.15C191.063 96.09 192.873 97.53 190.883 104.9C189.563 109.77 187.353 117.66 179.053 116.17C174.928 115.205 171.064 113.348 167.733 110.73" fill="white"/>
<path d="M155.873 92.77C151.573 74.35 160.473 66.36 166.313 63.95C175.653 60.08 187.803 66.16 190.573 76.4C193.343 86.64 190.843 88.96 190.973 93.15C191.063 96.09 192.873 97.53 190.883 104.9C189.563 109.77 187.353 117.66 179.053 116.17C174.928 115.205 171.064 113.348 167.733 110.73" stroke="#263238" stroke-linecap="round" stroke-linejoin="round"/>
<path d="M154.733 65.35C154.733 65.35 155.873 56.82 164.473 56.82C168.313 56.82 172.203 63.82 177.733 61.33C183.263 58.84 188.733 59.14 190.383 61.13C193.953 65.35 189.923 69.44 194.143 70.37C198.363 71.3 199.713 75.45 197.403 78.37C195.093 81.29 197.773 84.37 197.313 86.47C197.049 87.9415 196.275 89.2729 195.126 90.2296C193.977 91.1862 192.528 91.707 191.033 91.7C191.033 91.7 193.353 78.91 189.803 76.81C186.733 74.98 184.173 77.61 184.173 77.61C179.443 74.88 174.083 77.02 172.583 78.93C169.823 82.47 171.693 86.59 168.823 88.82C167.823 89.64 164.823 90.16 165.233 92.82C165.643 95.48 163.233 97.28 163.233 97.28L161.443 102.76C161.443 102.76 163.533 108.41 159.853 112.76C158.723 114.11 156.633 114.27 152.853 111.86C153.828 111.373 154.575 110.525 154.936 109.496C155.296 108.468 155.241 107.339 154.783 106.35C153.853 104.23 151.263 105.99 149.293 103.35C147.033 100.35 149.293 95.84 148.973 93.23C148.703 91.14 146.253 92.51 144.153 88.05C143.573 86.83 143.153 80.55 146.923 76.86C146.873 76.88 142.933 68.44 154.733 65.35Z" fill="#263238"/>
<path d="M166.313 96C166.313 96 162.933 89.7 159.403 91.24C155.873 92.78 158.323 100.3 161.403 102.76C164.483 105.22 166.323 102.76 166.323 102.76" fill="white"/>
<path d="M166.313 96C166.313 96 162.933 89.7 159.403 91.24C155.873 92.78 158.323 100.3 161.403 102.76C164.483 105.22 166.323 102.76 166.323 102.76" stroke="#263238" stroke-linecap="round" stroke-linejoin="round"/>
<path d="M180.133 86.79C180.133 86.79 176.673 85.5 174.823 89.56" stroke="#263238" stroke-linecap="round" stroke-linejoin="round"/>
<path d="M191.883 84.64C191.883 84.64 188.273 83.86 186.733 86.47" stroke="#263238" stroke-linecap="round" stroke-linejoin="round"/>
<path d="M185.813 91.7C185.813 91.7 185.503 94.92 186.733 95.54C187.963 96.16 189.883 94.85 189.303 97.42C188.723 99.99 185.773 100.14 185.773 100.14" stroke="#263238" stroke-linecap="round" stroke-linejoin="round"/>
<path d="M179.443 92.55C179.443 93.4 179.063 94.1 178.583 94.1C178.103 94.1 177.733 93.4 177.733 92.55C177.733 91.7 178.113 91 178.583 91C179.053 91 179.443 91.69 179.443 92.55Z" fill="#263238" stroke="#263238" stroke-linecap="round" stroke-linejoin="round"/>
<path d="M189.313 91.7C189.313 92.56 188.923 93.25 188.453 93.25C187.983 93.25 187.593 92.56 187.593 91.7C187.593 90.84 187.983 90.15 188.453 90.15C188.923 90.15 189.313 90.84 189.313 91.7Z" fill="#263238" stroke="#263238" stroke-linecap="round" stroke-linejoin="round"/>
<path d="M179.443 102.67C179.443 102.67 183.213 104.76 186.733 103.85" stroke="#263238" stroke-linecap="round" stroke-linejoin="round"/>
<path d="M180.133 103.37C180.133 103.37 180.533 106.1 183.133 106.37C183.462 106.417 183.798 106.393 184.117 106.301C184.437 106.208 184.733 106.049 184.986 105.833C185.24 105.618 185.444 105.351 185.587 105.05C185.729 104.75 185.806 104.423 185.813 104.09" stroke="#263238" stroke-linecap="round" stroke-linejoin="round"/>
<path d="M184.173 77.61C183.518 76.8028 182.611 76.2388 181.598 76.0085C180.584 75.7782 179.522 75.895 178.583 76.34C175.253 77.95 176.343 81.6 176.243 83.88C176.143 86.16 174.463 85.25 172.783 86.59C171.103 87.93 172.193 90.15 172.193 90.15C172.193 90.15 168.673 89.56 171.123 86.47C173.573 83.38 175.553 83.98 173.973 81.11C173.572 80.4292 173.339 79.6631 173.291 78.8745C173.244 78.086 173.384 77.2974 173.7 76.5735C174.016 75.8495 174.499 75.2107 175.11 74.7095C175.721 74.2083 176.441 73.859 177.213 73.69C180.793 72.8 184.083 74.81 184.173 77.61Z" fill="#263238"/>
<path d="M129.383 434.23C129.383 434.23 128.153 429.52 129.593 427.77C132.183 424.64 129.273 422.01 131.883 420.92L132.973 422.18C133.183 420.9 132.573 417 137.403 416.49C143.233 415.87 143.343 420.12 143.663 421.49L143.563 419.54C146.053 419.54 144.763 422.02 148.563 426.09C149.551 427.184 150.302 428.469 150.77 429.866C151.238 431.263 151.413 432.742 151.283 434.21L129.383 434.23Z" fill="#263238"/>
<path d="M197.233 145.79C195.173 154.07 191.733 162.48 185.773 168.79" stroke="white" stroke-linecap="round" stroke-linejoin="round"/>
<path d="M198.523 139.2C198.353 140.49 198.123 141.77 197.863 143.04" stroke="white" stroke-linecap="round" stroke-linejoin="round"/>
<path d="M136.243 218.47C134.719 218.5 133.196 218.359 131.703 218.05" stroke="white" stroke-linecap="round" stroke-linejoin="round"/>
<path d="M167.743 205.4C159.423 211.54 149.203 217.17 138.803 218.31" stroke="white" stroke-linecap="round" stroke-linejoin="round"/>
<path d="M109.553 196.16C109.553 196.16 114.033 197.29 121.023 193.83" stroke="white" stroke-linecap="round" stroke-linejoin="round"/>
<path d="M166.493 135.05C168.035 135.22 169.592 135.18 171.123 134.93" stroke="white" stroke-linecap="round" stroke-linejoin="round"/>
<path d="M151.443 124.37C154.143 129.07 158.683 133.14 163.963 134.58" stroke="white" stroke-linecap="round" stroke-linejoin="round"/>
<path d="M109.553 312.63C109.553 312.63 125.023 334.63 133.253 337.12" stroke="#263238" stroke-linecap="round" stroke-linejoin="round"/>
<path d="M124.903 388.35C124.903 388.35 135.003 390.18 139.903 388.35" stroke="#263238" stroke-linecap="round" stroke-linejoin="round"/>
<path d="M144.953 302.51C153.133 311.13 161.703 320.22 171.733 326.71C173.665 328.087 175.83 329.103 178.123 329.71" stroke="#263238" stroke-linecap="round" stroke-linejoin="round"/>
<path d="M139.953 297.11C140.953 298.23 141.953 299.33 143.003 300.43" stroke="#263238" stroke-linecap="round" stroke-linejoin="round"/>
<path d="M147.103 254.58C144.531 255.886 141.688 256.571 138.803 256.58" stroke="#263238" stroke-linecap="round" stroke-linejoin="round"/>
<path d="M133.973 256.56C133.973 256.56 126.693 247.66 119.773 247.07" stroke="#263238" stroke-linecap="round" stroke-linejoin="round"/>
<path d="M126.873 161.67C126.873 161.67 102.233 188.31 96.173 187.31C90.113 186.31 86.973 176.48 88.303 173.76C89.633 171.04 111.833 145.24 111.833 145.24L126.873 161.67Z" fill="white" stroke="#263238" stroke-linecap="round" stroke-linejoin="round"/>
<path d="M136.253 122.74C136.253 122.74 121.703 126.8 114.443 137.62C107.183 148.44 103.753 151.07 103.753 151.07C103.753 151.07 111.133 164.78 117.753 169C124.373 173.22 138.323 165.57 138.323 165.57L136.253 122.74Z" fill="#263238"/>
<path d="M134.803 134C134.042 132.667 132.981 131.53 131.703 130.68" stroke="white" stroke-linecap="round" stroke-linejoin="round"/>
<path d="M119.043 170.27C119.814 170.811 120.695 171.176 121.623 171.34C125.623 166.34 133.443 167 135.443 161C139.443 154 138.443 145 136.043 136.63" stroke="white" stroke-linecap="round" stroke-linejoin="round"/>
<path d="M96.173 187.31C89.243 186.14 81.863 185.71 77.643 159.42L73.443 133.13L82.933 130.29C82.933 130.29 94.763 159.1 98.473 166.29C102.183 173.48 100.063 178 100.063 178" fill="white"/>
<path d="M96.173 187.31C89.243 186.14 81.863 185.71 77.643 159.42L73.443 133.13L82.933 130.29C82.933 130.29 94.763 159.1 98.473 166.29C102.183 173.48 100.063 178 100.063 178" stroke="#263238" stroke-linecap="round" stroke-linejoin="round"/>
<path d="M259.183 143.63C259.183 143.63 266.183 135.92 269.633 133.96C272.893 132.08 276.163 130.82 276.853 130.96C278.593 131.35 282.983 136.29 282.983 136.29C282.983 136.29 282.393 138 279.523 136.72C279.523 136.72 282.853 140.87 282.323 143.03C281.793 145.19 278.113 147.2 277.183 148.17C277.08 148.3 276.949 148.403 276.799 148.473C276.65 148.543 276.486 148.577 276.32 148.572C276.155 148.567 275.994 148.524 275.848 148.445C275.703 148.367 275.578 148.255 275.483 148.12C275.483 148.12 268.683 152.77 264.083 151.64" fill="white"/>
<path d="M259.183 143.63C259.183 143.63 266.183 135.92 269.633 133.96C272.893 132.08 276.163 130.82 276.853 130.96C278.593 131.35 282.983 136.29 282.983 136.29C282.983 136.29 282.393 138 279.523 136.72C279.523 136.72 282.853 140.87 282.323 143.03C281.793 145.19 278.113 147.2 277.183 148.17C277.08 148.3 276.949 148.403 276.799 148.473C276.65 148.543 276.486 148.577 276.32 148.572C276.155 148.567 275.994 148.524 275.848 148.445C275.703 148.367 275.578 148.255 275.483 148.12C275.483 148.12 268.683 152.77 264.083 151.64" stroke="#263238" stroke-linecap="round" stroke-linejoin="round"/>
<path d="M261.623 132.37L301.283 141.27V142.46L261.023 134.46C260.885 134.093 260.868 133.692 260.977 133.316C261.085 132.939 261.311 132.607 261.623 132.37Z" fill="#757575" stroke="#263238" stroke-linecap="round" stroke-linejoin="round"/>
<path d="M308.953 139.22C308.843 139.51 307.553 142.73 305.403 143.66C304.253 144.17 302.863 144.02 301.283 142.46V141.27C301.69 140.821 302.205 140.483 302.778 140.287C303.352 140.091 303.966 140.044 304.563 140.15C304.756 140.185 304.943 140.242 305.123 140.32C305.796 140.56 306.528 140.583 307.215 140.385C307.902 140.188 308.51 139.781 308.953 139.22Z" fill="#263238"/>
<path d="M308.953 139.22C308.843 139.51 307.553 142.73 305.403 143.66C305.673 142.97 306.033 141.98 305.863 141.88C305.693 141.78 304.673 141.77 304.143 141.56C303.613 141.35 304.753 140.19 304.573 140.15C304.766 140.185 304.953 140.242 305.133 140.32C305.805 140.558 306.534 140.579 307.219 140.382C307.904 140.185 308.51 139.779 308.953 139.22Z" fill="#EC625E"/>
<path d="M308.953 139.22C308.843 139.51 307.553 142.73 305.403 143.66C305.673 142.97 306.033 141.98 305.863 141.88C305.693 141.78 304.673 141.77 304.143 141.56C303.613 141.35 304.753 140.19 304.573 140.15C304.766 140.185 304.953 140.242 305.133 140.32C305.805 140.558 306.534 140.579 307.219 140.382C307.904 140.185 308.51 139.779 308.953 139.22Z" fill="#64A6F4"/>
<path d="M263.183 148.13C263.183 148.13 270.373 147.54 271.693 143.05C272.141 141.92 272.822 140.898 273.693 140.05C273.693 140.05 280.223 140.74 280.223 138.05L271.693 136C268.358 136.71 265.359 138.524 263.183 141.15" fill="white"/>
<path d="M263.183 148.13C263.183 148.13 270.373 147.54 271.693 143.05C272.141 141.92 272.822 140.898 273.693 140.05C273.693 140.05 280.223 140.74 280.223 138.05L271.693 136C268.358 136.71 265.359 138.524 263.183 141.15" stroke="#263238" stroke-linecap="round" stroke-linejoin="round"/>
<path d="M275.443 148.13C275.222 147.513 275.222 146.837 275.443 146.22C275.443 146.22 273.593 145.58 274.073 143.92C274.073 143.92 271.303 143.13 273.643 140.09" stroke="#263238" stroke-linecap="round" stroke-linejoin="round"/>
<path d="M274.113 143.92C274.113 143.92 278.343 141.7 278.973 140.48" stroke="#263238" stroke-linecap="round" stroke-linejoin="round"/>
<path d="M275.443 146.22C275.443 146.22 279.873 144.39 280.173 142.96" stroke="#263238" stroke-linecap="round" stroke-linejoin="round"/>
<path d="M276.543 133.4C276.778 134.05 277.142 134.645 277.613 135.15C278.083 135.655 278.652 136.06 279.283 136.34" stroke="#263238" stroke-linecap="round" stroke-linejoin="round"/>
<path d="M277.043 134.4C276.311 134.661 275.607 134.996 274.943 135.4" stroke="#263238" stroke-linecap="round" stroke-linejoin="round"/>
<path d="M83 130C83 130 83.56 118.36 82 118C80.44 117.64 70 123.5 70 123.5L69 126.5L73.5 133L83 130Z" fill="white" stroke="#263238" stroke-linecap="round" stroke-linejoin="round"/>
<path d="M36.893 126.69C32.743 119.05 34.693 97.93 53.113 95.15C78.433 91.32 68.513 110.08 84.833 113.64C101.153 117.2 97.343 139.64 75.263 142.46C58.253 144.66 43.813 139.45 36.893 126.69Z" fill="white" fill-opacity="0.75" stroke="#EFF6FE" stroke-linecap="round" stroke-linejoin="round"/>
<path d="M81.793 117.74C81.793 117.74 79.793 115.46 78.233 115.1C76.673 114.74 71.903 116.34 71.903 116.34C71.903 116.34 72.103 118.7 75.263 118.79C78.423 118.88 76.853 120.47 76.853 120.47C76.853 120.47 81.113 122.53 81.793 117.74Z" fill="white" stroke="#263238" stroke-linecap="round" stroke-linejoin="round"/>
<path d="M64.973 100.3C62.973 96.15 58.583 97.44 56.873 98.99C53.703 101.85 55.293 104.64 56.873 103.88C58.453 103.12 66.963 104.44 64.973 100.3Z" fill="#FCC101"/>
<path d="M45.523 114.17C45.8593 114.38 46.2182 114.551 46.593 114.68C46.9976 114.787 47.4197 114.812 47.8342 114.754C48.2487 114.695 48.6472 114.554 49.0062 114.339C49.3652 114.123 49.6773 113.838 49.9241 113.5C50.1709 113.162 50.3473 112.778 50.443 112.37C50.4776 112.097 50.5277 111.827 50.593 111.56C50.783 111.131 51.0212 110.725 51.303 110.35C51.4423 110.158 51.5253 109.931 51.543 109.694C51.5607 109.458 51.5122 109.221 51.403 109.01C50.943 108.34 49.803 108.72 49.143 108.25C48.643 107.9 48.553 107.19 48.143 106.72C47.543 105.99 46.443 106.03 45.503 106.12C45.183 106.12 44.783 106.26 44.713 106.57C44.643 106.88 44.713 106.92 44.713 107.09C44.633 107.47 44.133 107.52 43.713 107.59C42.183 107.85 41.433 109.69 41.823 111.1C42.213 112.51 44.323 113.48 45.523 114.17Z" fill="#EC625E"/>
<path d="M51.8429 125.35C51.3629 124.53 51.5829 123.45 51.1329 122.61C50.5529 121.53 49.1329 121.26 47.9429 121.14C46.4429 120.99 44.9429 120.89 43.4329 120.82C43.3431 120.805 43.2508 120.823 43.1729 120.87C43.0529 120.95 43.0629 121.13 43.0629 121.27C42.97 122.002 42.7429 122.71 42.3929 123.36C41.7729 125.03 43.6929 127.11 44.8029 128.24C45.5944 129.096 46.6514 129.659 47.8029 129.84C49.4429 130.01 50.9929 129.13 52.4029 128.28C52.6125 128.17 52.7965 128.016 52.9429 127.83C53.0461 127.608 53.0813 127.36 53.0439 127.118C53.0065 126.876 52.8983 126.651 52.7329 126.47C52.4147 126.114 52.1176 125.74 51.8429 125.35Z" fill="#64A6F4"/>
<path d="M63.0131 129.77C61.6831 129.11 60.0931 129.6 58.7031 130.1C58.3304 130.18 58.0038 130.403 57.7931 130.72C57.5531 131.21 57.9131 131.64 57.9031 132.11C57.9031 132.89 57.5531 132.74 57.3131 133.36C57.2406 133.577 57.2124 133.805 57.2303 134.033C57.2482 134.261 57.3118 134.482 57.4173 134.685C57.5227 134.888 57.6679 135.067 57.8442 135.212C58.0204 135.357 58.2241 135.465 58.4431 135.53C60.4431 136.53 62.4931 138.4 64.6431 136.61C65.0211 136.257 65.3092 135.819 65.4832 135.332C65.6572 134.844 65.712 134.323 65.6431 133.81C65.5113 132.78 65.0958 131.807 64.4431 131C64.0661 130.487 63.577 130.066 63.0131 129.77Z" fill="#40C140"/>
<path d="M83.443 131C83.365 130.843 83.2436 130.711 83.093 130.62C82.9178 130.54 82.7244 130.509 82.533 130.53C81.5018 130.639 80.4601 130.592 79.443 130.39C78.883 130.21 78.373 129.9 77.823 129.68C77.2871 129.422 76.6755 129.369 76.103 129.53C74.993 129.94 75.563 130.53 75.583 131.28C75.583 132.34 74.693 133.18 74.743 134.28C74.8025 134.736 74.9986 135.164 75.3056 135.506C75.6126 135.849 76.0161 136.091 76.463 136.2C77.3629 136.407 78.2961 136.424 79.203 136.25C79.8957 136.222 80.5757 136.055 81.203 135.76C81.6065 135.52 81.9707 135.22 82.283 134.87C82.8013 134.369 83.2218 133.775 83.523 133.12C83.6687 132.783 83.7371 132.418 83.7233 132.051C83.7094 131.684 83.6137 131.325 83.443 131Z" fill="white"/>
</svg>
