<svg width="696" height="35" viewBox="0 0 696 35" fill="none" xmlns="http://www.w3.org/2000/svg">
<path opacity="0.75" d="M235.158 11.9171C236.706 11.7263 240.559 11.0201 240.559 11.0201C240.559 11.0201 236.637 11.2969 235.502 11.5259C234.367 11.7645 230.308 12.4229 229.723 12.4802C229.138 12.547 225.457 13.0336 223.531 13.3867C221.605 13.7398 217.27 15.0662 217.27 15.0662C217.27 15.0662 224.357 13.6539 226.489 13.3485C228.622 13.0527 233.61 12.0984 235.158 11.9171Z" fill="#FBB116"/>
<path opacity="0.75" d="M250.019 9.62772C251.67 9.44641 254.216 8.79751 255.213 8.73071C256.176 8.66391 258.343 8.57803 259.479 8.29175C260.614 8.00547 262.506 7.53787 263.675 7.35656C264.845 7.17525 264.019 7.02258 259.96 7.57605C255.901 8.12953 253.975 8.48261 252.255 8.89294C250.535 9.29374 247.68 9.88537 250.019 9.62772Z" fill="#FBB116"/>
<path d="M695.423 25.0958C693.772 24.9526 693.187 24.8381 690.813 24.7904C688.474 24.7427 686.651 24.485 685.756 24.2465C684.828 24.0174 682.936 23.9983 684.174 23.6166C685.412 23.2349 686.651 22.691 685.172 22.6719C683.692 22.6528 680.734 22.4429 679.117 22.3093C677.466 22.1662 676.125 22.023 674.508 21.8417C672.857 21.6604 671.068 21.4027 671.721 20.9828C672.375 20.5725 670.277 20.3149 668.97 20.2099C667.628 20.1049 650.772 19.2366 645.475 18.9789C640.177 18.7308 633.228 18.4159 626.108 17.7765C618.953 17.1467 612.382 16.4215 608.53 14.3603C604.643 12.2991 604.127 11.0108 602.407 10.381C600.687 9.75115 599.104 8.23387 596.387 7.78537C593.669 7.33686 593.738 6.88837 591.571 6.99334C589.404 7.10785 587.89 7.32732 585.929 7.51817C583.968 7.70902 579.531 8.26251 577.777 8.51062C576.022 8.75873 575.713 9.045 573.339 9.07363C570.965 9.10226 562.95 10.381 560.267 10.8581C557.584 11.3352 548.399 12.9193 546.267 13.2247C544.134 13.5301 541.107 14.3412 538.768 14.5893C536.428 14.8374 534.124 15.3145 530.821 15.6867C527.519 16.0588 516.718 17.7956 511.661 18.3586C506.604 18.9216 495.115 20.0095 490.712 19.79C486.308 19.5705 481.733 17.1658 479.945 15.9253C478.156 14.6847 470.794 10.0565 465.084 9.19769C459.374 8.33885 456.243 8.49153 453.698 8.69193C451.152 8.89233 447.506 9.54122 446.543 9.60802C445.545 9.67482 439.353 10.4764 436.636 10.7245C433.918 10.9821 429.205 11.3734 426.109 11.7456C423.014 12.1177 419.505 12.3849 418.679 12.3945C417.888 12.404 414.62 11.7933 412.694 12.0891C410.767 12.3945 406.846 12.7189 405.332 12.9575C403.784 13.1961 401.445 13.4537 401.273 13.6159C401.101 13.7782 402.305 13.8736 403.475 13.8068C404.644 13.7304 405.401 13.511 407.155 13.3678C408.91 13.2342 412.04 13.0243 411.283 13.0911C410.492 13.1579 407.052 13.864 405.504 14.0453C403.956 14.2267 404.163 14.3889 400.86 14.6561C397.558 14.9233 395.322 14.7897 396.491 14.5511C397.627 14.3125 398.968 14.074 397.971 13.9785C396.973 13.8831 396.388 13.9976 394.84 14.2362C393.292 14.4748 392.536 14.5416 389.371 14.7515C386.241 14.9614 385.071 15.1427 383.351 15.4958C381.631 15.8489 378.053 15.8966 377.297 16.0207C376.54 16.1447 373.788 16.2879 371.999 16.307C370.21 16.3356 369.35 15.9062 365.67 16.2783C361.954 16.66 353.767 17.3757 350.809 17.4712C347.851 17.5666 344.617 17.1753 342.966 16.7555C341.315 16.3356 327.314 8.77781 324.39 7.8808C321.466 6.98379 311.834 4.09235 309.633 3.9015C307.431 3.71064 300.689 3.64385 296.011 4.08281C291.332 4.53131 279.052 5.62872 272.894 6.70704C266.737 7.77582 236.947 13.072 223.669 15.1714C210.356 17.2803 200.311 18.788 197.387 19.0457C194.464 19.3033 192.881 19.3224 191.333 19.5133C189.785 19.6946 188.168 19.4465 189.888 19.2556C191.643 19.0648 198.007 18.1582 200.931 17.7861C203.855 17.4139 208.843 16.4692 211.56 16.1638C214.278 15.8489 213.074 15.8107 209.978 16.1829C206.882 16.5551 202.754 16.8795 199.692 17.3662C196.596 17.8433 191.161 18.3586 189.235 18.7117C187.308 19.0648 179.328 19.8855 170.453 20.1145C161.578 20.3435 151.12 19.5515 149.504 19.2938C147.887 19.0457 144.55 18.206 144.55 18.206C144.55 18.206 142.314 14.5034 139.94 13.3201C137.567 12.1463 120.505 5.28518 116.514 3.95875C112.524 2.64186 105.438 0.647463 97.9044 0.695176C90.3709 0.74289 76.3015 2.85182 67.2544 4.45499C58.2074 6.05815 22.5352 14.7133 15.7241 16.6028C6.57385 19.122 -0.994058 20.8206 0.106724 22.7005C1.17311 24.5805 9.60096 29.3041 14.4513 30.9263C19.3016 32.5486 21.0216 33.7891 29.0367 31.9951C37.0861 30.2011 61.4066 21.8799 79.7415 18.2632C98.0764 14.6465 116.48 11.4497 120.78 14.3412C125.08 17.2326 141.007 25.8592 149.194 29.3232C157.381 32.7871 186.655 35.3446 215.619 31.5848C244.549 27.825 281.253 20.8111 293.844 18.9598C306.399 17.1085 317.82 17.1658 320.125 17.3376C322.43 17.5189 336.224 27.0138 338.804 28.6647C341.384 30.3156 360.235 34.0563 382.56 31.4416C395.838 29.8862 423.633 26.1073 445.407 24.1796C460.199 22.8628 472.514 22.6051 474.544 23.6834C479.566 26.3554 482.077 32.0046 490.643 33.3597C499.208 34.7147 506.019 34.4189 513.45 33.6842C520.914 32.9494 524.629 32.4818 527.519 31.6038C530.409 30.7259 539.903 28.7029 544.409 28.4261C548.915 28.1589 570.277 24.5041 575.506 24.0079C580.735 23.5212 590.298 21.918 590.298 21.918C590.298 21.918 594.116 21.46 594.976 21.3168C595.836 21.1833 597.866 21.1165 598.485 21.231C599.07 21.3455 599.173 21.7081 598.416 21.7177C597.694 21.7272 563.879 26.7657 560.336 27.386C556.793 28.0063 545.785 29.6953 543.652 29.9243C541.485 30.1534 537.082 30.8691 534.777 31.1363C532.473 31.413 532.713 31.8519 534.296 31.6706C535.878 31.4893 555.623 28.951 560.198 28.2353C564.774 27.5196 577.983 25.2771 581.526 24.6568C585.069 24.0365 587.099 23.8934 590.126 23.6071C593.153 23.3208 596.559 22.7864 597.006 22.7005C597.419 22.6147 599.861 22.2139 600.308 22.252C600.755 22.2902 601.581 22.9296 601.615 23.0822C601.65 23.2445 611.144 28.2353 616.476 29.3804C621.808 30.5255 627.346 31.184 630.648 31.6706C633.951 32.1573 634.845 32.2623 637.632 32.186C640.384 32.1096 640.968 32.0142 641.656 31.8043C642.344 31.5943 641.897 31.518 643.686 31.6993C645.475 31.8806 649.947 32.3864 655.691 32.5486C661.436 32.7203 665.254 32.7871 667.593 32.7108C669.933 32.6344 672.547 32.644 671.377 32.5772C670.208 32.5104 664.498 32.5486 659.888 32.205C655.279 31.8615 652.664 31.976 649.259 31.6134C645.819 31.2508 646.369 30.9168 649.431 30.8786C652.492 30.8404 660.645 31.4225 665.082 31.6038C669.52 31.7851 675.196 31.6707 678.429 31.747C681.663 31.8233 684.174 31.871 684.724 31.6993C685.275 31.5275 685.275 31.4035 686.857 31.3844C688.474 31.3653 689.781 31.308 691.364 31.2412C692.98 31.184 694.975 30.9454 691.57 30.8309C688.164 30.7164 683.761 30.4873 681.973 30.3537C680.184 30.2106 677.673 30.0484 676.021 29.8671C674.37 29.6858 673.029 29.5045 672.409 29.39C671.825 29.2754 673.785 28.9224 676.572 28.9319C679.358 28.9319 683.039 29.0846 685.55 29.0941C688.027 29.1037 694.391 29.3804 694.047 29.1037C693.703 28.8269 691.501 28.7697 690.022 28.6265C688.543 28.4834 687.614 28.3402 686.135 28.2353C684.656 28.1303 683.108 27.7486 683.83 27.615C684.552 27.4814 686.135 27.3764 685.653 27.2238C685.206 27.0615 683.452 26.3554 685.309 26.1741C687.167 25.9832 688.164 25.6492 689.472 25.6301C690.779 25.6111 692.499 25.3916 693.668 25.3725C694.769 25.4297 697.074 25.2389 695.423 25.0958ZM84.179 3.01404C83.0438 3.41483 80.6015 4.10191 77.9183 4.57905C75.2351 5.05618 60.1338 8.28158 56.4531 8.711C52.7723 9.14997 43.8973 11.6788 41.5925 12.2132C39.3221 12.738 33.7838 13.969 30.1719 14.7897C26.5599 15.6103 21.916 16.3833 21.916 16.3833C22.5008 16.3165 37.5333 11.7169 52.8411 8.54877C68.1488 5.37106 72.3455 4.60767 76.0263 4.00648C79.6726 3.40529 80.0854 3.34803 82.1838 3.04266C84.351 2.7373 85.3142 2.61324 84.179 3.01404ZM261.026 22.4047C260.304 22.6242 258.515 22.8246 257.346 23.0059C256.176 23.1872 254.766 23.149 254.043 23.4353C253.287 23.7216 251.876 23.6834 252.048 23.5212C252.22 23.3494 251.945 22.8532 253.527 22.7769C255.11 22.7005 257.071 22.4524 257.655 22.3856C258.24 22.3188 259.375 21.9753 259.995 21.9658C260.545 21.9658 261.99 22.1184 261.026 22.4047ZM276.541 19.7041C275.199 19.9427 272.482 20.5343 271.312 20.6584C270.142 20.7825 269.351 20.9638 268.216 21.3073C267.081 21.6509 266.29 21.6699 265.292 21.794C264.329 21.918 263.813 21.3741 264.983 21.2405C266.049 21.126 267.838 20.4866 268.801 20.3053C269.764 20.124 270.349 20.0668 272.688 19.7041C275.027 19.3415 275.578 19.1125 276.816 19.2652C278.089 19.4083 277.882 19.4656 276.541 19.7041ZM291.848 6.31579C287.377 6.70704 283.696 7.19373 270.727 9.07363C257.793 10.9535 239.768 14.4366 236.844 14.7515C233.92 15.0664 234.195 14.3984 235.537 14.1599C236.878 13.9213 237.085 13.864 241.66 12.9766C246.269 12.0891 257.071 10.4096 264.363 9.10226C271.656 7.79491 284.315 6.46848 288.03 6.14403C291.745 5.81958 296.699 5.91501 296.699 5.91501C296.699 5.91501 296.32 5.92454 291.848 6.31579ZM411.043 14.7897C413.966 14.3603 420.434 13.7782 423.22 13.5778C425.972 13.3774 421.294 14.0454 419.746 14.2362C418.163 14.4271 417.028 14.7133 415.893 15.0092C414.758 15.305 411.18 15.4577 409.598 15.4863C407.981 15.4958 408.875 15.1141 411.043 14.7897ZM400.207 26.8421C401.445 26.7753 404.885 26.3363 405.745 26.279C406.605 26.2218 412.522 25.6969 414.414 25.5252C416.306 25.3534 417.647 24.9431 419.402 24.7713C421.122 24.5995 421.844 24.59 424.768 24.2083C427.692 23.8266 429.412 23.6071 430.444 23.5021C431.476 23.3876 437.324 22.5765 438.562 22.5574C439.766 22.5383 442.931 22.3475 443.619 22.2425C444.307 22.1375 445.511 22.1184 445.201 22.2711C444.892 22.4238 443.55 22.9773 442.518 23.0441C441.486 23.1013 437.152 23.5594 435.604 23.6739C434.056 23.7884 430.203 24.0365 427.451 24.3228C424.699 24.5995 420.399 25.2961 418.163 25.5252C415.893 25.7446 412.934 25.9355 410.561 26.26C408.153 26.5844 408.325 26.5367 405.229 26.9184C402.133 27.3001 400.241 27.6246 400.241 27.6246C398.693 27.844 397.455 27.8059 397.42 27.5673C397.283 27.3192 398.968 26.9089 400.207 26.8421ZM420.021 26.4794C406.949 28.1685 400.241 28.9892 394.703 29.5522C389.164 30.1152 387.032 30.0389 387.032 30.0389C387.032 30.0389 393.946 29.2182 397.042 28.8842C400.138 28.5502 420.124 26.0405 429.79 24.924C437.84 24.0079 437.083 24.1797 442.071 23.6834C446.061 23.2922 446.818 23.6644 446.818 23.6644C446.818 23.6644 433.092 24.7904 420.021 26.4794ZM587.993 8.15754C587.546 8.67285 588.096 8.67283 585.757 9.06408C583.453 9.46487 580.941 10.2283 582.248 10.0661C583.556 9.90385 583.384 10.4192 581.595 10.8104C579.806 11.2016 578.499 11.2207 575.369 11.5547C572.238 11.8887 570.725 12.28 566.803 12.4804C562.882 12.6808 559.029 13.3869 554.419 14.1122C549.775 14.8279 542.345 16.0302 537.942 16.6791C533.573 17.328 531.131 16.994 529.342 17.4521C527.588 17.9197 527.037 17.7765 524.664 17.8815C522.29 17.9865 523.013 17.4616 523.013 17.4616C524.561 17.1467 526.865 16.8223 528.413 16.5837C529.961 16.3451 535.156 15.8298 537.22 15.5817C539.284 15.3336 542.861 14.6275 544.134 14.3889C545.407 14.1503 550.257 13.1388 551.805 12.8907C553.353 12.6521 560.542 11.4497 562.847 11.1253C565.186 10.8008 568.798 10.381 570.346 10.2855C571.929 10.1901 575.265 9.70344 576.813 9.54121C578.361 9.36944 581.148 8.74917 582.18 8.58695C583.212 8.42472 584.209 8.1957 585.792 8.02393C587.408 7.87125 588.44 7.64224 587.993 8.15754Z" fill="#FBB116"/>
</svg>
