<svg width="501" height="497" viewBox="0 0 501 497" fill="none" xmlns="http://www.w3.org/2000/svg">
<path opacity="0.7" d="M52.4748 155.282C52.4748 155.282 21.229 235.896 65.139 317.07C109.049 398.244 199.491 441.127 271.879 477.795C344.266 514.464 419.433 496.605 455.151 436.547C490.868 376.49 441.881 333.619 441.814 247.977C441.747 162.335 454.646 139.663 408.192 67.3113C361.738 -5.04012 247.862 -21.0622 161.745 32.6023C75.6289 86.2669 52.4748 155.282 52.4748 155.282Z" fill="white"/>
<path d="M118.676 465.423C145.125 493.313 210.06 483.102 238.179 465.423C329.473 408.03 489.501 312.513 496.741 174.125C499.823 115.299 447.911 84.4194 426.214 75.3503C374.201 53.5956 317.044 47.0569 260.582 44.5377C201.666 41.9065 138.423 43.9555 85.4017 72.6743C65.3071 83.5237 46.3445 97.508 33.3665 116.553C20.1756 135.901 12.5883 158.932 10.5822 182.187C7.33209 219.695 17.4298 257.304 32.7053 291.721C47.9807 326.139 68.3555 358.016 87.0491 390.698C99.2426 412.027 96.4184 441.91 118.676 465.423Z" fill="#2C8CF4"/>
<path opacity="0.7" d="M118.676 465.423C145.125 493.313 210.06 483.102 238.179 465.423C329.473 408.03 489.501 312.513 496.741 174.125C499.823 115.299 447.911 84.4194 426.214 75.3503C374.201 53.5956 317.044 47.0569 260.582 44.5377C201.666 41.9065 138.423 43.9555 85.4017 72.6743C65.3071 83.5237 46.3445 97.508 33.3665 116.553C20.1756 135.901 12.5883 158.932 10.5822 182.187C7.33209 219.695 17.4298 257.304 32.7053 291.721C47.9807 326.139 68.3555 358.016 87.0491 390.698C99.2426 412.027 96.4184 441.91 118.676 465.423Z" fill="white"/>
<path d="M349.231 398.547C349.545 301.855 349.545 194.369 349.231 98.3257" stroke="#263238" stroke-linecap="round" stroke-linejoin="round"/>
<path d="M367.219 68.4312C367.476 175.335 367.476 269.385 367.219 376.255" stroke="#263238" stroke-linecap="round" stroke-linejoin="round"/>
<path d="M349.231 75.3952V36.2076C352.073 35.0459 355.129 34.5002 358.197 34.6065C364.54 34.6065 367.163 36.2076 367.163 36.2076V47.113" stroke="#263238" stroke-linecap="round" stroke-linejoin="round"/>
<path d="M462.099 34.5955L465.798 36.0958L442.072 56.2494L367.219 68.4311L363.677 67.3786" stroke="#263238" stroke-linecap="round" stroke-linejoin="round"/>
<path d="M363.677 47.8856L436.087 31.9419L462.099 34.5954L439.752 54.5811L363.677 67.3786V47.8856Z" stroke="#263238" stroke-linecap="round" stroke-linejoin="round"/>
<path d="M290.819 62.6201L287.782 64.4339L306.184 86.3678L349.22 98.3256L353.815 97.1724" stroke="#263238" stroke-linecap="round" stroke-linejoin="round"/>
<path d="M353.815 77.1531L309.143 59.9553L290.819 62.6201L309.737 85.1697L353.815 97.1723V77.1531Z" stroke="#263238" stroke-linecap="round" stroke-linejoin="round"/>
<path d="M209.746 89.6707V471.413" stroke="#263238" stroke-linecap="round" stroke-linejoin="round"/>
<path d="M104.813 60.6497C139.97 68.9686 174.712 81.2847 209.746 89.6708" stroke="#263238" stroke-linecap="round" stroke-linejoin="round"/>
<path d="M63.9958 82.1355C111.952 93.6006 161.263 105.917 209.746 118.233" stroke="#263238" stroke-linecap="round" stroke-linejoin="round"/>
<path d="M32.6268 108.078C90.6579 121.592 150.056 133.908 209.746 146.705" stroke="#263238" stroke-linecap="round" stroke-linejoin="round"/>
<path d="M14.6952 138.386C79.4506 150.703 144.453 162.978 209.701 175.212" stroke="#263238" stroke-linecap="round" stroke-linejoin="round"/>
<path d="M1 170.419L209.746 203.729" stroke="#263238" stroke-linecap="round" stroke-linejoin="round"/>
<path d="M1 205.05L209.746 232.246" stroke="#263238" stroke-linecap="round" stroke-linejoin="round"/>
<path d="M5.86389 240.162C73.847 245.872 141.09 254.829 209.746 260.764" stroke="#263238" stroke-linecap="round" stroke-linejoin="round"/>
<path d="M15.5022 275.33C68.2434 279.462 120.917 281.701 174.712 287.299C185.919 287.299 198.247 287.299 209.746 289.27" stroke="#263238" stroke-linecap="round" stroke-linejoin="round"/>
<path d="M28.5586 310.084C89.5372 313.051 148.935 316.41 209.746 317.787" stroke="#263238" stroke-linecap="round" stroke-linejoin="round"/>
<path d="M44.8763 344.11C99.6237 344.401 154.539 345.521 209.746 346.304" stroke="#263238" stroke-linecap="round" stroke-linejoin="round"/>
<path d="M63.9062 377.151C111.952 376.871 161.264 375.751 209.746 374.822" stroke="#263238" stroke-linecap="round" stroke-linejoin="round"/>
<path d="M80.5714 409.172C123.159 407.101 166.867 404.862 209.78 403.328" stroke="#263238" stroke-linecap="round" stroke-linejoin="round"/>
<path d="M196.555 103.913V436.021" stroke="#263238" stroke-linecap="round" stroke-linejoin="round"/>
<path d="M133.817 75.1602V281.499" stroke="#263238" stroke-linecap="round" stroke-linejoin="round"/>
<path d="M62.4269 103.006V331.032" stroke="#263238" stroke-linecap="round" stroke-linejoin="round"/>
<path d="M492.572 111.246L382.931 123.898V380.666" stroke="#263238" stroke-linecap="round" stroke-linejoin="round"/>
<path d="M500.361 144.22L397.501 152.74V357.893" stroke="#263238" stroke-linecap="round" stroke-linejoin="round"/>
<path d="M500.361 194.257L400.471 201.378" stroke="#263238" stroke-linecap="round" stroke-linejoin="round"/>
<path d="M485.578 237.755L403.418 243.096" stroke="#263238" stroke-linecap="round" stroke-linejoin="round"/>
<path d="M437.757 157.096V314.585" stroke="#263238" stroke-linecap="round" stroke-linejoin="round"/>
<path d="M106.057 446.803C109.242 453.643 113.502 459.929 118.676 465.423C145.125 493.313 211.192 483.102 239.311 465.423C248.557 459.612 257.377 453.398 267.799 446.803" stroke="#263238" stroke-linecap="round" stroke-linejoin="round"/>
<path d="M369.606 257.248L359.318 297.376L377.249 401.693H377.115L376.678 401.783C369.046 403.451 286.829 421.32 282.806 420.985C278.592 420.637 212.536 410.482 212.536 410.482L154.068 417.312L107.188 396.655L63.8725 404.291L51.5446 251.47C51.5446 251.47 60.7009 176.745 56.487 156.625C56.487 156.625 128.628 166.971 135.296 167.687C141.965 168.404 219.541 143.985 219.541 143.985L285.002 165.65L339.839 158.719L420.98 196.675C420.98 196.675 368.295 249.074 369.606 257.248Z" fill="white" stroke="#263238" stroke-linecap="round" stroke-linejoin="round"/>
<path d="M64.8812 163.198L135.296 173.095L218.42 152.651L284.935 171.248L337.127 165.65L409.436 196.608C409.436 196.608 368.283 247.552 366.703 250.81C365.123 254.068 351.932 297.376 351.932 297.376L369.348 396.688L284.969 415.241L213.993 403.899L157.744 408.848L109.923 388.347L70.2046 396.688L57.3163 253.777C57.3163 253.777 69.1511 195.645 64.8812 163.198Z" fill="#2C8CF4" stroke="#263238" stroke-linecap="round" stroke-linejoin="round"/>
<path d="M310.129 216.549L321.527 213.794L376.891 237.43C379.603 233.97 382.662 230.107 385.8 226.166L325.786 200.829L313.144 204.367L321.067 167.34L310.589 168.46L300.973 207.804L269.906 216.493L210.127 221.699L186.244 233.556L187.365 198.612L216.571 184.863L250.596 191.424L256.39 163.321L246.057 160.432L242.785 180.843L216.571 175.245L187.724 188.244L188.654 160.007L174.712 163.388V239.21L139.286 256.789V172.11L135.251 173.095L126.42 171.852L127.933 200.829H103.972L65.6096 170.856C65.8562 175.178 65.8898 179.813 65.7777 184.527L99.8589 213.022H128.594L129.715 234.631L128.662 243.588L58.0111 261.547L58.3809 265.634L128.135 248.067L126.521 262.006L59.5465 278.521L60.7793 292.248L96.2614 282.876L99.5563 325.109L66.8648 359.662L68.1424 373.791L79.6635 361.61L82.2187 394.135L85.5137 393.441L83.2722 357.803L107.132 332.589L118.676 329.644L164.368 314.921L163.359 321.549L137.986 400.383L147.747 404.57L161.084 361.565L180.764 357.926L220.303 375.012L238.649 376.187L235.534 407.347L240.42 408.12L242.549 376.423L288.578 379.367L321.829 374.586L326.066 406.205L334.628 404.324L330.493 373.31L364.35 368.44L362.657 358.766L290.595 368.316L261.456 365.764L265.603 326.576L290.92 312.76H298.765L355.518 318.503L353.523 307.027L300.368 302H288.096L294.327 264.57L310.129 216.549ZM121.848 316.309L102.571 322.019L100.016 281.857L129.715 274.02L174.006 251.179L166.71 299.615L121.848 316.309ZM184.361 346.909L164.379 350.872L172.672 324.247L185.213 245.435L210.463 232.414L220.269 272.139L216.605 305.213L205.599 355.418L184.361 346.909ZM275.913 310.52L258.52 318.75L252.12 364.946L222.982 362.393L212.951 358.374L224.158 308.516L228.507 273.998H248.579L282.077 268.399L275.913 310.52ZM283.702 260.349L250.081 267.257H223.049L214.912 231.709L267.665 226.838L297.454 219.605L283.702 260.349Z" fill="white" stroke="#263238" stroke-linecap="round" stroke-linejoin="round"/>
<path opacity="0.5" d="M297.454 292.337L300.491 268.366L339.268 276.875L336.107 297.342L297.454 292.337Z" fill="white"/>
<path opacity="0.5" d="M321.482 267.257L329.383 245.245L358.589 256.251L351.887 279.014L321.482 267.257Z" fill="white"/>
<path opacity="0.5" d="M315.139 219.628H318.366L330.571 225.148L318.366 262.129L306.924 258.703L303.259 257.897L315.139 219.628Z" fill="white"/>
<path opacity="0.5" d="M339.268 229.436L367.757 240.879L363.016 249.074L336.107 240.879L339.268 229.436Z" fill="white"/>
<path opacity="0.5" d="M321.482 196.63L327.007 171.248L336.107 169.804L349.556 175.2L340.03 201.366L327.186 196.63H321.482Z" fill="white"/>
<path opacity="0.5" d="M345.992 204.109L351.932 189.509L391.897 207.692L383.985 219.628L345.992 204.109Z" fill="white"/>
<path opacity="0.5" d="M260.828 169.804L282.055 175.939L275.611 209.674H272.529H253.802L260.828 169.804Z" fill="white"/>
<path opacity="0.5" d="M287.434 176.869L303.259 174.181L297.454 204.109L282.055 208.095L287.434 176.869Z" fill="white"/>
<path opacity="0.5" d="M249.453 196.63L247.537 211.253L213.03 212.832L192.285 223.513V204.11L217.4 191.144L249.453 196.63Z" fill="white"/>
<path opacity="0.5" d="M193.787 163.198L218.712 156.648L216.784 171.248L192.33 180.798L193.787 163.198Z" fill="white"/>
<path opacity="0.5" d="M221.883 171.248L239.949 175.2L242.83 161.843L224.125 158.674L221.883 171.248Z" fill="white"/>
<path opacity="0.5" d="M143.802 175.2V196.63L169.915 189.509V169.804L143.802 175.2Z" fill="white"/>
<path opacity="0.5" d="M145.596 204.569V246.925L160.019 240.879L157.744 214.813L169.915 211.253V196.63L145.596 204.569Z" fill="white"/>
<path opacity="0.5" d="M101.854 217.971L103.838 245.245L122.823 240.879L125.871 232.369V217.971H101.854Z" fill="white"/>
<path opacity="0.5" d="M71.0003 196.608L96.0484 215.978V229.414L67.8286 231.586C67.8286 231.586 71.3925 208.095 71.0003 196.608Z" fill="white"/>
<path opacity="0.5" d="M67.8287 236.949L93.639 234.575V247.585L63.2898 255.859L67.8287 236.949Z" fill="white"/>
<path opacity="0.5" d="M101.854 174.181V192.678L122.823 194.257L121.96 175.2L101.854 174.181Z" fill="white"/>
<path opacity="0.5" d="M189.606 249.074L207.616 240.688L213.03 271.355L186.009 276.103L189.606 249.074Z" fill="white"/>
<path opacity="0.5" d="M193.787 280.771L192.33 301.776L211.068 299.805V276.103L193.787 280.771Z" fill="white"/>
<path opacity="0.5" d="M247.537 234.575L245.094 262.13H255.281L277.942 258.39L290.998 225.148L266.118 232.369L247.537 234.575Z" fill="white"/>
<path opacity="0.5" d="M221.883 236.154V243.633L240.745 243.095V234.575L221.883 236.154Z" fill="white"/>
<path opacity="0.5" d="M249.453 284.018L247.537 306.131L272.406 301.776L275.611 276.103L249.453 284.018Z" fill="white"/>
<path opacity="0.5" d="M227.689 312.793L245.093 314.036L240.745 358.408L224.046 357.892L217.793 355.642L227.689 312.793Z" fill="white"/>
<path opacity="0.5" d="M233.371 280.771L245.093 282.462L242.83 297.342H231.309L233.371 280.771Z" fill="white"/>
<path opacity="0.5" d="M327.007 322.019L349.556 324.203L354.7 351.343L327.007 351.914V322.019Z" fill="white"/>
<path opacity="0.5" d="M275.611 331.033L297.454 329.275L300.491 361.073H272.002L275.611 331.033Z" fill="white"/>
<path opacity="0.5" d="M336.107 379.323L339.268 393.856L354.7 391.348L351.932 376.232L336.107 379.323Z" fill="white"/>
<path opacity="0.5" d="M286.246 385.044L316.909 381.316L318.366 398.233L284.969 406.508L266.073 404.291L272.663 383.477L286.246 385.044Z" fill="white"/>
<path opacity="0.5" d="M127.574 335.6L152.511 331.032L150.829 348.23L143.803 365.002L125.871 369.772L127.574 335.6Z" fill="white"/>
<path opacity="0.5" d="M105.821 286.582V300.197L125.019 297.342L135.296 293.39L134.769 276.103L127.776 280.771L105.821 286.582Z" fill="white"/>
<path opacity="0.5" d="M65.845 297.342L91.1733 291.117L93.6389 317.261L69.4089 322.019L65.845 297.342Z" fill="white"/>
<path opacity="0.5" d="M67.6157 343.819L82.073 331.032L85.8275 334.503L70.877 348.846L67.6157 343.819Z" fill="white"/>
<path opacity="0.5" d="M71.3926 379.323L78.4643 377.654L79.742 391.907L72.7375 392.926L71.3926 379.323Z" fill="white"/>
<path opacity="0.5" d="M89.9853 387.966L88.6293 363.054L105.821 361.073V385.693L89.9853 387.966Z" fill="white"/>
<path opacity="0.5" d="M198.292 331.032C203.634 331.032 207.964 326.706 207.964 321.37C207.964 316.033 203.634 311.707 198.292 311.707C192.95 311.707 188.62 316.033 188.62 321.37C188.62 326.706 192.95 331.032 198.292 331.032Z" fill="white"/>
<path opacity="0.1" d="M369.606 257.248L359.318 297.376L377.249 401.693H377.115L376.678 401.783L282.817 420.984L307.215 256.71L339.806 158.674L420.946 196.63C420.946 196.63 368.295 249.074 369.606 257.248Z" fill="black" fill-opacity="0.7"/>
<path opacity="0.1" d="M284.969 165.605L260.134 253.553L238.504 291.755L212.548 410.482L154.079 417.312L197.138 317.272L207.381 242.48L220.359 144.22L284.969 165.605Z" fill="black" fill-opacity="0.7"/>
<path opacity="0.1" d="M134.77 167.654L132.988 249.388L108.444 397.248L107.2 396.7L63.8725 404.291L52.5532 263.473L120.368 237.273L131.575 167.24L134.77 167.654Z" fill="black" fill-opacity="0.7"/>
<path d="M304.335 211.925C304.152 211.735 303.921 211.598 303.667 211.527C303.413 211.456 303.144 211.454 302.889 211.522L268.853 220.289L210.945 224.655C210.746 224.668 210.551 224.721 210.374 224.812L134.366 263.787L135.487 239.155V205.868C135.487 205.671 135.448 205.476 135.373 205.294C135.297 205.112 135.187 204.946 135.047 204.807C134.908 204.668 134.742 204.557 134.56 204.482C134.378 204.406 134.182 204.367 133.985 204.367H118.676C118.278 204.367 117.896 204.526 117.614 204.807C117.333 205.088 117.174 205.47 117.174 205.868C117.174 206.266 117.333 206.647 117.614 206.929C117.896 207.21 118.278 207.368 118.676 207.368H132.416V239.043L131.206 266.217C131.191 266.479 131.246 266.741 131.366 266.976C131.486 267.21 131.667 267.408 131.889 267.549C132.11 267.69 132.363 267.771 132.624 267.785C132.886 267.798 133.146 267.744 133.38 267.627L211.461 227.622L269.2 223.267C269.286 223.279 269.373 223.279 269.458 223.267L301.085 215.116L287.468 263.261C287.465 263.313 287.465 263.365 287.468 263.417L285.227 276.719H283.949C283.88 276.719 283.812 276.734 283.75 276.764C283.688 276.794 283.633 276.837 283.59 276.891C283.547 276.945 283.517 277.008 283.501 277.075C283.486 277.142 283.486 277.211 283.501 277.279L285.395 282.53C285.418 282.627 285.467 282.715 285.538 282.785C285.609 282.855 285.699 282.903 285.796 282.924C285.894 282.946 285.995 282.939 286.089 282.904C286.182 282.87 286.264 282.81 286.325 282.731L289.867 277.615C290.091 277.301 289.867 276.92 289.385 276.898H288.264L290.382 264.067L304.716 213.403C304.793 213.145 304.799 212.872 304.731 212.611C304.664 212.351 304.527 212.113 304.335 211.925Z" fill="#2C8CF4"/>
<path opacity="0.6" d="M304.335 211.925C304.152 211.735 303.921 211.598 303.667 211.527C303.413 211.456 303.144 211.454 302.889 211.522L268.853 220.289L210.945 224.655C210.746 224.668 210.551 224.721 210.374 224.812L134.366 263.787L135.487 239.155V205.868C135.487 205.671 135.448 205.476 135.373 205.294C135.297 205.112 135.187 204.946 135.047 204.807C134.908 204.668 134.742 204.557 134.56 204.482C134.378 204.406 134.182 204.367 133.985 204.367H118.676C118.278 204.367 117.896 204.526 117.614 204.807C117.333 205.088 117.174 205.47 117.174 205.868C117.174 206.266 117.333 206.647 117.614 206.929C117.896 207.21 118.278 207.368 118.676 207.368H132.416V239.043L131.206 266.217C131.191 266.479 131.246 266.741 131.366 266.976C131.486 267.21 131.667 267.408 131.889 267.549C132.11 267.69 132.363 267.771 132.624 267.785C132.886 267.798 133.146 267.744 133.38 267.627L211.461 227.622L269.2 223.267C269.286 223.279 269.373 223.279 269.458 223.267L301.085 215.116L287.468 263.261C287.465 263.313 287.465 263.365 287.468 263.417L285.227 276.719H283.949C283.88 276.719 283.812 276.734 283.75 276.764C283.688 276.794 283.633 276.837 283.59 276.891C283.547 276.945 283.517 277.008 283.501 277.075C283.486 277.142 283.486 277.211 283.501 277.279L285.395 282.53C285.418 282.627 285.467 282.715 285.538 282.785C285.609 282.855 285.699 282.903 285.796 282.924C285.894 282.946 285.995 282.939 286.089 282.904C286.182 282.87 286.264 282.81 286.325 282.731L289.867 277.615C290.091 277.301 289.867 276.92 289.385 276.898H288.264L290.382 264.067L304.716 213.403C304.793 213.145 304.799 212.872 304.731 212.611C304.664 212.351 304.527 212.113 304.335 211.925Z" fill="black" fill-opacity="0.7"/>
<path d="M125.4 151.979C123.88 150.459 122.074 149.253 120.087 148.43C118.099 147.607 115.969 147.183 113.818 147.183C111.666 147.183 109.536 147.607 107.549 148.43C105.561 149.253 103.756 150.459 102.235 151.979C99.167 155.05 97.4438 159.212 97.4438 163.551C97.4438 167.89 99.167 172.051 102.235 175.122L113.823 186.688L125.4 175.122C126.922 173.603 128.129 171.799 128.953 169.814C129.777 167.828 130.201 165.7 130.201 163.551C130.201 161.401 129.777 159.273 128.953 157.288C128.129 155.302 126.922 153.498 125.4 151.979ZM118.676 168.315C117.734 169.25 116.536 169.886 115.233 170.142C113.929 170.398 112.579 170.263 111.353 169.753C110.126 169.244 109.078 168.383 108.341 167.279C107.604 166.175 107.211 164.878 107.211 163.551C107.211 162.224 107.604 160.926 108.341 159.823C109.078 158.719 110.126 157.858 111.353 157.348C112.579 156.838 113.929 156.703 115.233 156.959C116.536 157.215 117.734 157.851 118.676 158.787C119.305 159.411 119.803 160.153 120.144 160.971C120.484 161.788 120.659 162.665 120.659 163.551C120.659 164.436 120.484 165.313 120.144 166.131C119.803 166.948 119.305 167.69 118.676 168.315Z" fill="#263238"/>
<path d="M102.246 170.722C103.535 173.347 105.374 175.664 107.637 177.518" stroke="white" stroke-linecap="round" stroke-linejoin="round"/>
<path d="M106.225 151.823C100.621 155.181 99.1643 161.664 101.002 167.632" stroke="white" stroke-linecap="round" stroke-linejoin="round"/>
<path d="M113.868 149.65C112.452 149.657 111.044 149.868 109.688 150.277" stroke="white" stroke-linecap="round" stroke-linejoin="round"/>
<path d="M273.157 255.949C271.636 254.429 269.83 253.223 267.843 252.4C265.855 251.577 263.725 251.154 261.574 251.154C259.423 251.154 257.292 251.577 255.305 252.4C253.317 253.223 251.512 254.429 249.991 255.949C248.469 257.469 247.262 259.272 246.438 261.258C245.615 263.243 245.191 265.372 245.191 267.521C245.191 269.67 245.615 271.798 246.438 273.784C247.262 275.769 248.469 277.573 249.991 279.092L261.568 290.658L273.157 279.092C274.678 277.573 275.886 275.769 276.709 273.784C277.533 271.798 277.957 269.67 277.957 267.521C277.957 265.372 277.533 263.243 276.709 261.258C275.886 259.272 274.678 257.469 273.157 255.949ZM266.343 272.285C265.401 273.221 264.202 273.856 262.899 274.113C261.596 274.369 260.246 274.233 259.019 273.724C257.793 273.214 256.745 272.353 256.008 271.249C255.271 270.145 254.877 268.848 254.877 267.521C254.877 266.194 255.271 264.897 256.008 263.793C256.745 262.689 257.793 261.828 259.019 261.318C260.246 260.809 261.596 260.673 262.899 260.929C264.202 261.185 265.401 261.821 266.343 262.757C266.971 263.381 267.47 264.123 267.81 264.941C268.151 265.759 268.326 266.635 268.326 267.521C268.326 268.406 268.151 269.283 267.81 270.101C267.47 270.918 266.971 271.661 266.343 272.285Z" fill="#263238"/>
<path d="M249.958 274.692C251.246 277.321 253.084 279.642 255.348 281.5" stroke="white" stroke-linecap="round" stroke-linejoin="round"/>
<path d="M253.936 255.781C248.333 259.14 246.876 265.612 248.714 271.591" stroke="white" stroke-linecap="round" stroke-linejoin="round"/>
<path d="M261.568 253.62C260.156 253.632 258.752 253.843 257.399 254.247" stroke="white" stroke-linecap="round" stroke-linejoin="round"/>
<path d="M369.606 257.236C368.283 257.774 357.211 259.084 357.211 259.084C357.468 256.453 363.016 251.705 363.016 249.074C363.058 248.764 363.023 248.448 362.914 248.155C362.805 247.862 362.624 247.601 362.389 247.394C362.153 247.188 361.87 247.043 361.565 246.973C361.26 246.903 360.942 246.909 360.64 246.992C360.113 250.418 351.405 256.732 349.556 257.527C347.707 258.322 342.697 275.184 339.985 277.827C318.691 299.033 298.518 311.293 290.998 325.971C286.18 335.051 279.091 342.731 270.422 348.263C270.422 348.263 266.073 404.178 282.682 379.333C299.292 354.489 305.243 355.944 313.547 344.882C321.852 333.82 338.08 308.572 350.744 287.299C357.211 281.812 362.22 284.354 366.176 280.402C367.017 279.562 366.445 276.181 367.757 273.964C369.068 271.747 371.186 267.75 370.928 265.376C370.67 263.002 372.777 261.692 373.035 260.371C373.293 259.05 370.928 256.71 369.606 257.236Z" fill="white" stroke="#263238" stroke-miterlimit="10"/>
<path d="M114.193 334.973C109.889 319.041 92.675 302.884 76.2452 277.737C74.1495 274.591 72.7261 257.068 71.1011 255.949C69.476 254.829 62.2474 246.812 62.4379 243.353C62.1578 243.209 61.8463 243.137 61.5314 243.143C61.2166 243.15 60.9083 243.235 60.6346 243.391C60.3609 243.546 60.1304 243.768 59.9638 244.035C59.7973 244.302 59.7001 244.606 59.6809 244.92C59.1318 247.495 63.5698 253.284 63.2896 255.915C63.2896 255.915 52.7212 252.343 51.5333 251.548C50.3453 250.754 47.5435 252.59 47.5323 253.933C47.5211 255.277 49.303 257.001 48.5521 259.274C47.8013 261.547 49.0453 265.891 49.8746 268.332C50.7039 270.773 49.4487 273.93 50.0875 274.949C53.1471 279.64 58.5714 278.185 63.7603 284.891C71.7623 308.225 82.398 336.317 88.2369 348.868C94.0759 361.419 100.184 361.184 111.301 388.962C122.419 416.741 129.737 361.094 129.737 361.094C122.383 353.876 117.028 344.876 114.193 334.973Z" fill="white" stroke="#263238" stroke-miterlimit="10"/>
<path d="M121.186 342.553C121.186 342.553 124.055 335.746 118.698 333.596C113.341 331.446 106.606 335.331 106.606 335.331C106.606 335.331 96.7097 337.806 96.3175 348.263C96.3175 348.263 94.076 383.353 102.325 383.487C110.573 383.622 121.186 342.553 121.186 342.553Z" fill="#80B9F8" stroke="#263238" stroke-linecap="round" stroke-linejoin="round"/>
<path d="M275.577 343.774C275.577 343.774 275.14 338.265 281.864 338.993C288.589 339.721 294.125 349.293 293.733 362.696C293.733 362.696 296.815 379.793 288.544 379.322C280.273 378.852 275.577 343.774 275.577 343.774Z" fill="#80B9F8" stroke="#263238" stroke-linecap="round" stroke-linejoin="round"/>
<path d="M145.786 374.06C145.786 374.06 122.867 347.379 118.676 338.153C118.676 338.153 102.896 337.638 100.744 351.466C99.5219 360.711 99.5219 370.077 100.744 379.322C100.744 379.322 116.3 421.734 122.766 437.79L145.786 374.06Z" fill="#2C8CF4"/>
<g opacity="0.3">
<path opacity="0.3" d="M137.728 364.398C134.005 364.892 130.412 366.101 127.149 367.958C126.286 368.428 125.411 368.955 124.537 369.548C123.723 370.095 122.971 370.729 122.296 371.44C118.934 374.799 116.692 379.871 115.291 385.839C114.564 388.923 114.025 392.049 113.677 395.199C113.065 400.712 112.811 406.258 112.915 411.803C111.01 406.754 109.127 401.727 107.424 397.125C107.726 393.687 108.228 390.271 108.926 386.891C109.476 384.179 110.225 381.511 111.167 378.908C112.68 374.179 115.336 369.895 118.9 366.435C119.626 365.762 120.406 365.148 121.231 364.599C122.105 364.017 122.979 363.479 123.831 362.987C126.854 361.245 130.111 359.944 133.503 359.124L137.728 364.398Z" fill="white"/>
</g>
<g opacity="0.3">
<path opacity="0.3" d="M128.919 353.358C125.825 354.245 122.795 355.345 119.853 356.65C118.833 357.098 117.79 357.59 116.703 358.116C115.921 358.494 115.171 358.936 114.462 359.438C110.73 362.125 108.141 366.447 106.337 371.384C105.432 373.964 104.716 376.605 104.196 379.289C103.759 381.528 103.434 383.767 103.176 385.94L100.755 379.356C100.755 379.356 100.374 376.803 100.094 372.817C100.094 372.414 100.094 372 100.016 371.575C100.679 369.45 101.488 367.374 102.437 365.36C104.414 360.892 107.542 357.029 111.503 354.164C112.304 353.62 113.143 353.134 114.014 352.709C114.977 352.227 115.93 351.79 116.849 351.376C119.519 350.169 122.254 349.111 125.042 348.208C126.286 349.876 127.574 351.589 128.919 353.358Z" fill="white"/>
</g>
<g opacity="0.3">
<path opacity="0.3" d="M120.783 341.915C118.224 342.582 115.756 343.556 113.431 344.815C111.643 345.762 109.934 346.852 108.32 348.073C105.397 350.27 102.712 352.765 100.307 355.519C100.431 354.175 100.599 352.82 100.8 351.477C101.234 348.087 102.863 344.963 105.395 342.665L105.541 342.576C106.74 341.715 107.982 340.915 109.262 340.179C109.733 339.9 110.214 339.642 110.696 339.385L110.786 339.564C111.665 339.245 112.563 338.983 113.476 338.78C115.177 338.386 116.918 338.187 118.665 338.187C119.292 339.472 120 340.717 120.783 341.915Z" fill="white"/>
</g>
<g opacity="0.3">
<path opacity="0.3" d="M134.545 377.318L130.062 381.327C127.256 378.188 124.636 374.886 122.217 371.44C121.041 369.794 119.909 368.081 118.799 366.413C117.309 364.106 115.863 361.766 114.484 359.415C113.468 357.668 112.482 355.922 111.526 354.175C110.405 352.126 109.284 350.077 108.298 348.073C107.312 346.069 106.415 344.334 105.552 342.542C106.682 341.582 107.938 340.78 109.284 340.157C109.755 339.877 110.237 339.62 110.719 339.362L110.808 339.541C111.638 341.255 112.501 343.024 113.42 344.826C114.54 346.976 115.661 349.182 116.883 351.398C117.839 353.145 118.825 354.892 119.841 356.638C121.097 358.766 122.397 360.878 123.741 362.976C124.84 364.677 125.96 366.342 127.104 367.969C129.403 371.225 131.888 374.347 134.545 377.318Z" fill="white"/>
</g>
<g opacity="0.3">
<path opacity="0.3" d="M128.762 414.367L122.991 416.058C121.276 410.224 117.835 402.913 113.621 395.199C112.131 392.456 110.528 389.668 108.869 386.88C107.368 384.327 105.81 381.785 104.241 379.277C102.885 377.038 101.518 374.911 100.139 372.806C100.139 372.403 100.139 371.989 100.061 371.563C99.8925 368.686 99.8028 365.226 99.9261 361.486L102.481 365.349C103.759 367.297 105.07 369.324 106.381 371.373C107.951 373.836 109.531 376.355 111.089 378.897C112.501 381.203 113.89 383.532 115.235 385.85C121.242 396.184 126.431 406.462 128.762 414.367Z" fill="white"/>
</g>
<path opacity="0.2" d="M128.292 422.619L122.823 437.79C116.356 421.734 100.8 379.334 100.8 379.334C99.578 370.088 99.578 360.722 100.8 351.477C102.112 342.878 108.645 339.821 113.509 338.747C113.797 338.794 114.081 338.858 114.361 338.937C114.361 338.937 101.876 346.92 103.243 377.654L115.403 411.243C115.403 411.243 116.681 399.543 121.545 401.234C123.641 401.984 126.622 411.691 128.292 422.619Z" fill="black" fill-opacity="0.7"/>
<path d="M145.786 374.06C145.786 374.06 122.867 347.379 118.676 338.153C118.676 338.153 102.896 337.638 100.744 351.466C99.5219 360.711 99.5219 370.077 100.744 379.322C100.744 379.322 116.3 421.734 122.766 437.79L145.786 374.06Z" stroke="#263238" stroke-linecap="round" stroke-linejoin="round"/>
<path d="M195.132 350.234C195.019 350.693 194.56 351.074 193.787 351.354C191.593 351.923 189.315 352.09 187.062 351.846C172.773 351.063 143.78 342.587 136.865 325.725C129.48 307.732 148.431 284.242 168.716 283.738C180.372 283.458 190.2 297.174 192.565 313.342C193.764 321.134 200.388 327.606 195.132 350.234Z" fill="white" stroke="#263238" stroke-miterlimit="10"/>
<path d="M185.224 324.247C184.451 325.729 184.172 327.42 184.429 329.073" stroke="#263238" stroke-linecap="round" stroke-linejoin="round"/>
<path d="M185.336 333.585C185.336 333.585 187.41 336.384 188.9 335.085" stroke="#263238" stroke-linecap="round" stroke-linejoin="round"/>
<path d="M193.764 351.353C191.571 351.922 189.293 352.089 187.04 351.846C187.331 349.73 187.892 347.278 188.071 346.046C188.654 342.161 186.704 340.952 187.533 340.672C188.362 340.392 188.284 343.852 189.931 345.61C191.464 347.342 192.753 349.274 193.764 351.353Z" fill="#263238"/>
<path d="M188.161 348.398C188.161 348.398 185.617 358.139 185.919 363.076C186.261 366.863 186.947 370.611 187.97 374.273L157.195 376.053C157.195 376.053 161.801 353.918 159.336 346.17C156.87 338.422 179.016 341.243 179.016 341.243" fill="white"/>
<path d="M188.161 348.398C188.161 348.398 185.617 358.139 185.919 363.076C186.261 366.863 186.947 370.611 187.97 374.273L157.195 376.053C157.195 376.053 161.801 353.918 159.336 346.17C156.87 338.422 179.016 341.243 179.016 341.243" stroke="#263238" stroke-miterlimit="10"/>
<path d="M184.642 302.705C185.93 298.518 188.228 298.943 188.228 298.943C188.228 298.943 186.737 278.845 178.141 276.707C172.336 275.251 170.745 283.985 164.693 277.692C161.331 274.165 155.189 273.214 151.076 276.192C148.644 277.983 148.722 280.48 147.097 282.652C145.472 284.824 142.121 284.735 139.656 285.239C135.845 286.011 131.979 288.844 131.183 292.852C130.533 296.121 134.545 298.708 133.761 301.395C132.831 304.608 129.838 306.557 127.989 309.232C125.748 312.435 125.546 316.6 126.409 320.317C127.698 325.848 130.556 328.009 135.005 330.83C137.246 332.241 138.557 334.805 139.936 336.966C144.553 344.221 150.157 349.528 158.988 351.029C176.707 354.052 184.642 337.716 184.642 337.716C184.642 337.716 182.647 321.526 184.092 319.679C185.538 317.831 188.575 324.157 188.575 324.157C192.263 314.304 184.642 302.705 184.642 302.705Z" fill="#263238"/>
<path d="M188.755 326.654C188.217 324.684 188.598 316.577 186.143 317.316C183.992 317.977 185.023 326.341 187.264 331.928C189.506 337.515 192.251 337.526 192.33 335.902C192.408 334.279 190.548 333.26 190.088 330.92" fill="white"/>
<path d="M188.755 326.654C188.217 324.684 188.598 316.577 186.143 317.316C183.992 317.977 185.023 326.341 187.264 331.928C189.506 337.515 192.251 337.526 192.33 335.902C192.408 334.279 190.548 333.26 190.088 330.92" stroke="#263238" stroke-miterlimit="10"/>
<path opacity="0.3" d="M183.375 292.65C183.375 292.65 184.35 283.413 178.108 283.693C171.865 283.973 172.19 292.65 172.19 292.65C172.19 292.65 166.945 290.87 165.152 293.893C163.359 296.916 165.208 303.03 165.208 303.03C165.208 303.03 159.605 304.81 160.983 308.561C162.362 312.311 158.742 312.871 158.742 312.871" stroke="white" stroke-linecap="round" stroke-linejoin="round"/>
<path opacity="0.3" d="M181.952 300.197C181.952 300.197 180.966 308.37 175.127 308.561C175.127 308.561 169.12 327.013 148.711 326.621" stroke="white" stroke-linecap="round" stroke-linejoin="round"/>
<path opacity="0.3" d="M166.318 282.462C166.318 282.462 161.611 278.062 155.951 280.76C150.291 283.458 154.057 291.117 154.057 291.117C154.057 291.117 148.565 290.781 146.761 294.924C144.957 299.066 150.303 301.776 150.303 301.776C150.303 301.776 144.206 305.011 146.761 307.575C149.316 310.139 146.761 315.29 146.761 315.29" stroke="white" stroke-linecap="round" stroke-linejoin="round"/>
<path opacity="0.3" d="M142.783 291.117C142.783 291.117 134.243 293.804 136.058 300.197C137.874 306.59 139.308 306.568 139.308 306.568C139.308 306.568 132.909 308.807 132.517 313.409C132.124 318.011 137.661 317.82 137.661 317.82C137.661 317.82 135.879 322.455 140.429 324.202" stroke="white" stroke-linecap="round" stroke-linejoin="round"/>
<path d="M145.786 371.272C145.786 371.272 166.396 356.717 203.907 372.011L232.048 365.45C232.048 365.45 250.249 414.837 239.333 465.457C239.333 465.457 214.912 482.957 174.028 482.867C129.681 482.755 118.698 465.457 118.698 465.457L125.042 449.3C121.22 430.848 116.277 401.267 120.043 385.951C125.77 362.662 145.786 371.272 145.786 371.272Z" fill="#2C8CF4"/>
<g opacity="0.3">
<path opacity="0.3" d="M230.008 470.685C228.305 471.514 226.355 472.387 224.203 473.283C224.024 471.144 223.844 469.028 223.688 466.934C223.531 464.841 223.363 462.68 223.217 460.586C222.746 454.249 222.354 448.18 222.018 442.414C221.891 440.22 221.775 438.066 221.67 435.954C221.222 427.31 220.897 419.361 220.695 412.106C220.628 409.754 220.568 407.481 220.516 405.287C220.359 397.584 220.303 390.776 220.348 384.865C220.348 382.536 220.348 380.386 220.415 378.281C220.482 374.385 220.572 370.981 220.684 368.07L226.725 366.659C226.635 369.19 226.534 372.157 226.467 375.56C226.467 377.654 226.389 379.893 226.366 382.278C226.366 387.876 226.366 394.449 226.467 401.894C226.467 404.134 226.516 406.474 226.613 408.915C226.799 416.274 227.113 424.407 227.554 433.312C227.666 435.439 227.767 437.622 227.89 439.839C228.227 445.616 228.6 451.692 229.011 458.067C229.168 460.164 229.329 462.292 229.493 464.449C229.683 466.52 229.84 468.58 230.008 470.685Z" fill="white"/>
</g>
<g opacity="0.3">
<path opacity="0.3" d="M212.2 370.052C211.752 373.355 211.281 377.307 210.811 381.853C210.586 383.913 210.362 386.107 210.161 388.414C209.567 394.997 209.04 402.521 208.614 410.807C208.513 412.979 208.412 415.207 208.345 417.525C208.076 424.925 207.941 432.853 208.031 441.216C208.031 443.321 208.031 445.449 208.121 447.598C208.24 453.57 208.479 459.765 208.838 466.184C208.961 468.244 209.085 470.327 209.242 472.432C209.361 474.358 209.507 476.295 209.679 478.243C207.785 478.758 205.812 479.251 203.761 479.698C203.615 477.918 203.47 476.149 203.358 474.391C203.201 472.309 203.066 470.237 202.943 468.188C202.551 461.739 202.304 455.458 202.17 449.367C202.103 447.251 202.069 445.169 202.046 443.097C201.946 434.823 202.046 426.963 202.271 419.585C202.338 417.345 202.42 415.177 202.517 413.08C202.876 404.649 203.403 396.957 203.985 390.161C204.187 387.921 204.378 385.783 204.579 383.745C205.05 379.121 205.521 375.023 205.958 371.53L212.2 370.052Z" fill="white"/>
</g>
<g opacity="0.3">
<path opacity="0.3" d="M192.117 367.913C191.512 372.683 190.794 379.11 190.077 386.746C189.883 388.724 189.7 390.784 189.528 392.926C188.945 400.036 188.407 408.03 187.959 416.674C187.858 418.712 187.757 420.772 187.679 422.877C187.376 430.333 187.197 438.216 187.163 446.389C187.163 448.404 187.163 450.442 187.163 452.502C187.163 458.996 187.343 465.669 187.623 472.443C187.701 474.47 187.791 476.496 187.903 478.545C187.903 479.732 188.026 480.908 188.105 482.095C186.155 482.285 184.16 482.453 182.12 482.554C182.064 481.624 182.008 480.695 181.963 479.777C181.851 477.75 181.75 475.735 181.672 473.72C181.369 466.744 181.212 459.881 181.167 453.185C181.167 451.159 181.167 449.155 181.167 447.15C181.167 438.966 181.369 431.084 181.66 423.638C181.739 421.567 181.817 419.54 181.918 417.536C182.333 408.881 182.871 400.842 183.465 393.665C183.633 391.56 183.812 389.522 183.992 387.574C184.787 378.863 185.605 371.698 186.233 366.536C188.161 366.939 190.088 367.398 192.117 367.913Z" fill="white"/>
</g>
<g opacity="0.3">
<path opacity="0.3" d="M170.868 482.789C168.772 482.789 166.744 482.665 164.794 482.531C164.794 482.195 164.715 481.848 164.682 481.49C164.48 479.542 164.312 477.537 164.177 475.466C163.706 468.479 163.561 460.911 163.415 452.771C163.415 452.435 163.415 452.121 163.415 451.786C163.415 450.117 163.359 448.427 163.325 446.68C163.191 439.391 162.989 431.621 162.53 423.414C162.418 421.421 162.294 419.383 162.149 417.334C161.947 414.434 161.712 411.501 161.431 408.511C160.927 403.204 160.669 398.435 160.613 394.023C160.613 391.896 160.613 389.892 160.681 387.999C160.788 380.356 161.918 372.76 164.043 365.416C166.19 365.172 168.348 365.037 170.509 365.013C168.907 369.402 167.069 376.825 166.71 388.324C166.654 390.216 166.632 392.209 166.71 394.325C166.755 398.423 167.009 402.962 167.472 407.94C167.793 411.322 168.066 414.643 168.29 417.905C168.425 419.943 168.548 421.947 168.649 423.929C169.086 432.225 169.276 440.063 169.411 447.441C169.411 448.897 169.411 450.319 169.489 451.73C169.489 452.312 169.489 452.849 169.489 453.465C169.635 461.303 169.781 468.703 170.251 475.421C170.386 477.481 170.554 479.474 170.778 481.4C170.745 481.848 170.812 482.318 170.868 482.789Z" fill="white"/>
</g>
<g opacity="0.3">
<path opacity="0.3" d="M150.818 392.691C150.585 396.583 150.559 400.485 150.74 404.38C150.93 408.108 151.009 411.646 151.009 415.061C151.009 417.178 151.009 419.226 150.93 421.264C150.751 428.206 150.303 434.79 149.81 441.575C149.81 442.179 149.731 442.795 149.686 443.411C149.541 445.449 149.406 447.509 149.283 449.602C148.924 455.201 148.644 461.034 148.577 467.315C148.577 468.995 148.577 470.674 148.577 472.197C148.622 474.496 148.707 476.672 148.834 478.724C148.834 479.34 148.902 479.956 148.958 480.549C146.776 480.124 144.736 479.646 142.839 479.116C142.783 478.221 142.738 477.302 142.693 476.351C142.592 474.179 142.547 471.872 142.536 469.51C142.536 468.771 142.536 468.009 142.536 467.27C142.603 460.25 142.939 453.835 143.332 447.665C143.477 445.538 143.612 443.456 143.758 441.384C143.758 441.317 143.758 441.239 143.758 441.16C144.262 433.916 144.744 426.93 144.878 419.484C144.878 417.401 144.878 415.285 144.878 413.113C144.878 410.404 144.777 407.605 144.632 404.694C144.421 400.242 144.463 395.783 144.755 391.336C144.867 389.287 145.035 387.249 145.215 385.223C145.708 379.994 146.414 374.911 147.165 370.354C148.963 369.396 150.837 368.587 152.768 367.936H152.824C153.116 367.824 153.418 367.723 153.732 367.633C152.735 373.232 151.726 379.849 151.11 386.667C151.065 388.649 150.919 390.676 150.818 392.691Z" fill="white"/>
</g>
<g opacity="0.3">
<path opacity="0.3" d="M143.332 370.432C144.183 370.645 144.867 370.88 145.282 371.026C141.231 373.61 138.278 377.597 136.988 382.222C136.417 384.208 136.097 386.258 136.036 388.324C135.976 389.758 136.01 391.194 136.137 392.624C136.645 398.468 136.966 404.111 137.101 409.553C137.179 411.792 137.213 414.031 137.213 416.271C137.245 423.547 136.897 430.819 136.17 438.059C135.969 440.186 135.722 442.287 135.431 444.362C135.274 445.56 135.106 446.759 134.915 447.945C134.209 452.424 133.514 457.843 132.943 463.363C132.707 465.703 132.483 468.054 132.293 470.383C132.166 471.973 132.054 473.54 131.956 475.086C129.952 474.168 128.016 473.11 126.162 471.917C126.308 469.98 126.487 468.043 126.667 466.173C126.913 463.576 127.182 461.09 127.451 458.817C128.236 452.043 128.975 447.15 128.998 447.016C129.267 445.262 129.513 443.482 129.737 441.675C130.006 439.548 130.23 437.395 130.41 435.215C131.066 427.886 131.324 420.526 131.183 413.169C131.183 410.818 131.082 408.444 130.981 406.015C130.81 401.842 130.533 397.543 130.152 393.116C129.915 390.644 129.915 388.154 130.152 385.682C130.358 383.609 130.782 381.564 131.418 379.58C132.614 375.825 134.693 372.412 137.482 369.626C139.458 369.646 141.424 369.916 143.332 370.432Z" fill="white"/>
</g>
<g opacity="0.3">
<path opacity="0.3" d="M235.713 377.553C233.146 379.009 230.02 380.655 226.355 382.312C224.494 383.163 222.492 384.014 220.348 384.865C217.232 386.096 213.825 387.294 210.16 388.414C208.18 389.019 206.122 389.59 203.985 390.127C199.22 391.33 194.394 392.279 189.528 392.971C187.555 393.251 185.516 393.486 183.454 393.687C179.06 394.124 174.488 394.359 169.691 394.359C168.817 394.359 167.954 394.359 167.091 394.359H166.62C164.558 394.359 162.541 394.214 160.591 394.057C157.312 393.785 154.05 393.34 150.818 392.725C148.756 392.321 146.772 391.866 144.867 391.359C141.851 390.556 138.886 389.569 135.991 388.403C133.944 387.589 131.997 386.716 130.152 385.783C127.244 384.32 124.436 382.667 121.747 380.834C122.519 378.98 123.541 377.24 124.784 375.661C126.917 377.125 129.132 378.467 131.418 379.681C133.144 380.599 134.994 381.483 136.944 382.301C139.673 383.457 142.473 384.441 145.327 385.245C147.209 385.794 149.182 386.264 151.244 386.678C154.353 387.314 157.496 387.766 160.658 388.033C162.597 388.212 164.592 388.313 166.654 388.358H167.192C168.01 388.358 168.817 388.358 169.624 388.358C174.42 388.358 179.212 388.1 183.98 387.585C186.065 387.361 188.097 387.093 190.077 386.779C194.966 386.029 199.808 385.001 204.579 383.7C206.742 383.118 208.816 382.491 210.81 381.842C214.285 380.722 217.535 379.49 220.415 378.27C222.656 377.363 224.607 376.445 226.456 375.549C229.426 374.116 231.958 372.75 234.021 371.541C234.536 373.243 235.108 375.258 235.713 377.553Z" fill="white"/>
</g>
<g opacity="0.3">
<path opacity="0.3" d="M240.353 399.957C235.96 403.226 231.368 406.218 226.601 408.915C224.73 410.034 222.769 411.042 220.695 412.072C216.691 414.098 212.575 415.896 208.367 417.457C206.395 418.196 204.378 418.891 202.293 419.518C197.524 420.985 192.654 422.108 187.724 422.877C185.751 423.179 183.734 423.436 181.694 423.616C178.93 423.869 176.105 424 173.221 424.007C171.697 424.007 170.151 424.007 168.604 423.884C166.598 423.783 164.592 423.616 162.552 423.369C162.16 423.369 161.768 423.28 161.375 423.235C157.871 422.774 154.398 422.101 150.975 421.219C148.913 420.682 146.926 420.085 145.013 419.428C142.346 418.518 139.727 417.472 137.168 416.293C135.061 415.319 133.055 414.278 131.138 413.192C126.779 410.709 122.653 407.838 118.81 404.615C118.698 401.76 118.676 399.017 118.81 396.419C122.543 400.02 126.623 403.242 130.993 406.037C132.928 407.284 134.967 408.456 137.112 409.553C139.686 410.875 142.335 412.045 145.046 413.057C146.974 413.785 148.991 414.434 151.065 415.017C154.703 416.034 158.412 416.782 162.16 417.256C164.2 417.525 166.217 417.715 168.234 417.827C172.805 418.073 177.388 417.957 181.941 417.48C183.992 417.267 186.02 416.987 187.993 416.64C192.935 415.787 197.806 414.56 202.562 412.968C204.647 412.274 206.686 411.523 208.659 410.728C212.725 409.105 216.698 407.259 220.561 405.197C222.66 404.078 224.64 402.958 226.501 401.838C230.922 399.183 235.18 396.267 239.254 393.105C239.613 395.345 239.994 397.606 240.353 399.957Z" fill="white"/>
</g>
<g opacity="0.3">
<path opacity="0.3" d="M242.818 431.095V432.449C238.515 434.789 233.46 437.353 227.879 439.873C225.985 440.735 224.024 441.586 222.018 442.414C217.613 444.25 212.94 446.008 208.121 447.565C206.171 448.192 204.176 448.785 202.17 449.334C197.241 450.725 192.229 451.802 187.163 452.558C185.168 452.849 183.173 453.073 181.167 453.241C178.791 453.443 176.404 453.555 174.04 453.555C172.493 453.555 170.958 453.555 169.422 453.42C167.595 453.308 165.78 453.118 163.964 452.861L163.415 452.771C158.643 452.066 153.928 451.023 149.305 449.647C147.299 449.043 145.338 448.393 143.399 447.699C140.657 446.699 137.986 445.624 135.386 444.474C133.436 443.616 131.538 442.72 129.693 441.787C127.324 440.615 125.053 439.399 122.879 438.137C122.419 435.596 121.971 432.953 121.534 430.3C124.313 432.024 127.257 433.711 130.365 435.36C132.225 436.335 134.153 437.286 136.126 438.204C138.614 439.361 141.18 440.444 143.825 441.451C145.741 442.179 147.703 442.873 149.709 443.489C154.153 444.915 158.697 446.008 163.303 446.759C163.807 446.848 164.312 446.926 164.827 446.994C166.307 447.206 167.808 447.363 169.31 447.475C173.254 447.719 177.211 447.655 181.145 447.285C183.151 447.094 185.146 446.848 187.152 446.523C192.18 445.724 197.152 444.602 202.035 443.164C204.053 442.582 206.047 441.955 208.02 441.283C212.761 439.694 217.333 437.924 221.659 436.055C223.676 435.204 225.638 434.319 227.532 433.446C233.337 430.748 238.515 428.027 242.729 425.676C242.796 427.4 242.818 429.236 242.818 431.095Z" fill="white"/>
</g>
<g opacity="0.3">
<path opacity="0.3" d="M241.541 452.323C241.406 453.443 241.249 454.563 241.081 455.682C240.913 456.802 240.689 458.213 240.476 459.489C237.45 460.922 233.752 462.624 229.527 464.449C227.677 465.255 225.716 466.072 223.688 466.901C219.205 468.726 214.341 470.596 209.242 472.365C207.303 473.037 205.341 473.697 203.358 474.324C198.292 475.936 193.092 477.392 187.903 478.568C185.919 479.038 183.936 479.441 181.963 479.799C178.311 480.483 174.626 480.984 170.924 481.3H170.711C169.232 481.423 167.752 481.468 166.318 481.468C165.769 481.468 165.197 481.468 164.682 481.468C159.33 481.325 154.026 480.412 148.935 478.758C146.845 478.083 144.794 477.291 142.794 476.384C139.127 474.729 135.613 472.755 132.293 470.484C130.264 469.118 128.381 467.685 126.689 466.274C124.569 464.537 122.538 462.695 120.604 460.754L123.047 454.563C124.291 455.884 125.77 457.362 127.474 458.918C129.177 460.474 130.948 461.93 132.965 463.464C136.014 465.767 139.258 467.801 142.659 469.543C144.615 470.564 146.632 471.462 148.7 472.23C153.676 474.135 158.922 475.239 164.244 475.5C166.24 475.588 168.238 475.554 170.229 475.399H170.487C174.249 475.079 177.99 474.552 181.694 473.82C183.667 473.44 185.65 473.014 187.645 472.544C192.778 471.335 197.945 469.834 202.965 468.2C204.96 467.55 206.933 466.879 208.86 466.196C213.949 464.382 218.812 462.478 223.239 460.597C225.29 459.758 227.229 458.918 229.067 458.112C234.256 455.839 238.593 453.79 241.541 452.323Z" fill="white"/>
</g>
<path opacity="0.2" d="M204.12 371.921C195.86 376.624 176.001 386.813 161.23 385.682C149.372 384.775 144.419 376.915 143.298 370.432C144.15 370.64 144.985 370.909 145.797 371.238C145.797 371.238 166.407 356.683 203.918 371.977L204.12 371.921Z" fill="black" fill-opacity="0.7"/>
<path opacity="0.2" d="M177.469 482.789C176.348 482.789 175.228 482.789 174.028 482.789C129.693 482.677 118.698 465.367 118.698 465.367L125.053 449.211C122.343 436.627 120.389 423.892 119.203 411.075C122.666 418.23 144.217 459.713 176.124 459.534C198.74 459.444 187.914 473.16 177.469 482.789Z" fill="black" fill-opacity="0.7"/>
<path opacity="0.2" d="M242.818 431.095C242.843 439.337 242.262 447.57 241.081 455.727C229.37 441.631 233.057 416.069 233.057 416.069C234.603 426.023 239.781 429.74 242.818 431.095Z" fill="black" fill-opacity="0.7"/>
<path d="M145.786 371.272C145.786 371.272 166.396 356.717 203.907 372.011L232.048 365.45C232.048 365.45 250.249 414.837 239.333 465.457C239.333 465.457 214.912 482.957 174.028 482.867C129.681 482.755 118.698 465.457 118.698 465.457L125.042 449.3C121.22 430.848 116.277 401.267 120.043 385.951C125.77 362.662 145.786 371.272 145.786 371.272Z" stroke="#263238" stroke-linecap="round" stroke-linejoin="round"/>
<path d="M159.761 379.21C172.717 379.714 188.452 379.625 199.749 372.425" stroke="#263238" stroke-linecap="round" stroke-linejoin="round"/>
<path d="M152.51 378.729C153.631 378.852 154.83 378.942 155.996 379.02" stroke="#263238" stroke-linecap="round" stroke-linejoin="round"/>
<path d="M162.507 459.242C162.577 461.329 162.874 463.401 163.393 465.423" stroke="#263238" stroke-linecap="round" stroke-linejoin="round"/>
<path d="M159.1 382.155C156.861 387.207 156.144 392.803 157.038 398.256C162.037 417.289 165.04 435.204 162.463 454.506" stroke="#263238" stroke-linecap="round" stroke-linejoin="round"/>
<path d="M166.161 446.288C172.672 447.896 179.468 447.961 186.009 446.478" stroke="#263238" stroke-linecap="round" stroke-linejoin="round"/>
<path d="M125.49 406.059C132.528 422.652 145.237 436.805 161.499 444.777" stroke="#263238" stroke-linecap="round" stroke-linejoin="round"/>
<path d="M122.172 396.655C122.554 397.998 122.968 399.342 123.428 400.674" stroke="#263238" stroke-linecap="round" stroke-linejoin="round"/>
<path d="M232.048 365.416C229.96 381.414 230.19 397.629 232.732 413.561C236.923 440.432 243.491 440.175 243.491 440.175C243.491 440.175 280.979 393.889 290.998 375.18C290.998 375.18 288.622 348.308 278.076 342.598L232.048 365.416Z" fill="#2C8CF4"/>
<g opacity="0.3">
<path opacity="0.3" d="M284.274 386.029C282.761 388.268 281.136 390.653 279.41 393.094C278.525 387.776 277.493 382.86 276.373 378.315C275.835 376.075 275.267 373.944 274.669 371.921C273.403 367.443 272.047 363.435 270.679 359.796C269.932 357.743 269.155 355.817 268.348 354.018C267.512 352.07 266.686 350.268 265.872 348.61L271.318 345.901C272.013 347.3 272.708 348.778 273.414 350.379C274.21 352.182 275.005 354.097 275.801 356.157C277.146 359.605 278.461 363.423 279.746 367.611C280.351 369.637 280.956 371.753 281.517 373.97C282.518 377.717 283.437 381.737 284.274 386.029Z" fill="white"/>
</g>
<g opacity="0.3">
<path opacity="0.3" d="M270.534 405.309C268.763 407.672 267.003 410.023 265.244 412.318C264.517 404.8 263.395 397.326 261.882 389.925C261.441 387.686 260.97 385.525 260.47 383.443C259.259 378.192 257.914 373.366 256.558 368.955C255.908 366.894 255.258 364.928 254.608 363.054C253.678 360.333 252.748 357.836 251.863 355.564L257.309 352.865C258.139 354.959 259.013 357.243 259.887 359.729C260.552 361.587 261.217 363.554 261.882 365.629C263.193 369.783 264.504 374.34 265.715 379.278C266.23 381.375 266.731 383.536 267.216 385.76C268.528 391.795 269.66 398.312 270.534 405.309Z" fill="white"/>
</g>
<g opacity="0.3">
<path opacity="0.3" d="M256.334 423.895C254.496 426.269 252.77 428.452 251.212 430.423C249.845 420.447 248.119 410.594 246.281 401.312C245.855 399.14 245.422 397.005 244.981 394.908C243.692 388.739 242.37 382.916 241.104 377.598C240.61 375.504 240.117 373.5 239.647 371.586C238.851 368.361 238.089 365.394 237.405 362.718L242.897 359.986C243.58 362.584 244.331 365.461 245.138 368.607C245.631 370.533 246.124 372.548 246.64 374.653C247.839 379.692 249.105 385.212 250.361 391.079C250.809 393.172 251.257 395.322 251.706 397.505C253.342 405.981 254.967 414.826 256.334 423.895Z" fill="white"/>
</g>
<g opacity="0.3">
<path opacity="0.3" d="M284.319 349.641C281.741 351.689 278.906 353.884 275.801 356.146C274.165 357.347 272.458 358.564 270.679 359.796C267.967 361.707 265.042 363.666 261.904 365.674C260.19 366.793 258.408 367.913 256.581 369.033C253.405 370.959 250.073 372.877 246.584 374.788C244.791 375.773 242.975 376.747 241.104 377.721C237.741 379.457 234.301 381.181 230.714 382.86C230.714 380.375 230.86 378.113 230.995 376.086C233.983 374.653 236.867 373.198 239.647 371.72C241.496 370.723 243.311 369.738 245.082 368.742C248.444 366.883 251.594 365.002 254.631 363.143C256.446 362.031 258.206 360.912 259.909 359.785C262.89 357.859 265.703 355.944 268.348 354.074C270.108 352.832 271.8 351.622 273.414 350.424C276.093 348.443 278.558 346.528 280.822 344.725C281.559 345.485 282.227 346.31 282.817 347.189C283.37 347.973 283.872 348.792 284.319 349.641Z" fill="white"/>
</g>
<g opacity="0.3">
<path opacity="0.3" d="M289.777 366.794C287.177 369.1 284.42 371.507 281.517 373.982C279.843 375.415 278.129 376.867 276.373 378.337C273.425 380.789 270.377 383.286 267.239 385.783C265.49 387.171 263.709 388.571 261.904 389.948C258.542 392.523 255.124 395.087 251.65 397.584C249.868 398.871 248.086 400.136 246.281 401.379C241.653 404.57 236.957 407.627 232.283 410.437C231.97 408.198 231.723 406.026 231.51 403.898C235.993 401.111 240.476 398.099 244.959 394.941C246.741 393.687 248.523 392.422 250.282 391.123C253.745 388.604 257.152 386.018 260.47 383.42C262.24 382.032 264 380.643 265.715 379.255C268.797 376.792 271.778 374.318 274.68 371.899C276.406 370.432 278.11 368.999 279.757 367.577C282.761 364.969 285.608 362.449 288.264 360.064C288.88 362.416 289.384 364.711 289.777 366.794Z" fill="white"/>
</g>
<path opacity="0.2" d="M290.998 375.135C280.968 393.844 243.48 440.13 243.48 440.13C243.48 440.13 237.876 440.365 233.74 419.282C236.8 430.647 245.093 431.811 245.093 431.811L283.288 381.349C279.219 372.705 282.716 347.827 282.817 347.166C289.373 356.717 290.998 375.135 290.998 375.135Z" fill="black" fill-opacity="0.7"/>
<path d="M232.048 365.416C229.96 381.414 230.19 397.629 232.732 413.561C236.923 440.432 243.491 440.175 243.491 440.175C243.491 440.175 280.979 393.889 290.998 375.18C290.998 375.18 288.622 348.308 278.076 342.598L232.048 365.416Z" stroke="#263238" stroke-linecap="round" stroke-linejoin="round"/>
<path d="M203.907 371.978C203.907 371.978 188.385 360.602 167.808 358.206C147.232 355.81 147.815 367.913 147.815 367.913C146.973 368.264 146.3 368.925 145.932 369.759C145.565 370.592 145.533 371.535 145.842 372.392C146.694 375.829 174.555 379.11 203.907 371.978Z" fill="#2C8CF4"/>
<g opacity="0.3">
<path opacity="0.3" d="M166.576 358.071C166.016 359.424 165.534 360.807 165.13 362.214C164.625 363.894 164.121 365.887 163.662 368.215C163.202 370.544 162.821 373.12 162.541 376.053C160.299 375.952 158.349 375.784 156.534 375.594C156.814 372.806 157.184 370.309 157.576 368.07C157.968 365.831 158.439 363.793 158.921 362.024C159.324 360.49 159.75 359.146 160.165 357.948C162.301 357.809 164.446 357.851 166.576 358.071Z" fill="white"/>
</g>
<g opacity="0.3">
<path opacity="0.3" d="M183.039 361.677C183.039 362.438 183.039 363.256 183.039 364.14C182.961 365.909 182.837 367.924 182.602 370.186C182.434 371.866 182.21 373.679 181.929 375.616C179.811 375.807 177.76 375.941 175.777 376.042C176.169 373.59 176.449 371.339 176.651 369.324C176.875 367.029 176.998 365.013 177.054 363.289C177.054 362.002 177.054 360.882 177.054 359.93C179.116 360.423 181.134 361.027 183.039 361.677Z" fill="white"/>
</g>
<g opacity="0.3">
<path opacity="0.3" d="M203.907 371.977C201.665 372.504 199.558 372.985 197.395 373.411C192.184 372.011 187.208 370.959 182.557 370.186C180.506 369.839 178.534 369.548 176.606 369.302C171.865 368.686 167.528 368.372 163.662 368.182C161.42 368.092 159.414 368.07 157.543 368.081C153.893 368.088 150.245 368.282 146.615 368.663C146.939 368.34 147.319 368.078 147.736 367.891C147.774 365.832 148.531 363.852 149.877 362.293C152.309 362.113 155.335 361.99 158.843 362.001C160.77 362.001 162.855 362.001 165.085 362.147C168.683 362.326 172.661 362.651 176.965 363.199C178.892 363.431 180.887 363.722 182.949 364.073C186.614 364.677 190.492 365.439 194.515 366.413C197.783 368.026 200.923 369.886 203.907 371.977Z" fill="white"/>
</g>
<path d="M203.907 371.978C203.907 371.978 188.385 360.602 167.808 358.206C147.232 355.81 147.815 367.913 147.815 367.913C146.973 368.264 146.3 368.925 145.932 369.759C145.565 370.592 145.533 371.535 145.842 372.392C146.694 375.829 174.555 379.11 203.907 371.978Z" stroke="#263238" stroke-linecap="round" stroke-linejoin="round"/>
<path d="M170.229 366.614C172.221 366.9 174.188 367.338 176.113 367.924" stroke="#263238" stroke-linecap="round" stroke-linejoin="round"/>
<path d="M147.815 367.913C153.822 366.413 160.023 365.831 166.206 366.189" stroke="#263238" stroke-linecap="round" stroke-linejoin="round"/>
<path d="M112.176 366.525C112.176 368.495 112.344 370.466 112.557 372.425" stroke="#263238" stroke-linecap="round" stroke-linejoin="round"/>
<path d="M121.186 342.553C114.955 346.629 112.747 355.463 112.22 362.36" stroke="#263238" stroke-linecap="round" stroke-linejoin="round"/>
<path d="M269.054 394.617C267.471 396.32 265.567 397.693 263.451 398.659" stroke="#263238" stroke-linecap="round" stroke-linejoin="round"/>
<path d="M286.784 355.407C283.03 367.275 279.029 380.274 271.867 391.235" stroke="#263238" stroke-linecap="round" stroke-linejoin="round"/>
<path d="M243.491 440.13C243.491 440.13 237.708 442.94 230.042 427.097" stroke="#263238" stroke-linecap="round" stroke-linejoin="round"/>
<path d="M233.886 455.312C228.282 465.042 220.348 474.089 209.678 478.209" stroke="#263238" stroke-linecap="round" stroke-linejoin="round"/>
<path d="M238.201 446.288C237.618 447.867 236.935 449.401 236.206 450.912" stroke="#263238" stroke-linecap="round" stroke-linejoin="round"/>
</svg>
