<svg width="501" height="453" viewBox="0 0 501 453" fill="none" xmlns="http://www.w3.org/2000/svg">
<path d="M118.676 434.423C145.125 462.313 210.06 452.102 238.179 434.423C329.473 377.03 489.501 281.513 496.741 143.125C499.823 84.2992 447.911 53.4194 426.214 44.3503C374.201 22.5956 317.044 16.0569 260.582 13.5377C201.666 10.9065 138.423 12.9555 85.4017 41.6743C65.3071 52.5237 46.3445 66.508 33.3665 85.5532C20.1756 104.901 12.5883 127.932 10.5822 151.187C7.33209 188.695 17.4298 226.304 32.7053 260.721C47.9807 295.139 68.3555 327.016 87.0491 359.698C99.2426 381.027 96.4184 410.91 118.676 434.423Z" fill="#2C8CF4"/>
<path opacity="0.7" d="M118.676 434.423C145.125 462.313 210.06 452.102 238.179 434.423C329.473 377.03 489.501 281.513 496.741 143.125C499.823 84.2992 447.911 53.4194 426.214 44.3503C374.201 22.5956 317.044 16.0569 260.582 13.5377C201.666 10.9065 138.423 12.9555 85.4017 41.6743C65.3071 52.5237 46.3445 66.508 33.3665 85.5532C20.1756 104.901 12.5883 127.932 10.5822 151.187C7.33209 188.695 17.4298 226.304 32.7053 260.721C47.9807 295.139 68.3555 327.016 87.0491 359.698C99.2426 381.027 96.4184 410.91 118.676 434.423Z" fill="white"/>
<path d="M349.231 367.547C349.545 270.855 349.545 163.369 349.231 67.3257" stroke="#263238" stroke-linecap="round" stroke-linejoin="round"/>
<path d="M367.219 37.4312C367.476 144.335 367.476 238.385 367.219 345.255" stroke="#263238" stroke-linecap="round" stroke-linejoin="round"/>
<path d="M349.231 44.3952V5.20763C352.073 4.0459 355.129 3.50017 358.197 3.60654C364.54 3.60654 367.163 5.20763 367.163 5.20763V16.113" stroke="#263238" stroke-linecap="round" stroke-linejoin="round"/>
<path d="M462.099 3.59546L465.798 5.09578L442.072 25.2494L367.219 37.4311L363.677 36.3786" stroke="#263238" stroke-linecap="round" stroke-linejoin="round"/>
<path d="M363.677 16.8856L436.087 0.941895L462.099 3.59545L439.752 23.5811L363.677 36.3786V16.8856Z" stroke="#263238" stroke-linecap="round" stroke-linejoin="round"/>
<path d="M290.819 31.6201L287.782 33.4339L306.184 55.3678L349.22 67.3256L353.815 66.1724" stroke="#263238" stroke-linecap="round" stroke-linejoin="round"/>
<path d="M353.815 46.1531L309.143 28.9553L290.819 31.6201L309.737 54.1697L353.815 66.1723V46.1531Z" stroke="#263238" stroke-linecap="round" stroke-linejoin="round"/>
<path d="M209.746 58.6707V440.413" stroke="#263238" stroke-linecap="round" stroke-linejoin="round"/>
<path d="M104.813 29.6497C139.97 37.9686 174.712 50.2847 209.746 58.6708" stroke="#263238" stroke-linecap="round" stroke-linejoin="round"/>
<path d="M63.9958 51.1355C111.952 62.6006 161.263 74.9167 209.746 87.2328" stroke="#263238" stroke-linecap="round" stroke-linejoin="round"/>
<path d="M32.6268 77.0776C90.6579 90.5917 150.056 102.908 209.746 115.705" stroke="#263238" stroke-linecap="round" stroke-linejoin="round"/>
<path d="M14.6952 107.386C79.4506 119.703 144.453 131.978 209.701 144.212" stroke="#263238" stroke-linecap="round" stroke-linejoin="round"/>
<path d="M1 139.419L209.746 172.729" stroke="#263238" stroke-linecap="round" stroke-linejoin="round"/>
<path d="M1 174.05L209.746 201.246" stroke="#263238" stroke-linecap="round" stroke-linejoin="round"/>
<path d="M5.86389 209.162C73.847 214.872 141.09 223.829 209.746 229.764" stroke="#263238" stroke-linecap="round" stroke-linejoin="round"/>
<path d="M15.5022 244.33C68.2434 248.462 120.917 250.701 174.712 256.299C185.919 256.299 198.247 256.299 209.746 258.27" stroke="#263238" stroke-linecap="round" stroke-linejoin="round"/>
<path d="M28.5586 279.084C89.5372 282.051 148.935 285.41 209.746 286.787" stroke="#263238" stroke-linecap="round" stroke-linejoin="round"/>
<path d="M44.8763 313.11C99.6237 313.401 154.539 314.521 209.746 315.304" stroke="#263238" stroke-linecap="round" stroke-linejoin="round"/>
<path d="M63.9062 346.151C111.952 345.871 161.264 344.751 209.746 343.822" stroke="#263238" stroke-linecap="round" stroke-linejoin="round"/>
<path d="M80.5714 378.172C123.159 376.101 166.867 373.862 209.78 372.328" stroke="#263238" stroke-linecap="round" stroke-linejoin="round"/>
<path d="M196.555 72.9126V405.021" stroke="#263238" stroke-linecap="round" stroke-linejoin="round"/>
<path d="M133.817 44.1602V250.499" stroke="#263238" stroke-linecap="round" stroke-linejoin="round"/>
<path d="M62.4269 72.0056V300.032" stroke="#263238" stroke-linecap="round" stroke-linejoin="round"/>
<path d="M492.572 80.2463L382.931 92.8983V349.666" stroke="#263238" stroke-linecap="round" stroke-linejoin="round"/>
<path d="M500.361 113.22L397.501 121.74V326.893" stroke="#263238" stroke-linecap="round" stroke-linejoin="round"/>
<path d="M500.361 163.257L400.471 170.378" stroke="#263238" stroke-linecap="round" stroke-linejoin="round"/>
<path d="M485.578 206.755L403.418 212.096" stroke="#263238" stroke-linecap="round" stroke-linejoin="round"/>
<path d="M437.757 126.096V283.585" stroke="#263238" stroke-linecap="round" stroke-linejoin="round"/>
<path d="M106.057 415.803C109.242 422.643 113.502 428.929 118.676 434.423C145.125 462.313 211.192 452.102 239.311 434.423C248.557 428.612 257.377 422.398 267.799 415.803" stroke="#263238" stroke-linecap="round" stroke-linejoin="round"/>
<path d="M369.606 226.248L359.318 266.376L377.249 370.693H377.115L376.678 370.783C369.046 372.451 286.829 390.32 282.806 389.985C278.592 389.637 212.536 379.482 212.536 379.482L154.068 386.312L107.188 365.655L63.8725 373.291L51.5446 220.47C51.5446 220.47 60.7009 145.745 56.487 125.625C56.487 125.625 128.628 135.971 135.296 136.687C141.965 137.404 219.541 112.985 219.541 112.985L285.002 134.65L339.839 127.719L420.98 165.675C420.98 165.675 368.295 218.074 369.606 226.248Z" fill="white" stroke="#263238" stroke-linecap="round" stroke-linejoin="round"/>
<path d="M64.8812 132.198L135.296 142.095L218.42 121.651L284.935 140.248L337.127 134.65L409.436 165.608C409.436 165.608 368.283 216.552 366.703 219.81C365.123 223.068 351.932 266.376 351.932 266.376L369.348 365.688L284.969 384.241L213.993 372.899L157.744 377.848L109.923 357.347L70.2046 365.688L57.3163 222.777C57.3163 222.777 69.1511 164.645 64.8812 132.198Z" fill="#2C8CF4" stroke="#263238" stroke-linecap="round" stroke-linejoin="round"/>
<path d="M310.129 185.549L321.527 182.794L376.891 206.43C379.603 202.97 382.662 199.107 385.8 195.166L325.786 169.829L313.144 173.367L321.067 136.34L310.589 137.46L300.973 176.804L269.906 185.493L210.127 190.699L186.244 202.556L187.365 167.612L216.571 153.863L250.596 160.424L256.39 132.321L246.057 129.432L242.785 149.843L216.571 144.245L187.724 157.244L188.654 129.007L174.712 132.388V208.21L139.286 225.789V141.11L135.251 142.095L126.42 140.852L127.933 169.829H103.972L65.6096 139.856C65.8562 144.178 65.8898 148.813 65.7777 153.527L99.8589 182.022H128.594L129.715 203.631L128.662 212.588L58.0111 230.547L58.3809 234.634L128.135 217.067L126.521 231.006L59.5465 247.521L60.7793 261.248L96.2614 251.876L99.5563 294.109L66.8648 328.662L68.1424 342.791L79.6635 330.61L82.2187 363.135L85.5137 362.441L83.2722 326.803L107.132 301.589L118.676 298.644L164.368 283.921L163.359 290.549L137.986 369.383L147.747 373.57L161.084 330.565L180.764 326.926L220.303 344.012L238.649 345.187L235.534 376.347L240.42 377.12L242.549 345.423L288.578 348.367L321.829 343.586L326.066 375.205L334.628 373.324L330.493 342.31L364.35 337.44L362.657 327.766L290.595 337.316L261.456 334.764L265.603 295.576L290.92 281.76H298.765L355.518 287.503L353.523 276.027L300.368 271H288.096L294.327 233.57L310.129 185.549ZM121.848 285.309L102.571 291.019L100.016 250.857L129.715 243.02L174.006 220.179L166.71 268.615L121.848 285.309ZM184.361 315.909L164.379 319.872L172.672 293.247L185.213 214.435L210.463 201.414L220.269 241.139L216.605 274.213L205.599 324.418L184.361 315.909ZM275.913 279.52L258.52 287.75L252.12 333.946L222.982 331.393L212.951 327.374L224.158 277.516L228.507 242.998H248.579L282.077 237.399L275.913 279.52ZM283.702 229.349L250.081 236.257H223.049L214.912 200.709L267.665 195.838L297.454 188.605L283.702 229.349Z" fill="white" stroke="#263238" stroke-linecap="round" stroke-linejoin="round"/>
<path opacity="0.5" d="M297.454 261.337L300.491 237.366L339.268 245.875L336.107 266.342L297.454 261.337Z" fill="white"/>
<path opacity="0.5" d="M321.482 236.257L329.383 214.245L358.589 225.251L351.887 248.014L321.482 236.257Z" fill="white"/>
<path opacity="0.5" d="M315.139 188.628H318.366L330.571 194.148L318.366 231.129L306.924 227.703L303.259 226.897L315.139 188.628Z" fill="white"/>
<path opacity="0.5" d="M339.268 198.436L367.757 209.879L363.016 218.074L336.107 209.879L339.268 198.436Z" fill="white"/>
<path opacity="0.5" d="M321.482 165.63L327.007 140.248L336.107 138.804L349.556 144.2L340.03 170.366L327.186 165.63H321.482Z" fill="white"/>
<path opacity="0.5" d="M345.992 173.109L351.932 158.509L391.897 176.692L383.985 188.628L345.992 173.109Z" fill="white"/>
<path opacity="0.5" d="M260.828 138.804L282.055 144.939L275.611 178.674H272.529H253.802L260.828 138.804Z" fill="white"/>
<path opacity="0.5" d="M287.434 145.869L303.259 143.181L297.454 173.109L282.055 177.095L287.434 145.869Z" fill="white"/>
<path opacity="0.5" d="M249.453 165.63L247.537 180.253L213.03 181.832L192.285 192.513V173.11L217.4 160.144L249.453 165.63Z" fill="white"/>
<path opacity="0.5" d="M193.787 132.198L218.712 125.648L216.784 140.248L192.33 149.798L193.787 132.198Z" fill="white"/>
<path opacity="0.5" d="M221.883 140.248L239.949 144.2L242.83 130.843L224.125 127.674L221.883 140.248Z" fill="white"/>
<path opacity="0.5" d="M143.802 144.2V165.63L169.915 158.509V138.804L143.802 144.2Z" fill="white"/>
<path opacity="0.5" d="M145.596 173.569V215.925L160.019 209.879L157.744 183.813L169.915 180.253V165.63L145.596 173.569Z" fill="white"/>
<path opacity="0.5" d="M101.854 186.971L103.838 214.245L122.823 209.879L125.871 201.369V186.971H101.854Z" fill="white"/>
<path opacity="0.5" d="M71.0003 165.608L96.0484 184.978V198.414L67.8286 200.586C67.8286 200.586 71.3925 177.095 71.0003 165.608Z" fill="white"/>
<path opacity="0.5" d="M67.8287 205.949L93.639 203.575V216.585L63.2898 224.859L67.8287 205.949Z" fill="white"/>
<path opacity="0.5" d="M101.854 143.181V161.678L122.823 163.257L121.96 144.2L101.854 143.181Z" fill="white"/>
<path opacity="0.5" d="M189.606 218.074L207.616 209.688L213.03 240.355L186.009 245.103L189.606 218.074Z" fill="white"/>
<path opacity="0.5" d="M193.787 249.771L192.33 270.776L211.068 268.805V245.103L193.787 249.771Z" fill="white"/>
<path opacity="0.5" d="M247.537 203.575L245.094 231.13H255.281L277.942 227.39L290.998 194.148L266.118 201.369L247.537 203.575Z" fill="white"/>
<path opacity="0.5" d="M221.883 205.154V212.633L240.745 212.095V203.575L221.883 205.154Z" fill="white"/>
<path opacity="0.5" d="M249.453 253.018L247.537 275.131L272.406 270.776L275.611 245.103L249.453 253.018Z" fill="white"/>
<path opacity="0.5" d="M227.689 281.793L245.093 283.036L240.745 327.408L224.046 326.892L217.793 324.642L227.689 281.793Z" fill="white"/>
<path opacity="0.5" d="M233.371 249.771L245.093 251.462L242.83 266.342H231.309L233.371 249.771Z" fill="white"/>
<path opacity="0.5" d="M327.007 291.019L349.556 293.203L354.7 320.343L327.007 320.914V291.019Z" fill="white"/>
<path opacity="0.5" d="M275.611 300.033L297.454 298.275L300.491 330.073H272.002L275.611 300.033Z" fill="white"/>
<path opacity="0.5" d="M336.107 348.323L339.268 362.856L354.7 360.348L351.932 345.232L336.107 348.323Z" fill="white"/>
<path opacity="0.5" d="M286.246 354.044L316.909 350.316L318.366 367.233L284.969 375.508L266.073 373.291L272.663 352.477L286.246 354.044Z" fill="white"/>
<path opacity="0.5" d="M127.574 304.6L152.511 300.032L150.829 317.23L143.803 334.002L125.871 338.772L127.574 304.6Z" fill="white"/>
<path opacity="0.5" d="M105.821 255.582V269.197L125.019 266.342L135.296 262.39L134.769 245.103L127.776 249.771L105.821 255.582Z" fill="white"/>
<path opacity="0.5" d="M65.845 266.342L91.1733 260.117L93.6389 286.261L69.4089 291.019L65.845 266.342Z" fill="white"/>
<path opacity="0.5" d="M67.6157 312.819L82.073 300.032L85.8275 303.503L70.877 317.846L67.6157 312.819Z" fill="white"/>
<path opacity="0.5" d="M71.3926 348.323L78.4643 346.654L79.742 360.907L72.7375 361.926L71.3926 348.323Z" fill="white"/>
<path opacity="0.5" d="M89.9853 356.966L88.6293 332.054L105.821 330.073V354.693L89.9853 356.966Z" fill="white"/>
<path opacity="0.5" d="M198.292 300.032C203.634 300.032 207.964 295.706 207.964 290.37C207.964 285.033 203.634 280.707 198.292 280.707C192.95 280.707 188.62 285.033 188.62 290.37C188.62 295.706 192.95 300.032 198.292 300.032Z" fill="white"/>
<path opacity="0.1" d="M369.606 226.248L359.318 266.376L377.249 370.693H377.115L376.678 370.783L282.817 389.984L307.215 225.71L339.806 127.674L420.946 165.63C420.946 165.63 368.295 218.074 369.606 226.248Z" fill="black" fill-opacity="0.7"/>
<path opacity="0.1" d="M284.969 134.605L260.134 222.553L238.504 260.755L212.548 379.482L154.079 386.312L197.138 286.272L207.381 211.48L220.359 113.22L284.969 134.605Z" fill="black" fill-opacity="0.7"/>
<path opacity="0.1" d="M134.77 136.654L132.988 218.388L108.444 366.248L107.2 365.7L63.8725 373.291L52.5532 232.473L120.368 206.273L131.575 136.24L134.77 136.654Z" fill="black" fill-opacity="0.7"/>
<path d="M304.335 180.925C304.152 180.735 303.921 180.598 303.667 180.527C303.413 180.456 303.144 180.454 302.889 180.522L268.853 189.289L210.945 193.655C210.746 193.668 210.551 193.721 210.374 193.812L134.366 232.787L135.487 208.155V174.868C135.487 174.671 135.448 174.476 135.373 174.294C135.297 174.112 135.187 173.946 135.047 173.807C134.908 173.668 134.742 173.557 134.56 173.482C134.378 173.406 134.182 173.367 133.985 173.367H118.676C118.278 173.367 117.896 173.526 117.614 173.807C117.333 174.088 117.174 174.47 117.174 174.868C117.174 175.266 117.333 175.647 117.614 175.929C117.896 176.21 118.278 176.368 118.676 176.368H132.416V208.043L131.206 235.217C131.191 235.479 131.246 235.741 131.366 235.976C131.486 236.21 131.667 236.408 131.889 236.549C132.11 236.69 132.363 236.771 132.624 236.785C132.886 236.798 133.146 236.744 133.38 236.627L211.461 196.622L269.2 192.267C269.286 192.279 269.373 192.279 269.458 192.267L301.085 184.116L287.468 232.261C287.465 232.313 287.465 232.365 287.468 232.417L285.227 245.719H283.949C283.88 245.719 283.812 245.734 283.75 245.764C283.688 245.794 283.633 245.837 283.59 245.891C283.547 245.945 283.517 246.008 283.501 246.075C283.486 246.142 283.486 246.211 283.501 246.279L285.395 251.53C285.418 251.627 285.467 251.715 285.538 251.785C285.609 251.855 285.699 251.903 285.796 251.924C285.894 251.946 285.995 251.939 286.089 251.904C286.182 251.87 286.264 251.81 286.325 251.731L289.867 246.615C290.091 246.301 289.867 245.92 289.385 245.898H288.264L290.382 233.067L304.716 182.403C304.793 182.145 304.799 181.872 304.731 181.611C304.664 181.351 304.527 181.113 304.335 180.925Z" fill="#2C8CF4"/>
<path opacity="0.6" d="M304.335 180.925C304.152 180.735 303.921 180.598 303.667 180.527C303.413 180.456 303.144 180.454 302.889 180.522L268.853 189.289L210.945 193.655C210.746 193.668 210.551 193.721 210.374 193.812L134.366 232.787L135.487 208.155V174.868C135.487 174.671 135.448 174.476 135.373 174.294C135.297 174.112 135.187 173.946 135.047 173.807C134.908 173.668 134.742 173.557 134.56 173.482C134.378 173.406 134.182 173.367 133.985 173.367H118.676C118.278 173.367 117.896 173.526 117.614 173.807C117.333 174.088 117.174 174.47 117.174 174.868C117.174 175.266 117.333 175.647 117.614 175.929C117.896 176.21 118.278 176.368 118.676 176.368H132.416V208.043L131.206 235.217C131.191 235.479 131.246 235.741 131.366 235.976C131.486 236.21 131.667 236.408 131.889 236.549C132.11 236.69 132.363 236.771 132.624 236.785C132.886 236.798 133.146 236.744 133.38 236.627L211.461 196.622L269.2 192.267C269.286 192.279 269.373 192.279 269.458 192.267L301.085 184.116L287.468 232.261C287.465 232.313 287.465 232.365 287.468 232.417L285.227 245.719H283.949C283.88 245.719 283.812 245.734 283.75 245.764C283.688 245.794 283.633 245.837 283.59 245.891C283.547 245.945 283.517 246.008 283.501 246.075C283.486 246.142 283.486 246.211 283.501 246.279L285.395 251.53C285.418 251.627 285.467 251.715 285.538 251.785C285.609 251.855 285.699 251.903 285.796 251.924C285.894 251.946 285.995 251.939 286.089 251.904C286.182 251.87 286.264 251.81 286.325 251.731L289.867 246.615C290.091 246.301 289.867 245.92 289.385 245.898H288.264L290.382 233.067L304.716 182.403C304.793 182.145 304.799 181.872 304.731 181.611C304.664 181.351 304.527 181.113 304.335 180.925Z" fill="black" fill-opacity="0.7"/>
<path d="M125.4 120.979C123.88 119.459 122.074 118.253 120.087 117.43C118.099 116.607 115.969 116.183 113.818 116.183C111.666 116.183 109.536 116.607 107.549 117.43C105.561 118.253 103.756 119.459 102.235 120.979C99.167 124.05 97.4438 128.212 97.4438 132.551C97.4438 136.89 99.167 141.051 102.235 144.122L113.823 155.688L125.4 144.122C126.922 142.603 128.129 140.799 128.953 138.814C129.777 136.828 130.201 134.7 130.201 132.551C130.201 130.401 129.777 128.273 128.953 126.288C128.129 124.302 126.922 122.498 125.4 120.979ZM118.676 137.315C117.734 138.25 116.536 138.886 115.233 139.142C113.929 139.398 112.579 139.263 111.353 138.753C110.126 138.244 109.078 137.383 108.341 136.279C107.604 135.175 107.211 133.878 107.211 132.551C107.211 131.224 107.604 129.926 108.341 128.823C109.078 127.719 110.126 126.858 111.353 126.348C112.579 125.838 113.929 125.703 115.233 125.959C116.536 126.215 117.734 126.851 118.676 127.787C119.305 128.411 119.803 129.153 120.144 129.971C120.484 130.788 120.659 131.665 120.659 132.551C120.659 133.436 120.484 134.313 120.144 135.131C119.803 135.948 119.305 136.69 118.676 137.315Z" fill="#263238"/>
<path d="M102.246 139.722C103.535 142.347 105.374 144.664 107.637 146.518" stroke="white" stroke-linecap="round" stroke-linejoin="round"/>
<path d="M106.225 120.823C100.621 124.181 99.1643 130.664 101.002 136.632" stroke="white" stroke-linecap="round" stroke-linejoin="round"/>
<path d="M113.868 118.65C112.452 118.657 111.044 118.868 109.688 119.277" stroke="white" stroke-linecap="round" stroke-linejoin="round"/>
<path d="M273.157 224.949C271.636 223.429 269.83 222.223 267.843 221.4C265.855 220.577 263.725 220.154 261.574 220.154C259.423 220.154 257.292 220.577 255.305 221.4C253.317 222.223 251.512 223.429 249.991 224.949C248.469 226.469 247.262 228.272 246.438 230.258C245.615 232.243 245.191 234.372 245.191 236.521C245.191 238.67 245.615 240.798 246.438 242.784C247.262 244.769 248.469 246.573 249.991 248.092L261.568 259.658L273.157 248.092C274.678 246.573 275.886 244.769 276.709 242.784C277.533 240.798 277.957 238.67 277.957 236.521C277.957 234.372 277.533 232.243 276.709 230.258C275.886 228.272 274.678 226.469 273.157 224.949ZM266.343 241.285C265.401 242.221 264.202 242.856 262.899 243.113C261.596 243.369 260.246 243.233 259.019 242.724C257.793 242.214 256.745 241.353 256.008 240.249C255.271 239.145 254.877 237.848 254.877 236.521C254.877 235.194 255.271 233.897 256.008 232.793C256.745 231.689 257.793 230.828 259.019 230.318C260.246 229.809 261.596 229.673 262.899 229.929C264.202 230.185 265.401 230.821 266.343 231.757C266.971 232.381 267.47 233.123 267.81 233.941C268.151 234.759 268.326 235.635 268.326 236.521C268.326 237.406 268.151 238.283 267.81 239.101C267.47 239.918 266.971 240.661 266.343 241.285Z" fill="#263238"/>
<path d="M249.958 243.692C251.246 246.321 253.084 248.642 255.348 250.5" stroke="white" stroke-linecap="round" stroke-linejoin="round"/>
<path d="M253.936 224.781C248.333 228.14 246.876 234.612 248.714 240.591" stroke="white" stroke-linecap="round" stroke-linejoin="round"/>
<path d="M261.568 222.62C260.156 222.632 258.752 222.843 257.399 223.247" stroke="white" stroke-linecap="round" stroke-linejoin="round"/>
<path d="M369.606 226.236C368.283 226.774 357.211 228.084 357.211 228.084C357.468 225.453 363.016 220.705 363.016 218.074C363.058 217.764 363.023 217.448 362.914 217.155C362.805 216.862 362.624 216.601 362.389 216.394C362.153 216.188 361.87 216.043 361.565 215.973C361.26 215.903 360.942 215.909 360.64 215.992C360.113 219.418 351.405 225.732 349.556 226.527C347.707 227.322 342.697 244.184 339.985 246.827C318.691 268.033 298.518 280.293 290.998 294.971C286.18 304.051 279.091 311.731 270.422 317.263C270.422 317.263 266.073 373.178 282.682 348.333C299.292 323.489 305.243 324.944 313.547 313.882C321.852 302.82 338.08 277.572 350.744 256.299C357.211 250.812 362.22 253.354 366.176 249.402C367.017 248.562 366.445 245.181 367.757 242.964C369.068 240.747 371.186 236.75 370.928 234.376C370.67 232.002 372.777 230.692 373.035 229.371C373.293 228.05 370.928 225.71 369.606 226.236Z" fill="white" stroke="#263238" stroke-miterlimit="10"/>
<path d="M114.193 303.973C109.889 288.041 92.675 271.884 76.2452 246.737C74.1495 243.591 72.7261 226.068 71.1011 224.949C69.476 223.829 62.2474 215.812 62.4379 212.353C62.1578 212.209 61.8463 212.137 61.5314 212.143C61.2166 212.15 60.9083 212.235 60.6346 212.391C60.3609 212.546 60.1304 212.768 59.9638 213.035C59.7973 213.302 59.7001 213.606 59.6809 213.92C59.1318 216.495 63.5698 222.284 63.2896 224.915C63.2896 224.915 52.7212 221.343 51.5333 220.548C50.3453 219.754 47.5435 221.59 47.5323 222.933C47.5211 224.277 49.303 226.001 48.5521 228.274C47.8013 230.547 49.0453 234.891 49.8746 237.332C50.7039 239.773 49.4487 242.93 50.0875 243.949C53.1471 248.64 58.5714 247.185 63.7603 253.891C71.7623 277.225 82.398 305.317 88.2369 317.868C94.0759 330.419 100.184 330.184 111.301 357.962C122.419 385.741 129.737 330.094 129.737 330.094C122.383 322.876 117.028 313.876 114.193 303.973Z" fill="white" stroke="#263238" stroke-miterlimit="10"/>
<path d="M121.186 311.553C121.186 311.553 124.055 304.746 118.698 302.596C113.341 300.446 106.606 304.331 106.606 304.331C106.606 304.331 96.7097 306.806 96.3175 317.263C96.3175 317.263 94.076 352.353 102.325 352.487C110.573 352.622 121.186 311.553 121.186 311.553Z" fill="#80B9F8" stroke="#263238" stroke-linecap="round" stroke-linejoin="round"/>
<path d="M275.577 312.774C275.577 312.774 275.14 307.265 281.864 307.993C288.589 308.721 294.125 318.293 293.733 331.696C293.733 331.696 296.815 348.793 288.544 348.322C280.273 347.852 275.577 312.774 275.577 312.774Z" fill="#80B9F8" stroke="#263238" stroke-linecap="round" stroke-linejoin="round"/>
<path d="M145.786 343.06C145.786 343.06 122.867 316.379 118.676 307.153C118.676 307.153 102.896 306.638 100.744 320.466C99.5219 329.711 99.5219 339.077 100.744 348.322C100.744 348.322 116.3 390.734 122.766 406.79L145.786 343.06Z" fill="#2C8CF4"/>
<g opacity="0.3">
<path opacity="0.3" d="M137.728 333.398C134.005 333.892 130.412 335.101 127.149 336.958C126.286 337.428 125.411 337.955 124.537 338.548C123.723 339.095 122.971 339.729 122.296 340.44C118.934 343.799 116.692 348.871 115.291 354.839C114.564 357.923 114.025 361.049 113.677 364.199C113.065 369.712 112.811 375.258 112.915 380.803C111.01 375.754 109.127 370.727 107.424 366.125C107.726 362.687 108.228 359.271 108.926 355.891C109.476 353.179 110.225 350.511 111.167 347.908C112.68 343.179 115.336 338.895 118.9 335.435C119.626 334.762 120.406 334.148 121.231 333.599C122.105 333.017 122.979 332.479 123.831 331.987C126.854 330.245 130.111 328.944 133.503 328.124L137.728 333.398Z" fill="white"/>
</g>
<g opacity="0.3">
<path opacity="0.3" d="M128.919 322.358C125.825 323.245 122.795 324.345 119.853 325.65C118.833 326.098 117.79 326.59 116.703 327.116C115.921 327.494 115.171 327.936 114.462 328.438C110.73 331.125 108.141 335.447 106.337 340.384C105.432 342.964 104.716 345.605 104.196 348.289C103.759 350.528 103.434 352.767 103.176 354.94L100.755 348.356C100.755 348.356 100.374 345.803 100.094 341.817C100.094 341.414 100.094 341 100.016 340.575C100.679 338.45 101.488 336.374 102.437 334.36C104.414 329.892 107.542 326.029 111.503 323.164C112.304 322.62 113.143 322.134 114.014 321.709C114.977 321.227 115.93 320.79 116.849 320.376C119.519 319.169 122.254 318.111 125.042 317.208C126.286 318.876 127.574 320.589 128.919 322.358Z" fill="white"/>
</g>
<g opacity="0.3">
<path opacity="0.3" d="M120.783 310.915C118.224 311.582 115.756 312.556 113.431 313.815C111.643 314.762 109.934 315.852 108.32 317.073C105.397 319.27 102.712 321.765 100.307 324.519C100.431 323.175 100.599 321.82 100.8 320.477C101.234 317.087 102.863 313.963 105.395 311.665L105.541 311.576C106.74 310.715 107.982 309.915 109.262 309.179C109.733 308.9 110.214 308.642 110.696 308.385L110.786 308.564C111.665 308.245 112.563 307.983 113.476 307.78C115.177 307.386 116.918 307.187 118.665 307.187C119.292 308.472 120 309.717 120.783 310.915Z" fill="white"/>
</g>
<g opacity="0.3">
<path opacity="0.3" d="M134.545 346.318L130.062 350.327C127.256 347.188 124.636 343.886 122.217 340.44C121.041 338.794 119.909 337.081 118.799 335.413C117.309 333.106 115.863 330.766 114.484 328.415C113.468 326.668 112.482 324.922 111.526 323.175C110.405 321.126 109.284 319.077 108.298 317.073C107.312 315.069 106.415 313.334 105.552 311.542C106.682 310.582 107.938 309.78 109.284 309.157C109.755 308.877 110.237 308.62 110.719 308.362L110.808 308.541C111.638 310.255 112.501 312.024 113.42 313.826C114.54 315.976 115.661 318.182 116.883 320.398C117.839 322.145 118.825 323.892 119.841 325.638C121.097 327.766 122.397 329.878 123.741 331.976C124.84 333.677 125.96 335.342 127.104 336.969C129.403 340.225 131.888 343.347 134.545 346.318Z" fill="white"/>
</g>
<g opacity="0.3">
<path opacity="0.3" d="M128.762 383.367L122.991 385.058C121.276 379.224 117.835 371.913 113.621 364.199C112.131 361.456 110.528 358.668 108.869 355.88C107.368 353.327 105.81 350.785 104.241 348.277C102.885 346.038 101.518 343.911 100.139 341.806C100.139 341.403 100.139 340.989 100.061 340.563C99.8925 337.686 99.8028 334.226 99.9261 330.486L102.481 334.349C103.759 336.297 105.07 338.324 106.381 340.373C107.951 342.836 109.531 345.355 111.089 347.897C112.501 350.203 113.89 352.532 115.235 354.85C121.242 365.184 126.431 375.462 128.762 383.367Z" fill="white"/>
</g>
<path opacity="0.2" d="M128.292 391.619L122.823 406.79C116.356 390.734 100.8 348.334 100.8 348.334C99.578 339.088 99.578 329.722 100.8 320.477C102.112 311.878 108.645 308.821 113.509 307.747C113.797 307.794 114.081 307.858 114.361 307.937C114.361 307.937 101.876 315.92 103.243 346.654L115.403 380.243C115.403 380.243 116.681 368.543 121.545 370.234C123.641 370.984 126.622 380.691 128.292 391.619Z" fill="black" fill-opacity="0.7"/>
<path d="M145.786 343.06C145.786 343.06 122.867 316.379 118.676 307.153C118.676 307.153 102.896 306.638 100.744 320.466C99.5219 329.711 99.5219 339.077 100.744 348.322C100.744 348.322 116.3 390.734 122.766 406.79L145.786 343.06Z" stroke="#263238" stroke-linecap="round" stroke-linejoin="round"/>
<path d="M195.132 319.234C195.019 319.693 194.56 320.074 193.787 320.354C191.593 320.923 189.315 321.09 187.062 320.846C172.773 320.063 143.78 311.587 136.865 294.725C129.48 276.732 148.431 253.242 168.716 252.738C180.372 252.458 190.2 266.174 192.565 282.342C193.764 290.134 200.388 296.606 195.132 319.234Z" fill="white" stroke="#263238" stroke-miterlimit="10"/>
<path d="M185.224 293.247C184.451 294.729 184.172 296.42 184.429 298.073" stroke="#263238" stroke-linecap="round" stroke-linejoin="round"/>
<path d="M185.336 302.585C185.336 302.585 187.41 305.384 188.9 304.085" stroke="#263238" stroke-linecap="round" stroke-linejoin="round"/>
<path d="M193.764 320.353C191.571 320.922 189.293 321.089 187.04 320.846C187.331 318.73 187.892 316.278 188.071 315.046C188.654 311.161 186.704 309.952 187.533 309.672C188.362 309.392 188.284 312.852 189.931 314.61C191.464 316.342 192.753 318.274 193.764 320.353Z" fill="#263238"/>
<path d="M188.161 317.398C188.161 317.398 185.617 327.139 185.919 332.076C186.261 335.863 186.947 339.611 187.97 343.273L157.195 345.053C157.195 345.053 161.801 322.918 159.336 315.17C156.87 307.422 179.016 310.243 179.016 310.243" fill="white"/>
<path d="M188.161 317.398C188.161 317.398 185.617 327.139 185.919 332.076C186.261 335.863 186.947 339.611 187.97 343.273L157.195 345.053C157.195 345.053 161.801 322.918 159.336 315.17C156.87 307.422 179.016 310.243 179.016 310.243" stroke="#263238" stroke-miterlimit="10"/>
<path d="M184.642 271.705C185.93 267.518 188.228 267.943 188.228 267.943C188.228 267.943 186.737 247.845 178.141 245.707C172.336 244.251 170.745 252.985 164.693 246.692C161.331 243.165 155.189 242.214 151.076 245.192C148.644 246.983 148.722 249.48 147.097 251.652C145.472 253.824 142.121 253.735 139.656 254.239C135.845 255.011 131.979 257.844 131.183 261.852C130.533 265.121 134.545 267.708 133.761 270.395C132.831 273.608 129.838 275.557 127.989 278.232C125.748 281.435 125.546 285.6 126.409 289.317C127.698 294.848 130.556 297.009 135.005 299.83C137.246 301.241 138.557 303.805 139.936 305.966C144.553 313.221 150.157 318.528 158.988 320.029C176.707 323.052 184.642 306.716 184.642 306.716C184.642 306.716 182.647 290.526 184.092 288.679C185.538 286.831 188.575 293.157 188.575 293.157C192.263 283.304 184.642 271.705 184.642 271.705Z" fill="#263238"/>
<path d="M188.755 295.654C188.217 293.684 188.598 285.577 186.143 286.316C183.992 286.977 185.023 295.341 187.264 300.928C189.506 306.515 192.251 306.526 192.33 304.902C192.408 303.279 190.548 302.26 190.088 299.92" fill="white"/>
<path d="M188.755 295.654C188.217 293.684 188.598 285.577 186.143 286.316C183.992 286.977 185.023 295.341 187.264 300.928C189.506 306.515 192.251 306.526 192.33 304.902C192.408 303.279 190.548 302.26 190.088 299.92" stroke="#263238" stroke-miterlimit="10"/>
<path opacity="0.3" d="M183.375 261.65C183.375 261.65 184.35 252.413 178.108 252.693C171.865 252.973 172.19 261.65 172.19 261.65C172.19 261.65 166.945 259.87 165.152 262.893C163.359 265.916 165.208 272.03 165.208 272.03C165.208 272.03 159.605 273.81 160.983 277.561C162.362 281.311 158.742 281.871 158.742 281.871" stroke="white" stroke-linecap="round" stroke-linejoin="round"/>
<path opacity="0.3" d="M181.952 269.197C181.952 269.197 180.966 277.37 175.127 277.561C175.127 277.561 169.12 296.013 148.711 295.621" stroke="white" stroke-linecap="round" stroke-linejoin="round"/>
<path opacity="0.3" d="M166.318 251.462C166.318 251.462 161.611 247.062 155.951 249.76C150.291 252.458 154.057 260.117 154.057 260.117C154.057 260.117 148.565 259.781 146.761 263.924C144.957 268.066 150.303 270.776 150.303 270.776C150.303 270.776 144.206 274.011 146.761 276.575C149.316 279.139 146.761 284.29 146.761 284.29" stroke="white" stroke-linecap="round" stroke-linejoin="round"/>
<path opacity="0.3" d="M142.783 260.117C142.783 260.117 134.243 262.804 136.058 269.197C137.874 275.59 139.308 275.568 139.308 275.568C139.308 275.568 132.909 277.807 132.517 282.409C132.124 287.011 137.661 286.82 137.661 286.82C137.661 286.82 135.879 291.455 140.429 293.202" stroke="white" stroke-linecap="round" stroke-linejoin="round"/>
<path d="M145.786 340.272C145.786 340.272 166.396 325.717 203.907 341.011L232.048 334.45C232.048 334.45 250.249 383.837 239.333 434.457C239.333 434.457 214.912 451.957 174.028 451.867C129.681 451.755 118.698 434.457 118.698 434.457L125.042 418.3C121.22 399.848 116.277 370.267 120.043 354.951C125.77 331.662 145.786 340.272 145.786 340.272Z" fill="#2C8CF4"/>
<g opacity="0.3">
<path opacity="0.3" d="M230.008 439.685C228.305 440.514 226.355 441.387 224.203 442.283C224.024 440.144 223.844 438.028 223.688 435.934C223.531 433.841 223.363 431.68 223.217 429.586C222.746 423.249 222.354 417.18 222.018 411.414C221.891 409.22 221.775 407.066 221.67 404.954C221.222 396.31 220.897 388.361 220.695 381.106C220.628 378.754 220.568 376.481 220.516 374.287C220.359 366.584 220.303 359.776 220.348 353.865C220.348 351.536 220.348 349.386 220.415 347.281C220.482 343.385 220.572 339.981 220.684 337.07L226.725 335.659C226.635 338.19 226.534 341.157 226.467 344.56C226.467 346.654 226.389 348.893 226.366 351.278C226.366 356.876 226.366 363.449 226.467 370.894C226.467 373.134 226.516 375.474 226.613 377.915C226.799 385.274 227.113 393.407 227.554 402.312C227.666 404.439 227.767 406.622 227.89 408.839C228.227 414.616 228.6 420.692 229.011 427.067C229.168 429.164 229.329 431.292 229.493 433.449C229.683 435.52 229.84 437.58 230.008 439.685Z" fill="white"/>
</g>
<g opacity="0.3">
<path opacity="0.3" d="M212.2 339.052C211.752 342.355 211.281 346.307 210.811 350.853C210.586 352.913 210.362 355.107 210.161 357.414C209.567 363.997 209.04 371.521 208.614 379.807C208.513 381.979 208.412 384.207 208.345 386.525C208.076 393.925 207.941 401.853 208.031 410.216C208.031 412.321 208.031 414.449 208.121 416.598C208.24 422.57 208.479 428.765 208.838 435.184C208.961 437.244 209.085 439.327 209.242 441.432C209.361 443.358 209.507 445.295 209.679 447.243C207.785 447.758 205.812 448.251 203.761 448.698C203.615 446.918 203.47 445.149 203.358 443.391C203.201 441.309 203.066 439.237 202.943 437.188C202.551 430.739 202.304 424.458 202.17 418.367C202.103 416.251 202.069 414.169 202.046 412.097C201.946 403.823 202.046 395.963 202.271 388.585C202.338 386.345 202.42 384.177 202.517 382.08C202.876 373.649 203.403 365.957 203.985 359.161C204.187 356.921 204.378 354.783 204.579 352.745C205.05 348.121 205.521 344.023 205.958 340.53L212.2 339.052Z" fill="white"/>
</g>
<g opacity="0.3">
<path opacity="0.3" d="M192.117 336.913C191.512 341.683 190.794 348.11 190.077 355.746C189.883 357.724 189.7 359.784 189.528 361.926C188.945 369.036 188.407 377.03 187.959 385.674C187.858 387.712 187.757 389.772 187.679 391.877C187.376 399.333 187.197 407.216 187.163 415.389C187.163 417.404 187.163 419.442 187.163 421.502C187.163 427.996 187.343 434.669 187.623 441.443C187.701 443.47 187.791 445.496 187.903 447.545C187.903 448.732 188.026 449.908 188.105 451.095C186.155 451.285 184.16 451.453 182.12 451.554C182.064 450.624 182.008 449.695 181.963 448.777C181.851 446.75 181.75 444.735 181.672 442.72C181.369 435.744 181.212 428.881 181.167 422.185C181.167 420.159 181.167 418.155 181.167 416.15C181.167 407.966 181.369 400.084 181.66 392.638C181.739 390.567 181.817 388.54 181.918 386.536C182.333 377.881 182.871 369.842 183.465 362.665C183.633 360.56 183.812 358.522 183.992 356.574C184.787 347.863 185.605 340.698 186.233 335.536C188.161 335.939 190.088 336.398 192.117 336.913Z" fill="white"/>
</g>
<g opacity="0.3">
<path opacity="0.3" d="M170.868 451.789C168.772 451.789 166.744 451.665 164.794 451.531C164.794 451.195 164.715 450.848 164.682 450.49C164.48 448.542 164.312 446.537 164.177 444.466C163.706 437.479 163.561 429.911 163.415 421.771C163.415 421.435 163.415 421.121 163.415 420.786C163.415 419.117 163.359 417.427 163.325 415.68C163.191 408.391 162.989 400.621 162.53 392.414C162.418 390.421 162.294 388.383 162.149 386.334C161.947 383.434 161.712 380.501 161.431 377.511C160.927 372.204 160.669 367.435 160.613 363.023C160.613 360.896 160.613 358.892 160.681 356.999C160.788 349.356 161.918 341.76 164.043 334.416C166.19 334.172 168.348 334.037 170.509 334.013C168.907 338.402 167.069 345.825 166.71 357.324C166.654 359.216 166.632 361.209 166.71 363.325C166.755 367.423 167.009 371.962 167.472 376.94C167.793 380.322 168.066 383.643 168.29 386.905C168.425 388.943 168.548 390.947 168.649 392.929C169.086 401.225 169.276 409.063 169.411 416.441C169.411 417.897 169.411 419.319 169.489 420.73C169.489 421.312 169.489 421.849 169.489 422.465C169.635 430.303 169.781 437.703 170.251 444.421C170.386 446.481 170.554 448.474 170.778 450.4C170.745 450.848 170.812 451.318 170.868 451.789Z" fill="white"/>
</g>
<g opacity="0.3">
<path opacity="0.3" d="M150.818 361.691C150.585 365.583 150.559 369.485 150.74 373.38C150.93 377.108 151.009 380.646 151.009 384.061C151.009 386.178 151.009 388.226 150.93 390.264C150.751 397.206 150.303 403.79 149.81 410.575C149.81 411.179 149.731 411.795 149.686 412.411C149.541 414.449 149.406 416.509 149.283 418.602C148.924 424.201 148.644 430.034 148.577 436.315C148.577 437.995 148.577 439.674 148.577 441.197C148.622 443.496 148.707 445.672 148.834 447.724C148.834 448.34 148.902 448.956 148.958 449.549C146.776 449.124 144.736 448.646 142.839 448.116C142.783 447.221 142.738 446.302 142.693 445.351C142.592 443.179 142.547 440.872 142.536 438.51C142.536 437.771 142.536 437.009 142.536 436.27C142.603 429.25 142.939 422.835 143.332 416.665C143.477 414.538 143.612 412.456 143.758 410.384C143.758 410.317 143.758 410.239 143.758 410.16C144.262 402.916 144.744 395.93 144.878 388.484C144.878 386.401 144.878 384.285 144.878 382.113C144.878 379.404 144.777 376.605 144.632 373.694C144.421 369.242 144.463 364.783 144.755 360.336C144.867 358.287 145.035 356.249 145.215 354.223C145.708 348.994 146.414 343.911 147.165 339.354C148.963 338.396 150.837 337.587 152.768 336.936H152.824C153.116 336.824 153.418 336.723 153.732 336.633C152.735 342.232 151.726 348.849 151.11 355.667C151.065 357.649 150.919 359.676 150.818 361.691Z" fill="white"/>
</g>
<g opacity="0.3">
<path opacity="0.3" d="M143.332 339.432C144.183 339.645 144.867 339.88 145.282 340.026C141.231 342.61 138.278 346.597 136.988 351.222C136.417 353.208 136.097 355.258 136.036 357.324C135.976 358.758 136.01 360.194 136.137 361.624C136.645 367.468 136.966 373.111 137.101 378.553C137.179 380.792 137.213 383.031 137.213 385.271C137.245 392.547 136.897 399.819 136.17 407.059C135.969 409.186 135.722 411.287 135.431 413.362C135.274 414.56 135.106 415.759 134.915 416.945C134.209 421.424 133.514 426.843 132.943 432.363C132.707 434.703 132.483 437.054 132.293 439.383C132.166 440.973 132.054 442.54 131.956 444.086C129.952 443.168 128.016 442.11 126.162 440.917C126.308 438.98 126.487 437.043 126.667 435.173C126.913 432.576 127.182 430.09 127.451 427.817C128.236 421.043 128.975 416.15 128.998 416.016C129.267 414.262 129.513 412.482 129.737 410.675C130.006 408.548 130.23 406.395 130.41 404.215C131.066 396.886 131.324 389.526 131.183 382.169C131.183 379.818 131.082 377.444 130.981 375.015C130.81 370.842 130.533 366.543 130.152 362.116C129.915 359.644 129.915 357.154 130.152 354.682C130.358 352.609 130.782 350.564 131.418 348.58C132.614 344.825 134.693 341.412 137.482 338.626C139.458 338.646 141.424 338.916 143.332 339.432Z" fill="white"/>
</g>
<g opacity="0.3">
<path opacity="0.3" d="M235.713 346.553C233.146 348.009 230.02 349.655 226.355 351.312C224.494 352.163 222.492 353.014 220.348 353.865C217.232 355.096 213.825 356.294 210.16 357.414C208.18 358.019 206.122 358.59 203.985 359.127C199.22 360.33 194.394 361.279 189.528 361.971C187.555 362.251 185.516 362.486 183.454 362.687C179.06 363.124 174.488 363.359 169.691 363.359C168.817 363.359 167.954 363.359 167.091 363.359H166.62C164.558 363.359 162.541 363.214 160.591 363.057C157.312 362.785 154.05 362.34 150.818 361.725C148.756 361.321 146.772 360.866 144.867 360.359C141.851 359.556 138.886 358.569 135.991 357.403C133.944 356.589 131.997 355.716 130.152 354.783C127.244 353.32 124.436 351.667 121.747 349.834C122.519 347.98 123.541 346.24 124.784 344.661C126.917 346.125 129.132 347.467 131.418 348.681C133.144 349.599 134.994 350.483 136.944 351.301C139.673 352.457 142.473 353.441 145.327 354.245C147.209 354.794 149.182 355.264 151.244 355.678C154.353 356.314 157.496 356.766 160.658 357.033C162.597 357.212 164.592 357.313 166.654 357.358H167.192C168.01 357.358 168.817 357.358 169.624 357.358C174.42 357.358 179.212 357.1 183.98 356.585C186.065 356.361 188.097 356.093 190.077 355.779C194.966 355.029 199.808 354.001 204.579 352.7C206.742 352.118 208.816 351.491 210.81 350.842C214.285 349.722 217.535 348.49 220.415 347.27C222.656 346.363 224.607 345.445 226.456 344.549C229.426 343.116 231.958 341.75 234.021 340.541C234.536 342.243 235.108 344.258 235.713 346.553Z" fill="white"/>
</g>
<g opacity="0.3">
<path opacity="0.3" d="M240.353 368.957C235.96 372.226 231.368 375.218 226.601 377.915C224.73 379.034 222.769 380.042 220.695 381.072C216.691 383.098 212.575 384.896 208.367 386.457C206.395 387.196 204.378 387.891 202.293 388.518C197.524 389.985 192.654 391.108 187.724 391.877C185.751 392.179 183.734 392.436 181.694 392.616C178.93 392.869 176.105 393 173.221 393.007C171.697 393.007 170.151 393.007 168.604 392.884C166.598 392.783 164.592 392.616 162.552 392.369C162.16 392.369 161.768 392.28 161.375 392.235C157.871 391.774 154.398 391.101 150.975 390.219C148.913 389.682 146.926 389.085 145.013 388.428C142.346 387.518 139.727 386.472 137.168 385.293C135.061 384.319 133.055 383.278 131.138 382.192C126.779 379.709 122.653 376.838 118.81 373.615C118.698 370.76 118.676 368.017 118.81 365.419C122.543 369.02 126.623 372.242 130.993 375.037C132.928 376.284 134.967 377.456 137.112 378.553C139.686 379.875 142.335 381.045 145.046 382.057C146.974 382.785 148.991 383.434 151.065 384.017C154.703 385.034 158.412 385.782 162.16 386.256C164.2 386.525 166.217 386.715 168.234 386.827C172.805 387.073 177.388 386.957 181.941 386.48C183.992 386.267 186.02 385.987 187.993 385.64C192.935 384.787 197.806 383.56 202.562 381.968C204.647 381.274 206.686 380.523 208.659 379.728C212.725 378.105 216.698 376.259 220.561 374.197C222.66 373.078 224.64 371.958 226.501 370.838C230.922 368.183 235.18 365.267 239.254 362.105C239.613 364.345 239.994 366.606 240.353 368.957Z" fill="white"/>
</g>
<g opacity="0.3">
<path opacity="0.3" d="M242.818 400.095V401.449C238.515 403.789 233.46 406.353 227.879 408.873C225.985 409.735 224.024 410.586 222.018 411.414C217.613 413.25 212.94 415.008 208.121 416.565C206.171 417.192 204.176 417.785 202.17 418.334C197.241 419.725 192.229 420.802 187.163 421.558C185.168 421.849 183.173 422.073 181.167 422.241C178.791 422.443 176.404 422.555 174.04 422.555C172.493 422.555 170.958 422.555 169.422 422.42C167.595 422.308 165.78 422.118 163.964 421.861L163.415 421.771C158.643 421.066 153.928 420.023 149.305 418.647C147.299 418.043 145.338 417.393 143.399 416.699C140.657 415.699 137.986 414.624 135.386 413.474C133.436 412.616 131.538 411.72 129.693 410.787C127.324 409.615 125.053 408.399 122.879 407.137C122.419 404.596 121.971 401.953 121.534 399.3C124.313 401.024 127.257 402.711 130.365 404.36C132.225 405.335 134.153 406.286 136.126 407.204C138.614 408.361 141.18 409.444 143.825 410.451C145.741 411.179 147.703 411.873 149.709 412.489C154.153 413.915 158.697 415.008 163.303 415.759C163.807 415.848 164.312 415.926 164.827 415.994C166.307 416.206 167.808 416.363 169.31 416.475C173.254 416.719 177.211 416.655 181.145 416.285C183.151 416.094 185.146 415.848 187.152 415.523C192.18 414.724 197.152 413.602 202.035 412.164C204.053 411.582 206.047 410.955 208.02 410.283C212.761 408.694 217.333 406.924 221.659 405.055C223.676 404.204 225.638 403.319 227.532 402.446C233.337 399.748 238.515 397.027 242.729 394.676C242.796 396.4 242.818 398.236 242.818 400.095Z" fill="white"/>
</g>
<g opacity="0.3">
<path opacity="0.3" d="M241.541 421.323C241.406 422.443 241.249 423.563 241.081 424.682C240.913 425.802 240.689 427.213 240.476 428.489C237.45 429.922 233.752 431.624 229.527 433.449C227.677 434.255 225.716 435.072 223.688 435.901C219.205 437.726 214.341 439.596 209.242 441.365C207.303 442.037 205.341 442.697 203.358 443.324C198.292 444.936 193.092 446.392 187.903 447.568C185.919 448.038 183.936 448.441 181.963 448.799C178.311 449.483 174.626 449.984 170.924 450.3H170.711C169.232 450.423 167.752 450.468 166.318 450.468C165.769 450.468 165.197 450.468 164.682 450.468C159.33 450.325 154.026 449.412 148.935 447.758C146.845 447.083 144.794 446.291 142.794 445.384C139.127 443.729 135.613 441.755 132.293 439.484C130.264 438.118 128.381 436.685 126.689 435.274C124.569 433.537 122.538 431.695 120.604 429.754L123.047 423.563C124.291 424.884 125.77 426.362 127.474 427.918C129.177 429.474 130.948 430.93 132.965 432.464C136.014 434.767 139.258 436.801 142.659 438.543C144.615 439.564 146.632 440.462 148.7 441.23C153.676 443.135 158.922 444.239 164.244 444.5C166.24 444.588 168.238 444.554 170.229 444.399H170.487C174.249 444.079 177.99 443.552 181.694 442.82C183.667 442.44 185.65 442.014 187.645 441.544C192.778 440.335 197.945 438.834 202.965 437.2C204.96 436.55 206.933 435.879 208.86 435.196C213.949 433.382 218.812 431.478 223.239 429.597C225.29 428.758 227.229 427.918 229.067 427.112C234.256 424.839 238.593 422.79 241.541 421.323Z" fill="white"/>
</g>
<path opacity="0.2" d="M204.12 340.921C195.86 345.624 176.001 355.813 161.23 354.682C149.372 353.775 144.419 345.915 143.298 339.432C144.15 339.64 144.985 339.909 145.797 340.238C145.797 340.238 166.407 325.683 203.918 340.977L204.12 340.921Z" fill="black" fill-opacity="0.7"/>
<path opacity="0.2" d="M177.469 451.789C176.348 451.789 175.228 451.789 174.028 451.789C129.693 451.677 118.698 434.367 118.698 434.367L125.053 418.211C122.343 405.627 120.389 392.892 119.203 380.075C122.666 387.23 144.217 428.713 176.124 428.534C198.74 428.444 187.914 442.16 177.469 451.789Z" fill="black" fill-opacity="0.7"/>
<path opacity="0.2" d="M242.818 400.095C242.843 408.337 242.262 416.57 241.081 424.727C229.37 410.631 233.057 385.069 233.057 385.069C234.603 395.023 239.781 398.74 242.818 400.095Z" fill="black" fill-opacity="0.7"/>
<path d="M145.786 340.272C145.786 340.272 166.396 325.717 203.907 341.011L232.048 334.45C232.048 334.45 250.249 383.837 239.333 434.457C239.333 434.457 214.912 451.957 174.028 451.867C129.681 451.755 118.698 434.457 118.698 434.457L125.042 418.3C121.22 399.848 116.277 370.267 120.043 354.951C125.77 331.662 145.786 340.272 145.786 340.272Z" stroke="#263238" stroke-linecap="round" stroke-linejoin="round"/>
<path d="M159.761 348.21C172.717 348.714 188.452 348.625 199.749 341.425" stroke="#263238" stroke-linecap="round" stroke-linejoin="round"/>
<path d="M152.51 347.729C153.631 347.852 154.83 347.942 155.996 348.02" stroke="#263238" stroke-linecap="round" stroke-linejoin="round"/>
<path d="M162.507 428.242C162.577 430.329 162.874 432.401 163.393 434.423" stroke="#263238" stroke-linecap="round" stroke-linejoin="round"/>
<path d="M159.1 351.155C156.861 356.207 156.144 361.803 157.038 367.256C162.037 386.289 165.04 404.204 162.463 423.506" stroke="#263238" stroke-linecap="round" stroke-linejoin="round"/>
<path d="M166.161 415.288C172.672 416.896 179.468 416.961 186.009 415.478" stroke="#263238" stroke-linecap="round" stroke-linejoin="round"/>
<path d="M125.49 375.059C132.528 391.652 145.237 405.805 161.499 413.777" stroke="#263238" stroke-linecap="round" stroke-linejoin="round"/>
<path d="M122.172 365.655C122.554 366.998 122.968 368.342 123.428 369.674" stroke="#263238" stroke-linecap="round" stroke-linejoin="round"/>
<path d="M232.048 334.416C229.96 350.414 230.19 366.629 232.732 382.561C236.923 409.432 243.491 409.175 243.491 409.175C243.491 409.175 280.979 362.889 290.998 344.18C290.998 344.18 288.622 317.308 278.076 311.598L232.048 334.416Z" fill="#2C8CF4"/>
<g opacity="0.3">
<path opacity="0.3" d="M284.274 355.029C282.761 357.268 281.136 359.653 279.41 362.094C278.525 356.776 277.493 351.86 276.373 347.315C275.835 345.075 275.267 342.944 274.669 340.921C273.403 336.443 272.047 332.435 270.679 328.796C269.932 326.743 269.155 324.817 268.348 323.018C267.512 321.07 266.686 319.268 265.872 317.61L271.318 314.901C272.013 316.3 272.708 317.778 273.414 319.379C274.21 321.182 275.005 323.097 275.801 325.157C277.146 328.605 278.461 332.423 279.746 336.611C280.351 338.637 280.956 340.753 281.517 342.97C282.518 346.717 283.437 350.737 284.274 355.029Z" fill="white"/>
</g>
<g opacity="0.3">
<path opacity="0.3" d="M270.534 374.309C268.763 376.672 267.003 379.023 265.244 381.318C264.517 373.8 263.395 366.326 261.882 358.925C261.441 356.686 260.97 354.525 260.47 352.443C259.259 347.192 257.914 342.366 256.558 337.955C255.908 335.894 255.258 333.928 254.608 332.054C253.678 329.333 252.748 326.836 251.863 324.564L257.309 321.865C258.139 323.959 259.013 326.243 259.887 328.729C260.552 330.587 261.217 332.554 261.882 334.629C263.193 338.783 264.504 343.34 265.715 348.278C266.23 350.375 266.731 352.536 267.216 354.76C268.528 360.795 269.66 367.312 270.534 374.309Z" fill="white"/>
</g>
<g opacity="0.3">
<path opacity="0.3" d="M256.334 392.895C254.496 395.269 252.77 397.452 251.212 399.423C249.845 389.447 248.119 379.594 246.281 370.312C245.855 368.14 245.422 366.005 244.981 363.908C243.692 357.739 242.37 351.916 241.104 346.598C240.61 344.504 240.117 342.5 239.647 340.586C238.851 337.361 238.089 334.394 237.405 331.718L242.897 328.986C243.58 331.584 244.331 334.461 245.138 337.607C245.631 339.533 246.124 341.548 246.64 343.653C247.839 348.692 249.105 354.212 250.361 360.079C250.809 362.172 251.257 364.322 251.706 366.505C253.342 374.981 254.967 383.826 256.334 392.895Z" fill="white"/>
</g>
<g opacity="0.3">
<path opacity="0.3" d="M284.319 318.641C281.741 320.689 278.906 322.884 275.801 325.146C274.165 326.347 272.458 327.564 270.679 328.796C267.967 330.707 265.042 332.666 261.904 334.674C260.19 335.793 258.408 336.913 256.581 338.033C253.405 339.959 250.073 341.877 246.584 343.788C244.791 344.773 242.975 345.747 241.104 346.721C237.741 348.457 234.301 350.181 230.714 351.86C230.714 349.375 230.86 347.113 230.995 345.086C233.983 343.653 236.867 342.198 239.647 340.72C241.496 339.723 243.311 338.738 245.082 337.742C248.444 335.883 251.594 334.002 254.631 332.143C256.446 331.031 258.206 329.912 259.909 328.785C262.89 326.859 265.703 324.944 268.348 323.074C270.108 321.832 271.8 320.622 273.414 319.424C276.093 317.443 278.558 315.528 280.822 313.725C281.559 314.485 282.227 315.31 282.817 316.189C283.37 316.973 283.872 317.792 284.319 318.641Z" fill="white"/>
</g>
<g opacity="0.3">
<path opacity="0.3" d="M289.777 335.794C287.177 338.1 284.42 340.507 281.517 342.982C279.843 344.415 278.129 345.867 276.373 347.337C273.425 349.789 270.377 352.286 267.239 354.783C265.49 356.171 263.709 357.571 261.904 358.948C258.542 361.523 255.124 364.087 251.65 366.584C249.868 367.871 248.086 369.136 246.281 370.379C241.653 373.57 236.957 376.627 232.283 379.437C231.97 377.198 231.723 375.026 231.51 372.898C235.993 370.111 240.476 367.099 244.959 363.941C246.741 362.687 248.523 361.422 250.282 360.123C253.745 357.604 257.152 355.018 260.47 352.42C262.24 351.032 264 349.643 265.715 348.255C268.797 345.792 271.778 343.318 274.68 340.899C276.406 339.432 278.11 337.999 279.757 336.577C282.761 333.969 285.608 331.449 288.264 329.064C288.88 331.416 289.384 333.711 289.777 335.794Z" fill="white"/>
</g>
<path opacity="0.2" d="M290.998 344.135C280.968 362.844 243.48 409.13 243.48 409.13C243.48 409.13 237.876 409.365 233.74 388.282C236.8 399.647 245.093 400.811 245.093 400.811L283.288 350.349C279.219 341.705 282.716 316.827 282.817 316.166C289.373 325.717 290.998 344.135 290.998 344.135Z" fill="black" fill-opacity="0.7"/>
<path d="M232.048 334.416C229.96 350.414 230.19 366.629 232.732 382.561C236.923 409.432 243.491 409.175 243.491 409.175C243.491 409.175 280.979 362.889 290.998 344.18C290.998 344.18 288.622 317.308 278.076 311.598L232.048 334.416Z" stroke="#263238" stroke-linecap="round" stroke-linejoin="round"/>
<path d="M203.907 340.978C203.907 340.978 188.385 329.602 167.808 327.206C147.232 324.81 147.815 336.913 147.815 336.913C146.973 337.264 146.3 337.925 145.932 338.759C145.565 339.592 145.533 340.535 145.842 341.392C146.694 344.829 174.555 348.11 203.907 340.978Z" fill="#2C8CF4"/>
<g opacity="0.3">
<path opacity="0.3" d="M166.576 327.071C166.016 328.424 165.534 329.807 165.13 331.214C164.625 332.894 164.121 334.887 163.662 337.215C163.202 339.544 162.821 342.12 162.541 345.053C160.299 344.952 158.349 344.784 156.534 344.594C156.814 341.806 157.184 339.309 157.576 337.07C157.968 334.831 158.439 332.793 158.921 331.024C159.324 329.49 159.75 328.146 160.165 326.948C162.301 326.809 164.446 326.851 166.576 327.071Z" fill="white"/>
</g>
<g opacity="0.3">
<path opacity="0.3" d="M183.039 330.677C183.039 331.438 183.039 332.256 183.039 333.14C182.961 334.909 182.837 336.924 182.602 339.186C182.434 340.866 182.21 342.679 181.929 344.616C179.811 344.807 177.76 344.941 175.777 345.042C176.169 342.59 176.449 340.339 176.651 338.324C176.875 336.029 176.998 334.013 177.054 332.289C177.054 331.002 177.054 329.882 177.054 328.93C179.116 329.423 181.134 330.027 183.039 330.677Z" fill="white"/>
</g>
<g opacity="0.3">
<path opacity="0.3" d="M203.907 340.977C201.665 341.504 199.558 341.985 197.395 342.411C192.184 341.011 187.208 339.959 182.557 339.186C180.506 338.839 178.534 338.548 176.606 338.302C171.865 337.686 167.528 337.372 163.662 337.182C161.42 337.092 159.414 337.07 157.543 337.081C153.893 337.088 150.245 337.282 146.615 337.663C146.939 337.34 147.319 337.078 147.736 336.891C147.774 334.832 148.531 332.852 149.877 331.293C152.309 331.113 155.335 330.99 158.843 331.001C160.77 331.001 162.855 331.001 165.085 331.147C168.683 331.326 172.661 331.651 176.965 332.199C178.892 332.431 180.887 332.722 182.949 333.073C186.614 333.677 190.492 334.439 194.515 335.413C197.783 337.026 200.923 338.886 203.907 340.977Z" fill="white"/>
</g>
<path d="M203.907 340.978C203.907 340.978 188.385 329.602 167.808 327.206C147.232 324.81 147.815 336.913 147.815 336.913C146.973 337.264 146.3 337.925 145.932 338.759C145.565 339.592 145.533 340.535 145.842 341.392C146.694 344.829 174.555 348.11 203.907 340.978Z" stroke="#263238" stroke-linecap="round" stroke-linejoin="round"/>
<path d="M170.229 335.614C172.221 335.9 174.188 336.338 176.113 336.924" stroke="#263238" stroke-linecap="round" stroke-linejoin="round"/>
<path d="M147.815 336.913C153.822 335.413 160.023 334.831 166.206 335.189" stroke="#263238" stroke-linecap="round" stroke-linejoin="round"/>
<path d="M112.176 335.525C112.176 337.495 112.344 339.466 112.557 341.425" stroke="#263238" stroke-linecap="round" stroke-linejoin="round"/>
<path d="M121.186 311.553C114.955 315.629 112.747 324.463 112.22 331.36" stroke="#263238" stroke-linecap="round" stroke-linejoin="round"/>
<path d="M269.054 363.617C267.471 365.32 265.567 366.693 263.451 367.659" stroke="#263238" stroke-linecap="round" stroke-linejoin="round"/>
<path d="M286.784 324.407C283.03 336.275 279.029 349.274 271.867 360.235" stroke="#263238" stroke-linecap="round" stroke-linejoin="round"/>
<path d="M243.491 409.13C243.491 409.13 237.708 411.94 230.042 396.097" stroke="#263238" stroke-linecap="round" stroke-linejoin="round"/>
<path d="M233.886 424.312C228.282 434.042 220.348 443.089 209.678 447.209" stroke="#263238" stroke-linecap="round" stroke-linejoin="round"/>
<path d="M238.201 415.288C237.618 416.867 236.935 418.401 236.206 419.912" stroke="#263238" stroke-linecap="round" stroke-linejoin="round"/>
</svg>
