<svg id="flat" height="512" viewBox="0 0 512 512" width="512" xmlns="http://www.w3.org/2000/svg"><path d="m248 104h160v160h-160z" fill="#d1e4ff"/><path d="m288 200-10.61761-21.23522a35.07761 35.07761 0 0 1 -3.02206-22.56645 35.07758 35.07758 0 0 1 34.3964-28.19833h43.24327a16 16 0 0 1 16 16v24l3.15989 4.73984a20.4345 20.4345 0 0 1 -7.86389 29.61216 20.4345 20.4345 0 0 0 -11.296 18.27721 11.37076 11.37076 0 0 1 -11.37076 11.37079h-52.62924z" fill="#548aff"/><path d="m272 384h112v32h-112z" fill="#c47220"/><path d="m232 264h192v32h-192z" fill="#ea964b"/><path d="m88 456-8 32h112l-8-32z" fill="#8098ab"/><path d="m120 376h32v80h-32z" fill="#62798c"/><path d="m88 336h72v40h-72z" fill="#8098ab"/><path d="m197.02325 407.25582 18.97675-63.25582h-64v-48h78.45937a33.54063 33.54063 0 0 1 33.54063 33.54063 33.54067 33.54067 0 0 1 -2.39894 12.45667l-29.60106 74.0027z" fill="#4976f2"/><path d="m136 456-24-24 48-48-64-53.33336v-26.66664h64l36.78971 42.92133a46.56528 46.56528 0 0 1 11.21029 30.3043 46.56531 46.56531 0 0 1 -17.977 36.75642z" fill="#548aff"/><path d="m64 272v120l64-64v-56z" fill="#ffb401"/><path d="m240 216-32 16-22.62742-22.62742a32 32 0 0 0 -22.62741-9.37258h-74.74517a32 32 0 0 0 -32 32v24.9357a32 32 0 0 0 21.88071 30.35787l50.11929 16.70643 8-32h88l40-24z" fill="#ffc431"/><ellipse cx="172" cy="276" fill="#ea964b" rx="36" ry="28"/><path d="m144 176v32l-16 24-16-24v-32z" fill="#ffceb6"/><path d="m144 176v32h-8a15.99555 15.99555 0 0 1 -16-16v-16z" fill="#ffbfa1"/><path d="m112 176-8-8v-8a24 24 0 0 1 24-24 24 24 0 0 1 24 24v8l-8 8z" fill="#c47220"/><path d="m144 176-24-8-8 8v8a16 16 0 0 0 16 16 16 16 0 0 0 16-16z" fill="#ffceb6"/><path d="m136 272h8a24 24 0 0 1 24 24v8h-40z" fill="#ffceb6"/><path d="m136.00015 271.99963a7.99981 7.99981 0 0 1 -10.39883 4.45691l-32.572-13.02881a7.99922 7.99922 0 0 1 -5.02932-7.42773v-16a8 8 0 0 1 8-8 8 8 0 0 1 8 8v10.5835l27.54353 11.01779a7.99982 7.99982 0 0 1 4.45663 10.39832z" fill="#ffb401"/><path d="m136 456v32h-16l-24-40 16-16z" fill="#d1e4ff"/><path d="m197.023 407.256 34.977 8.744 8 32-8 8-40-32z" fill="#d1e4ff"/><path d="m256.372 184.414h46.427v16h-46.427z" fill="#db8638" transform="matrix(.707 -.707 .707 .707 -54.166 254.068)"/><path d="m288 72h80v32h-80z" fill="#ea964b"/><path d="m312 24h32v48h-32z" fill="#c47220"/><path d="m352 296 40 192h32l-40-192z" fill="#db8638"/><path d="m304 296-40 192h-32l40-192z" fill="#db8638"/><path d="m312 296h32v88h-32z" fill="#b66514"/><path d="m264 248 13.05964-4.35321a16 16 0 0 0 10.94036-15.17894v-28.46785h-32l-16 16z" fill="#ffceb6"/><path d="m288 176a20.4924 20.4924 0 0 1 15.52226-19.88055l16.47774-4.11945-4.11943 16.47774a20.4924 20.4924 0 0 1 -19.88057 15.52226z" fill="#e8f2ff"/></svg>