<svg width="44" height="44" viewBox="0 0 44 44" fill="none" xmlns="http://www.w3.org/2000/svg">
<path d="M28.4578 29.3613C28.6641 28.8793 28.8711 28.4033 29.0785 27.9332C28.7985 25.6563 27.7971 23.4532 26.2533 21.6097C25.1596 20.3037 24.4532 18.6738 24.4532 16.6418C24.4532 11.9756 27.7649 9.59628 31.7107 8.41748C35.5862 7.25977 35.2941 1.68351 31.328 0.890301C17.4889 -1.87737 2.22956 5.20254 0.792992 19.7063C0.0696455 27.0095 3.25902 33.0772 7.63032 37.8497C12.2516 42.8951 19.9363 43.0533 24.8155 38.8897C25.7493 36.0617 26.9875 32.7959 28.4578 29.3613Z" fill="#DBEDFF"/>
<path d="M14.1078 37.8499C9.73657 33.0776 6.54711 27.0099 7.27046 19.7066C8.3896 8.40765 17.8977 1.61454 28.588 0.472605C15.5448 -0.915025 2.13523 6.15509 0.79299 19.7066C0.0696436 27.0099 3.2591 33.0776 7.63031 37.8499C10.9043 41.4244 15.7157 42.5452 19.9779 41.4148C17.8081 40.8351 15.7617 39.6557 14.1078 37.8499Z" fill="#B5DCFF"/>
<path d="M18.3627 10.9215C19.9423 10.9215 21.2229 9.64091 21.2229 8.06125C21.2229 6.48159 19.9423 5.20102 18.3627 5.20102C16.783 5.20102 15.5024 6.48159 15.5024 8.06125C15.5024 9.64091 16.783 10.9215 18.3627 10.9215Z" fill="#F4DD45"/>
<path d="M17.0708 36.979C18.9305 36.979 20.4382 35.4713 20.4382 33.6116C20.4382 31.7518 18.9305 30.2442 17.0708 30.2442C15.211 30.2442 13.7034 31.7518 13.7034 33.6116C13.7034 35.4713 15.211 36.979 17.0708 36.979Z" fill="#64D465"/>
<path d="M11.3143 18.9572C13.3076 18.9572 14.9236 17.3413 14.9236 15.3479C14.9236 13.3546 13.3076 11.7386 11.3143 11.7386C9.3209 11.7386 7.70496 13.3546 7.70496 15.3479C7.70496 17.3413 9.3209 18.9572 11.3143 18.9572Z" fill="#F87C68"/>
<path d="M10.094 29.3053C12.0874 29.3053 13.7034 27.6893 13.7034 25.696C13.7034 23.7026 12.0874 22.0867 10.094 22.0867C8.10068 22.0867 6.48474 23.7026 6.48474 25.696C6.48474 27.6893 8.10068 29.3053 10.094 29.3053Z" fill="#7FB3FA"/>
<path d="M18.7193 8.06125C18.7193 7.07803 19.2155 6.21091 19.9711 5.69614C19.5128 5.38387 18.9591 5.20111 18.3627 5.20111C16.783 5.20111 15.5024 6.48167 15.5024 8.06134C15.5024 9.641 16.783 10.9216 18.3627 10.9216C18.9591 10.9216 19.5128 10.7388 19.9711 10.4265C19.2156 9.91159 18.7193 9.04447 18.7193 8.06125Z" fill="#FCC101"/>
<path d="M16.9202 33.6116C16.9202 32.3344 17.6314 31.2233 18.6792 30.6525C18.2013 30.3922 17.6533 30.2442 17.0708 30.2442C15.2111 30.2442 13.7034 31.7518 13.7034 33.6116C13.7034 35.4714 15.211 36.979 17.0708 36.979C17.6533 36.979 18.2013 36.831 18.6792 36.5706C17.6314 35.9998 16.9202 34.8888 16.9202 33.6116Z" fill="#40C140"/>
<path d="M10.9218 15.3479C10.9218 13.9327 11.7368 12.7084 12.9227 12.1169C12.4383 11.8752 11.8924 11.7386 11.3143 11.7386C9.32091 11.7386 7.70496 13.3546 7.70496 15.3479C7.70496 17.3413 9.32091 18.9572 11.3143 18.9572C11.8924 18.9572 12.4383 18.8206 12.9227 18.579C11.7368 17.9874 10.9218 16.7632 10.9218 15.3479Z" fill="#EC625E"/>
<path d="M9.70162 25.696C9.70162 24.2807 10.5166 23.0565 11.7025 22.4649C11.2181 22.2233 10.6722 22.0867 10.094 22.0867C8.10069 22.0867 6.48474 23.7026 6.48474 25.696C6.48474 27.6893 8.10069 29.3053 10.094 29.3053C10.6722 29.3053 11.2181 29.1686 11.7025 28.927C10.5167 28.3355 9.70162 27.1112 9.70162 25.696Z" fill="#64A6F4"/>
<path d="M35.9931 24.0151L32.0816 22.3926L31.5223 22.5321C30.4875 24.6067 29.4195 26.9119 28.3709 29.3613C26.5718 33.5641 25.1196 37.515 24.1481 40.7191C23.8398 41.7363 24.3218 42.8262 25.2799 43.2866C26.3046 43.7791 27.5348 43.3922 28.0942 42.4024C29.7412 39.4883 31.5964 35.7117 33.3943 31.5116C34.4428 29.0622 35.3735 26.6981 36.1602 24.5174L35.9931 24.0151Z" fill="#CE775F"/>
<path d="M26.6253 41.0444C27.5968 37.8403 29.049 33.8894 30.8481 29.6866C31.8508 27.3444 32.8711 25.1346 33.8634 23.1318L32.0814 22.3927L31.5222 22.5322C30.4874 24.6068 29.4193 26.912 28.3708 29.3614C26.5717 33.5642 25.1195 37.5151 24.148 40.7192C23.8396 41.7364 24.3217 42.8263 25.2797 43.2867C25.9193 43.5941 26.6389 43.5588 27.2255 43.2484C26.6341 42.7003 26.381 41.8502 26.6253 41.0444Z" fill="#C0694E"/>
<path d="M36.3367 13.8181L39.1419 15.019C39.2695 15.0736 39.3761 15.1567 39.4589 15.2571C40.4599 14.6863 42.2394 13.4451 43.0871 11.4647C44.0211 9.28265 43.3079 5.32294 42.9267 3.60278C42.833 3.18007 42.3548 2.97537 41.9843 3.19939C40.4765 4.11089 37.1192 6.32818 36.1851 8.51011C35.3374 10.4906 35.6677 12.6348 35.9456 13.7531C36.0755 13.7437 36.2091 13.7635 36.3367 13.8181Z" fill="#FFE97B"/>
<path d="M38.3872 9.87193C39.1551 8.07803 41.5602 6.26102 43.2296 5.16465C43.1276 4.5531 43.0177 4.01361 42.9267 3.60278C42.833 3.18007 42.3548 2.97537 41.9843 3.19939C40.4765 4.11089 37.1192 6.32818 36.1851 8.51012C35.3374 10.4905 35.6677 12.6348 35.9456 13.7531C36.0754 13.7436 36.209 13.7635 36.3367 13.8181L38.0221 14.5395C37.7968 13.3501 37.668 11.5523 38.3872 9.87193Z" fill="#F4DD45"/>
<path d="M34.9177 16.3378C33.8852 18.0037 32.7264 20.1135 31.5222 22.5321L36.1601 24.5174C37.0789 21.9766 37.8055 19.6818 38.2982 17.7849C38.1937 17.7828 38.0882 17.7617 37.9864 17.7181L35.1812 16.5173C35.0795 16.4738 34.9913 16.4119 34.9177 16.3378Z" fill="#477B9E"/>
<path d="M33.9996 22.8574C35.0554 20.7368 36.0763 18.8538 37.0077 17.2992L35.1812 16.5174C35.0796 16.4738 34.9914 16.412 34.9177 16.3379C33.8852 18.0037 32.7264 20.1135 31.5222 22.5321L33.6994 23.4641C33.7998 23.2599 33.8999 23.0573 33.9996 22.8574Z" fill="#3F6D8E"/>
<path d="M39.1791 14.932L36.3739 13.7312C35.9446 13.5475 35.4475 13.7465 35.2638 14.1758L34.6995 15.4939C34.5158 15.9232 34.7148 16.4203 35.1441 16.604L37.9493 17.8048C38.3786 17.9886 38.8757 17.7896 39.0594 17.3603L39.6237 16.0422C39.8074 15.6129 39.6084 15.1159 39.1791 14.932Z" fill="#DBEDFF"/>
<path d="M36.7923 16.3949L37.3982 14.9795C37.5195 14.696 37.7683 14.5066 38.0489 14.4482L36.3739 13.7312C35.9446 13.5475 35.4475 13.7465 35.2638 14.1758L34.6995 15.4939C34.5158 15.9232 34.7148 16.4203 35.1441 16.604L36.9819 17.3907C36.7299 17.136 36.6425 16.7447 36.7923 16.3949Z" fill="#B5DCFF"/>
</svg>
