<svg width="1806" height="997" viewBox="0 0 1806 997" fill="none" xmlns="http://www.w3.org/2000/svg">
<g clip-path="url(#clip0)">
<path fill-rule="evenodd" clip-rule="evenodd" d="M1220.93 159.338C1151.51 218.189 1052.26 355.651 912.459 365.825C855.091 370.001 740.813 345.983 630.07 303.222C562.696 277.207 484.77 216.767 392.632 171.556C328.396 140.035 172.655 139.05 184.989 215.134C198.125 296.168 257.805 421.442 361.533 492.952C417.05 531.226 672.849 643.064 946.63 635.935C1184.38 629.745 1443.62 509.315 1498.18 478.671C1615.58 412.737 1711.66 242.077 1711.66 171.556C1706.75 79.5662 1704.27 48.6057 1682.35 27.1882C1586.3 -66.6823 1496.48 117.905 1415.79 144.674C1313.04 178.758 1309.56 84.1986 1220.93 159.338V159.338Z" fill="url(#paint0_linear)"/>
<mask id="mask0" mask-type="alpha" maskUnits="userSpaceOnUse" x="0" y="110" width="1806" height="888">
<path d="M1719.33 404.571C1690.4 453.787 1659.98 504.138 1628.09 555.624C1561.41 663.278 1429.43 809.912 1248.36 800.243C1098.74 792.254 1098.74 848.925 939.137 897.384C779.535 945.841 542.748 808.099 416.596 817.938C280.939 828.519 224.314 916.674 171.375 955.539C118.436 994.405 -5.64595 1043.52 0.491775 906.738C3.41252 841.672 77.8697 766.818 142.72 630.719C159.92 594.626 162.143 524.768 149.392 421.144C149.19 420.332 148.996 419.536 148.81 418.758C127.157 328.093 115.344 288.193 175.663 253.086C235.98 217.979 460.994 281.317 513.762 311.397C587.014 353.153 788.317 421.766 939.137 401.337C1031.65 388.805 1075.4 341.308 1121.04 294.643C1157.91 256.936 1245.33 125.984 1391.03 181.933C1536.73 237.881 1593.18 143.642 1628.09 126.305C1652.44 113.482 1712.06 98.9386 1752.84 126.305C1780.57 144.919 1817.26 194.772 1801.14 253.085C1794.09 278.599 1766.82 329.093 1719.33 404.571Z" fill="white"/>
</mask>
<g mask="url(#mask0)">
<g filter="url(#filter0_d)">
<path d="M1719.33 404.571C1690.4 453.787 1659.98 504.138 1628.09 555.624C1561.41 663.278 1429.43 809.912 1248.36 800.243C1098.74 792.254 1098.74 848.925 939.137 897.384C779.535 945.841 542.748 808.099 416.596 817.938C280.939 828.519 224.314 916.674 171.375 955.539C118.436 994.405 -5.64595 1043.52 0.491775 906.738C3.41252 841.672 77.8697 766.818 142.72 630.719C159.92 594.626 162.143 524.768 149.392 421.144C149.19 420.332 148.996 419.536 148.81 418.758C127.157 328.093 115.344 288.193 175.663 253.086C235.98 217.979 460.994 281.317 513.762 311.397C587.014 353.153 788.317 421.766 939.137 401.337C1031.65 388.805 1075.4 341.308 1121.04 294.643C1157.91 256.936 1245.33 125.984 1391.03 181.933C1536.73 237.881 1593.18 143.642 1628.09 126.305C1652.44 113.482 1712.06 98.9386 1752.84 126.305C1780.57 144.919 1817.26 194.772 1801.14 253.085C1794.09 278.599 1766.82 329.093 1719.33 404.571Z" fill="black"/>
</g>
<path d="M1719.33 404.571C1690.4 453.787 1659.98 504.138 1628.09 555.624C1561.41 663.278 1429.43 809.912 1248.36 800.243C1098.74 792.254 1098.74 848.925 939.137 897.384C779.535 945.841 542.748 808.099 416.596 817.938C280.939 828.519 224.314 916.674 171.375 955.539C118.436 994.405 -5.64595 1043.52 0.491775 906.738C3.41252 841.672 77.8697 766.818 142.72 630.719C159.92 594.626 162.143 524.768 149.392 421.144C149.19 420.332 148.996 419.536 148.81 418.758C127.157 328.093 115.344 288.193 175.663 253.086C235.98 217.979 460.994 281.317 513.762 311.397C587.014 353.153 788.317 421.766 939.137 401.337C1031.65 388.805 1075.4 341.308 1121.04 294.643C1157.91 256.936 1245.33 125.984 1391.03 181.933C1536.73 237.881 1593.18 143.642 1628.09 126.305C1652.44 113.482 1712.06 98.9386 1752.84 126.305C1780.57 144.919 1817.26 194.772 1801.14 253.085C1794.09 278.599 1766.82 329.093 1719.33 404.571Z" fill="url(#paint1_linear)"/>
<g opacity="0.3" filter="url(#filter1_d)">
<path d="M129.603 700.957C287.05 668.171 420.468 668.171 529.857 700.957C693.942 750.139 749.014 825.416 912.459 818.459C1075.9 811.502 1095.49 691.586 1306.84 700.957C1447.75 707.206 1582.1 614.848 1709.89 423.884C1750.72 842.339 1768.46 1051.97 1763.1 1052.78C1755.06 1054 857.044 1103.62 785.977 1093.89C714.91 1084.16 50.6892 1119.16 50.5029 1103.62C50.4256 1097.16 -142.442 931.366 -121.933 828.65C-113.671 787.274 -29.8264 744.71 129.603 700.957V700.957Z" fill="black"/>
</g>
<path d="M129.603 700.957C287.05 668.171 420.468 668.171 529.857 700.957C693.942 750.139 749.014 825.416 912.459 818.459C1075.9 811.502 1095.49 691.586 1306.84 700.957C1447.75 707.206 1582.1 614.848 1709.89 423.884C1750.72 842.339 1768.46 1051.97 1763.1 1052.78C1755.06 1054 857.044 1103.62 785.977 1093.89C714.91 1084.16 50.6892 1119.16 50.5029 1103.62C50.4256 1097.16 -142.442 931.366 -121.933 828.65C-113.671 787.274 -29.8264 744.71 129.603 700.957V700.957Z" fill="url(#paint2_linear)"/>
<path fill-rule="evenodd" clip-rule="evenodd" d="M307.968 765.009C306.457 765.509 307.1 767.977 308.632 767.85C308.954 767.823 309.259 767.683 309.497 767.469C309.554 767.439 309.613 767.41 309.666 767.37C310.894 766.421 309.111 764.629 307.968 765.009Z" fill="#92CDFA"/>
<path fill-rule="evenodd" clip-rule="evenodd" d="M1400.93 243.919C1401.14 243.899 1401.34 243.81 1401.5 243.665C1401.54 243.647 1401.58 243.625 1401.61 243.6C1402.43 242.967 1401.24 241.773 1400.48 242.025C1399.48 242.359 1399.9 244.004 1400.93 243.919V243.919Z" fill="#C7EBFF"/>
<path fill-rule="evenodd" clip-rule="evenodd" d="M246.123 630.28C245.347 630.537 245.678 631.802 246.464 631.736C246.628 631.72 246.784 631.652 246.907 631.541C246.936 631.527 246.966 631.512 246.994 631.491C247.623 631.004 246.708 630.085 246.123 630.28Z" fill="#92CDFA"/>
<path fill-rule="evenodd" clip-rule="evenodd" d="M1281.79 785.359C1281.79 785.735 1281.78 786.116 1281.69 786.482C1281.67 786.571 1281.36 787.46 1281.25 787.437C1280.5 787.286 1280.45 786.453 1280.36 785.99C1280.32 785.791 1280.3 785.59 1280.28 785.388C1279.87 785.39 1279.45 785.382 1279.05 785.284C1278.96 785.263 1278.02 784.959 1278.05 784.85C1278.21 784.095 1279.08 784.042 1279.57 783.955C1279.8 783.916 1280.02 783.889 1280.25 783.873V783.724C1280.24 783.397 1280.27 783.07 1280.35 782.752C1280.37 782.663 1280.67 781.772 1280.78 781.795C1281.53 781.944 1281.64 782.731 1281.7 783.198C1281.72 783.412 1281.74 783.628 1281.76 783.844H1281.96C1282.3 783.841 1282.65 783.86 1282.98 783.943C1283.08 783.964 1284.01 784.268 1283.99 784.379C1283.83 785.124 1283 785.231 1282.51 785.292C1282.27 785.322 1282.03 785.343 1281.79 785.359V785.359ZM925.121 503.076C925.122 503.453 925.111 503.834 925.018 504.199C924.995 504.288 924.691 505.177 924.582 505.154C923.827 505.004 923.775 504.171 923.687 503.707C923.65 503.508 923.624 503.307 923.608 503.106C923.197 503.108 922.781 503.1 922.382 503.002C922.288 502.98 921.353 502.676 921.376 502.567C921.534 501.812 922.413 501.76 922.901 501.673C923.125 501.633 923.35 501.606 923.575 501.59V501.442C923.566 501.115 923.599 500.788 923.674 500.469C923.697 500.38 924.001 499.49 924.11 499.512C924.856 499.661 924.964 500.448 925.025 500.915C925.052 501.13 925.073 501.346 925.088 501.562H925.287C925.629 501.559 925.976 501.578 926.312 501.661C926.407 501.682 927.343 501.986 927.32 502.097C927.163 502.841 926.333 502.948 925.842 503.01C925.602 503.039 925.361 503.06 925.121 503.076V503.076ZM1311.51 215.841C1311.52 216.218 1311.5 216.599 1311.41 216.964C1311.39 217.054 1311.08 217.942 1310.98 217.919C1310.22 217.769 1310.17 216.936 1310.08 216.472C1310.04 216.273 1310.02 216.073 1310 215.871C1309.59 215.873 1309.17 215.865 1308.78 215.767C1308.68 215.745 1307.75 215.441 1307.77 215.332C1307.93 214.577 1308.81 214.525 1309.3 214.438C1309.52 214.398 1309.74 214.371 1309.97 214.356V214.207C1309.96 213.88 1309.99 213.553 1310.07 213.234C1310.09 213.145 1310.4 212.255 1310.5 212.278C1311.25 212.426 1311.36 213.214 1311.42 213.68C1311.45 213.895 1311.47 214.111 1311.48 214.327H1311.68C1312.02 214.324 1312.37 214.343 1312.71 214.426C1312.8 214.447 1313.74 214.751 1313.71 214.862C1313.56 215.606 1312.73 215.713 1312.24 215.775C1312 215.805 1311.76 215.825 1311.51 215.841V215.841Z" fill="#D7D7FF"/>
<path fill-rule="evenodd" clip-rule="evenodd" d="M1213.05 644.287C1212.61 644.212 1212.17 644.179 1211.73 644.188H1211.28C1211.26 643.806 1211.24 643.425 1211.2 643.045C1211.14 642.414 1211.04 641.35 1210.29 641.149C1210.18 641.119 1209.88 642.321 1209.85 642.442C1209.78 642.876 1209.74 643.316 1209.75 643.756C1209.76 643.907 1209.76 644.06 1209.75 644.212C1209.39 644.225 1209.03 644.25 1208.67 644.301C1208.04 644.388 1206.92 644.439 1206.71 645.194C1206.68 645.303 1207.88 645.607 1208 645.629C1208.58 645.74 1209.19 645.736 1209.78 645.732C1209.79 646.094 1209.82 646.455 1209.87 646.816C1209.95 647.442 1210.01 648.569 1210.76 648.772C1210.87 648.801 1211.17 647.603 1211.2 647.482C1211.31 646.907 1211.3 646.302 1211.3 645.711C1211.68 645.697 1212.06 645.671 1212.44 645.637C1213.07 645.577 1214.14 645.468 1214.34 644.723C1214.37 644.613 1213.17 644.309 1213.05 644.287" fill="#71CEFC"/>
<path fill-rule="evenodd" clip-rule="evenodd" d="M961.778 885.396C961.779 885.772 961.769 886.154 961.675 886.519C961.653 886.608 961.348 887.497 961.239 887.474C960.485 887.323 960.433 886.49 960.345 886.027C960.308 885.828 960.282 885.627 960.266 885.426C959.854 885.428 959.438 885.42 959.04 885.322C958.946 885.3 958.011 884.996 958.033 884.887C958.192 884.132 959.071 884.08 959.559 883.992C959.783 883.953 960.008 883.926 960.233 883.91V883.762C960.224 883.434 960.257 883.107 960.332 882.789C960.355 882.7 960.659 881.809 960.768 881.832C961.514 881.981 961.622 882.768 961.682 883.235C961.71 883.45 961.731 883.665 961.746 883.881H961.945C962.287 883.878 962.633 883.897 962.969 883.98C963.064 884.001 964.001 884.305 963.978 884.416C963.82 885.161 962.991 885.268 962.5 885.329C962.26 885.359 962.019 885.38 961.778 885.396V885.396Z" fill="#D7D7FF"/>
<path fill-rule="evenodd" clip-rule="evenodd" d="M1516.69 590.687C1515.18 591.187 1515.82 593.655 1517.35 593.527C1517.67 593.501 1517.98 593.361 1518.22 593.147C1518.27 593.117 1518.33 593.088 1518.39 593.048C1519.61 592.099 1517.83 590.307 1516.69 590.687V590.687ZM1625.67 461.926C1624.16 462.426 1624.8 464.895 1626.33 464.767C1626.66 464.74 1626.96 464.601 1627.2 464.387C1627.26 464.357 1627.32 464.327 1627.37 464.288C1628.6 463.339 1626.81 461.547 1625.67 461.926V461.926ZM1417.61 343.07C1416.1 343.571 1416.74 346.039 1418.28 345.911C1418.6 345.884 1418.9 345.745 1419.14 345.531C1419.2 345.501 1419.26 345.471 1419.31 345.432C1420.54 344.483 1418.76 342.691 1417.61 343.07" fill="#C7EBFF"/>
<path fill-rule="evenodd" clip-rule="evenodd" d="M1583.59 272.862C1583.16 272.787 1582.71 272.754 1582.27 272.763H1581.82C1581.81 272.382 1581.78 272.001 1581.75 271.62C1581.69 270.989 1581.58 269.926 1580.83 269.725C1580.72 269.695 1580.42 270.896 1580.39 271.017C1580.32 271.451 1580.29 271.891 1580.3 272.331C1580.3 272.483 1580.3 272.636 1580.3 272.787C1579.93 272.801 1579.57 272.826 1579.21 272.876C1578.59 272.963 1577.46 273.015 1577.26 273.77C1577.23 273.879 1578.43 274.183 1578.55 274.204C1579.12 274.315 1579.73 274.311 1580.32 274.307C1580.33 274.67 1580.36 275.03 1580.41 275.392C1580.5 276.018 1580.55 277.144 1581.3 277.347C1581.41 277.377 1581.72 276.178 1581.74 276.058C1581.85 275.482 1581.84 274.878 1581.84 274.287C1582.22 274.273 1582.6 274.247 1582.99 274.212C1583.62 274.153 1584.68 274.044 1584.88 273.298C1584.91 273.188 1583.71 272.884 1583.59 272.862V272.862ZM745.412 675.982C744.977 675.907 744.537 675.874 744.096 675.883H743.642C743.628 675.501 743.603 675.12 743.568 674.74C743.508 674.109 743.4 673.045 742.654 672.844C742.543 672.814 742.239 674.016 742.217 674.137C742.142 674.57 742.109 675.011 742.118 675.451C742.12 675.602 742.12 675.755 742.118 675.907C741.757 675.92 741.394 675.945 741.036 675.996C740.409 676.083 739.282 676.134 739.078 676.889C739.048 676.998 740.249 677.302 740.369 677.324C740.946 677.435 741.55 677.431 742.141 677.427C742.156 677.789 742.18 678.15 742.231 678.511C742.318 679.137 742.369 680.264 743.124 680.467C743.233 680.496 743.537 679.298 743.56 679.177C743.669 678.602 743.666 677.997 743.663 677.406C744.046 677.392 744.426 677.366 744.807 677.332C745.439 677.272 746.502 677.163 746.705 676.418C746.733 676.308 745.533 676.004 745.412 675.982" fill="#71CEFC"/>
</g>
</g>
<defs>
<filter id="filter0_d" x="-19.7279" y="86.7689" width="1844.81" height="926.238" filterUnits="userSpaceOnUse" color-interpolation-filters="sRGB">
<feFlood flood-opacity="0" result="BackgroundImageFix"/>
<feColorMatrix in="SourceAlpha" type="matrix" values="0 0 0 0 0 0 0 0 0 0 0 0 0 0 0 0 0 0 127 0"/>
<feOffset dy="-4"/>
<feGaussianBlur stdDeviation="10"/>
<feColorMatrix type="matrix" values="0 0 0 0 0.0666667 0 0 0 0 0.196078 0 0 0 0 0.333333 0 0 0 0.294384 0"/>
<feBlend mode="normal" in2="BackgroundImageFix" result="effect1_dropShadow"/>
<feBlend mode="normal" in="SourceGraphic" in2="effect1_dropShadow" result="shape"/>
</filter>
<filter id="filter1_d" x="-221.46" y="333.884" width="2083.49" height="879.774" filterUnits="userSpaceOnUse" color-interpolation-filters="sRGB">
<feFlood flood-opacity="0" result="BackgroundImageFix"/>
<feColorMatrix in="SourceAlpha" type="matrix" values="0 0 0 0 0 0 0 0 0 0 0 0 0 0 0 0 0 0 127 0"/>
<feOffset dy="8"/>
<feGaussianBlur stdDeviation="49"/>
<feColorMatrix type="matrix" values="0 0 0 0 0.0313725 0 0 0 0 0.0980392 0 0 0 0 0.168627 0 0 0 0.531193 0"/>
<feBlend mode="normal" in2="BackgroundImageFix" result="effect1_dropShadow"/>
<feBlend mode="normal" in="SourceGraphic" in2="effect1_dropShadow" result="shape"/>
</filter>
<linearGradient id="paint0_linear" x1="-580.979" y1="366.174" x2="1291.71" y2="-820.367" gradientUnits="userSpaceOnUse">
<stop stop-color="#D7D7FF"/>
<stop offset="1" stop-color="#F8FAFB"/>
</linearGradient>
<linearGradient id="paint1_linear" x1="1352.4" y1="359.775" x2="1285.16" y2="1409.8" gradientUnits="userSpaceOnUse">
<stop stop-color="#0161CD"/>
<stop offset="1" stop-color="#0353A7"/>
</linearGradient>
<linearGradient id="paint2_linear" x1="1089.37" y1="256.455" x2="1086.58" y2="1224.77" gradientUnits="userSpaceOnUse">
<stop stop-color="#0161CD"/>
<stop offset="1" stop-color="#0353A7"/>
</linearGradient>
<clipPath id="clip0">
<rect width="1806" height="997" fill="white"/>
</clipPath>
</defs>
</svg>
