<svg id="Capa_1" enable-background="new 0 0 510 510" height="512" viewBox="0 0 510 510" width="512" xmlns="http://www.w3.org/2000/svg" xmlns:xlink="http://www.w3.org/1999/xlink"><linearGradient id="SVGID_1_" gradientUnits="userSpaceOnUse" x1="165.616" x2="359.803" y1="143.825" y2="338.012"><stop offset="0" stop-color="#ff755c"/><stop offset="1" stop-color="#ff4181"/></linearGradient><linearGradient id="lg1"><stop offset="0" stop-color="#843561" stop-opacity="0"/><stop offset="1" stop-color="#3a2f4d"/></linearGradient><linearGradient id="SVGID_2_" gradientUnits="userSpaceOnUse" x1="254.998" x2="254.998" xlink:href="#lg1" y1="343.933" y2="502.524"/><linearGradient id="SVGID_3_" gradientUnits="userSpaceOnUse" x1="181.006" x2="42.006" xlink:href="#lg1" y1="324.843" y2="56.843"/><linearGradient id="lg2"><stop offset="0" stop-color="#fff5d9"/><stop offset="1" stop-color="#ffce47"/></linearGradient><linearGradient id="SVGID_4_" gradientUnits="userSpaceOnUse" x1="64.392" x2="92.413" xlink:href="#lg2" y1="219.075" y2="247.096"/><linearGradient id="lg3"><stop offset="0" stop-color="#ff9356" stop-opacity="0"/><stop offset="1" stop-color="#ff755c"/></linearGradient><linearGradient id="SVGID_5_" gradientUnits="userSpaceOnUse" x1="95.787" x2="33.095" xlink:href="#lg3" y1="224.654" y2="224.654"/><linearGradient id="SVGID_6_" gradientUnits="userSpaceOnUse" x1="71.177" x2="85.556" xlink:href="#lg3" y1="233.567" y2="186.616"/><linearGradient id="SVGID_7_" gradientUnits="userSpaceOnUse" x1="84.151" x2="60.676" xlink:href="#lg3" y1="237.343" y2="185.99"/><linearGradient id="SVGID_8_" gradientUnits="userSpaceOnUse" x1="285.025" x2="147.025" xlink:href="#lg1" y1="315.502" y2="91.502"/><linearGradient id="SVGID_9_" gradientUnits="userSpaceOnUse" x1="184.118" x2="212.139" xlink:href="#lg2" y1="219.075" y2="247.096"/><linearGradient id="SVGID_10_" gradientUnits="userSpaceOnUse" x1="215.513" x2="152.822" xlink:href="#lg3" y1="224.654" y2="224.654"/><linearGradient id="SVGID_11_" gradientUnits="userSpaceOnUse" x1="190.903" x2="205.282" xlink:href="#lg3" y1="233.567" y2="186.616"/><linearGradient id="SVGID_12_" gradientUnits="userSpaceOnUse" x1="203.878" x2="180.402" xlink:href="#lg3" y1="237.343" y2="185.99"/><linearGradient id="SVGID_13_" gradientUnits="userSpaceOnUse" x1="393.012" x2="280.012" xlink:href="#lg1" y1="317.378" y2="112.378"/><linearGradient id="SVGID_14_" gradientUnits="userSpaceOnUse" x1="303.845" x2="331.866" xlink:href="#lg2" y1="219.075" y2="247.096"/><linearGradient id="SVGID_15_" gradientUnits="userSpaceOnUse" x1="335.24" x2="272.548" xlink:href="#lg3" y1="224.654" y2="224.654"/><linearGradient id="SVGID_16_" gradientUnits="userSpaceOnUse" x1="310.63" x2="325.009" xlink:href="#lg3" y1="233.567" y2="186.616"/><linearGradient id="SVGID_17_" gradientUnits="userSpaceOnUse" x1="323.604" x2="300.128" xlink:href="#lg3" y1="237.343" y2="185.99"/><linearGradient id="SVGID_18_" gradientUnits="userSpaceOnUse" x1="483.771" x2="370.771" xlink:href="#lg1" y1="291.055" y2="132.055"/><linearGradient id="SVGID_19_" gradientUnits="userSpaceOnUse" x1="423.571" x2="451.592" xlink:href="#lg2" y1="219.075" y2="247.096"/><linearGradient id="SVGID_20_" gradientUnits="userSpaceOnUse" x1="454.966" x2="392.275" xlink:href="#lg3" y1="224.654" y2="224.654"/><linearGradient id="SVGID_21_" gradientUnits="userSpaceOnUse" x1="430.356" x2="444.735" xlink:href="#lg3" y1="233.567" y2="186.616"/><linearGradient id="SVGID_22_" gradientUnits="userSpaceOnUse" x1="443.33" x2="419.855" xlink:href="#lg3" y1="237.343" y2="185.99"/><g><g><path d="m510 233.208c0-110.283-114.167-199.684-254.999-199.685-141.249 0-255.001 89.077-255.001 199.686 0 108.362 110.226 196.564 247.667 199.603 4.08.09 7.333 2.693 7.333 5.89v27.153c0 9.443 14.58 14.172 23.106 7.495l50.398-39.465c10.832-8.483 23.372-15.528 37.169-20.741 85.4-32.269 144.327-100.709 144.327-179.936z" fill="url(#SVGID_1_)"/><path d="m30.223 327.57c41.925 61.112 123.295 103.16 217.444 105.242 4.08.09 7.333 2.693 7.333 5.89v27.153c0 9.443 14.58 14.172 23.106 7.495l50.398-39.465c10.832-8.483 23.372-15.528 37.169-20.741 48.606-18.365 88.628-48.452 114.099-85.573h-449.549z" fill="url(#SVGID_2_)"/></g><g><g><path d="m344.41 423.189c-5.63 3.23-10.95 6.81-15.91 10.69l-3.1 2.42-47.29 37.05c-8.53 6.68-23.11 1.95-23.11-7.49v-27.16c0-3.19-3.25-5.8-7.33-5.89-17.35-.38-34.27-2.12-50.58-5.1l-151.79-151.78c-4.32-2.29-6.36-7.13-5.4-12.73l2.89-16.87c.56-3.25-1.14-7.43-3.06-10.04l-12.67-13.47c-7.16-6.98-4.09-17.39 5.81-18.83l16.94-2.46c3.93-.57 8.21-3.92 9.97-7.48l7.58-15.35c4.38-8.88 16.06-8.97 20.61-.28l24.91 24.16 8.85 1.41c4.16.61 7.27 2.24 8.95 5.46l31.03 31.03z" fill="url(#SVGID_3_)"/><g><path d="m88.125 178.698 7.575 15.348c1.758 3.563 5.157 6.032 9.089 6.604l16.937 2.461c9.901 1.439 13.855 13.606 6.69 20.59l-12.256 11.947c-2.845 2.773-4.143 6.769-3.472 10.685l2.893 16.869c1.691 9.861-8.659 17.381-17.515 12.725l-15.149-7.964c-3.517-1.849-7.718-1.849-11.235 0l-15.149 7.964c-8.856 4.656-19.206-2.864-17.515-12.725l2.893-16.869c.672-3.916-.627-7.912-3.472-10.685l-12.256-11.947c-7.165-6.984-3.211-19.151 6.69-20.59l16.937-2.461c3.932-.571 7.331-3.041 9.089-6.604l7.575-15.348c4.429-8.972 17.223-8.972 21.651 0z" fill="url(#SVGID_4_)"/><path d="m82.917 267.962 15.149 7.964c8.856 4.656 19.206-2.864 17.515-12.725l-2.893-16.869c-.672-3.916.627-7.912 3.472-10.685l12.256-11.947c7.165-6.984 3.211-19.151-6.69-20.59l-16.937-2.461c-3.932-.571-7.331-3.041-9.089-6.604l-7.575-15.348c-2.214-4.486-6.519-6.729-10.825-6.729v94.606c1.929.001 3.859.463 5.617 1.388z" fill="url(#SVGID_5_)"/><g><path d="m98.067 275.925-15.151-7.967c-3.513-1.849-7.721-1.849-11.233 0l-15.151 7.967c-8.856 4.657-19.209-2.861-17.51-12.721l2.888-16.876c.29-1.673.211-3.372-.185-4.974-.537-2.139-1.655-4.12-3.284-5.705l-12.254-11.946c-3.847-3.75-4.49-8.997-2.729-13.267l53.842 18.62 35.574 12.298c-.396 1.602-.475 3.301-.185 4.974l2.888 16.876c1.699 9.86-8.654 17.378-17.51 12.721z" fill="url(#SVGID_6_)"/><path d="m128.412 223.703-12.254 11.946c-1.629 1.585-2.747 3.565-3.284 5.705-.396 1.602-.475 3.301-.185 4.974l2.888 16.876c1.699 9.86-8.654 17.378-17.51 12.721l-15.151-7.967c-3.513-1.849-7.721-1.849-11.233 0l-15.151 7.967c-8.856 4.657-19.209-2.861-17.51-12.721l2.888-16.876c.29-1.673.211-3.372-.185-4.974l35.575-12.298 53.842-18.619c1.76 4.269 1.117 9.516-2.73 13.266z" fill="url(#SVGID_7_)"/></g></g></g><g><path d="m423.81 382.859c-6.31 4.37-12.9 8.5-19.75 12.37-12.05 6.81-24.89 12.81-38.39 17.91-7.48 2.83-14.59 6.2-21.26 10.05-5.63 3.23-10.95 6.81-15.91 10.69l-3.1 2.42-160.37-160.37c-4.33-2.29-6.36-7.13-5.4-12.73l2.89-16.87c.31-1.81-.08-3.9-.81-5.85-.59-1.56-1.4-3.03-2.25-4.19l-12.67-13.47c-7.16-6.98-4.09-17.39 5.81-18.83l16.94-2.46c3.93-.57 8.21-3.92 9.97-7.48l7.57-15.35c4.38-8.88 16.07-8.97 20.62-.28l24.91 24.16 8.84 1.41c4.17.61 7.28 2.24 8.95 5.46z" fill="url(#SVGID_8_)"/><g><path d="m207.851 178.698 7.575 15.348c1.758 3.563 5.157 6.032 9.089 6.604l16.937 2.461c9.901 1.439 13.855 13.606 6.69 20.59l-12.256 11.947c-2.845 2.773-4.143 6.769-3.472 10.685l2.893 16.869c1.691 9.861-8.659 17.381-17.515 12.725l-15.149-7.964c-3.517-1.849-7.718-1.849-11.235 0l-15.149 7.964c-8.856 4.656-19.206-2.864-17.515-12.725l2.893-16.869c.672-3.916-.627-7.912-3.472-10.685l-12.256-11.947c-7.165-6.984-3.211-19.151 6.69-20.59l16.937-2.461c3.932-.571 7.331-3.041 9.089-6.604l7.575-15.348c4.429-8.972 17.223-8.972 21.651 0z" fill="url(#SVGID_9_)"/><path d="m202.643 267.962 15.149 7.964c8.856 4.656 19.206-2.864 17.515-12.725l-2.893-16.869c-.672-3.916.627-7.912 3.472-10.685l12.256-11.947c7.165-6.984 3.211-19.151-6.69-20.59l-16.937-2.461c-3.932-.571-7.331-3.041-9.089-6.604l-7.575-15.348c-2.214-4.486-6.519-6.729-10.825-6.729v94.606c1.93.001 3.859.463 5.617 1.388z" fill="url(#SVGID_10_)"/><g><path d="m217.793 275.925-15.151-7.967c-3.513-1.849-7.721-1.849-11.233 0l-15.151 7.967c-8.856 4.657-19.209-2.861-17.51-12.721l2.888-16.876c.29-1.673.211-3.372-.185-4.974-.537-2.139-1.655-4.12-3.284-5.705l-12.254-11.946c-3.847-3.75-4.49-8.997-2.729-13.267l53.842 18.619 35.574 12.298c-.396 1.602-.475 3.301-.185 4.974l2.888 16.876c1.699 9.861-8.653 17.379-17.51 12.722z" fill="url(#SVGID_11_)"/><path d="m248.139 223.703-12.254 11.946c-1.629 1.585-2.747 3.565-3.284 5.705-.396 1.602-.475 3.301-.185 4.974l2.888 16.876c1.699 9.86-8.654 17.378-17.51 12.721l-15.151-7.967c-3.513-1.849-7.721-1.849-11.233 0l-15.151 7.967c-8.856 4.657-19.209-2.861-17.51-12.721l2.888-16.876c.29-1.673.211-3.372-.185-4.974l35.574-12.298 53.842-18.619c1.76 4.269 1.118 9.516-2.729 13.266z" fill="url(#SVGID_12_)"/></g></g></g><g><path d="m483.16 322.479c-4.09 6.4-8.61 12.6-13.54 18.59-12.76 15.54-28.2 29.61-45.81 41.79-6.31 4.37-12.9 8.5-19.75 12.37l-119.31-119.3c-4.32-2.29-6.36-7.13-5.4-12.73l2.89-16.87c.31-1.81-.08-3.9-.81-5.85-.59-1.56-1.39-3.03-2.24-4.19l-12.67-13.47c-7.17-6.98-4.09-17.39 5.81-18.83l16.93-2.46c3.94-.57 8.22-3.92 9.97-7.48l7.58-15.35c4.38-8.88 16.06-8.97 20.62-.28l24.9 24.16 8.85 1.41c4.17.61 7.28 2.24 8.95 5.46z" fill="url(#SVGID_13_)"/><g><path d="m327.577 178.698 7.575 15.348c1.758 3.563 5.157 6.032 9.089 6.604l16.937 2.461c9.901 1.439 13.855 13.606 6.69 20.59l-12.256 11.947c-2.845 2.773-4.143 6.769-3.472 10.685l2.893 16.869c1.691 9.861-8.659 17.381-17.515 12.725l-15.149-7.964c-3.517-1.849-7.718-1.849-11.235 0l-15.149 7.964c-8.856 4.656-19.206-2.864-17.515-12.725l2.893-16.869c.672-3.916-.627-7.912-3.472-10.685l-12.256-11.947c-7.165-6.984-3.211-19.151 6.69-20.59l16.937-2.461c3.932-.571 7.331-3.041 9.089-6.604l7.575-15.348c4.429-8.972 17.223-8.972 21.651 0z" fill="url(#SVGID_14_)"/><path d="m322.37 267.962 15.149 7.964c8.856 4.656 19.206-2.864 17.515-12.725l-2.893-16.869c-.672-3.916.627-7.912 3.472-10.685l12.256-11.947c7.165-6.984 3.211-19.151-6.69-20.59l-16.937-2.461c-3.932-.571-7.331-3.041-9.089-6.604l-7.575-15.348c-2.214-4.486-6.52-6.729-10.825-6.729v94.606c1.929.001 3.858.463 5.617 1.388z" fill="url(#SVGID_15_)"/><g><path d="m337.52 275.925-15.151-7.967c-3.513-1.849-7.721-1.849-11.233 0l-15.151 7.967c-8.856 4.657-19.209-2.861-17.51-12.721l2.888-16.876c.29-1.673.211-3.372-.185-4.974-.537-2.139-1.655-4.12-3.284-5.705l-12.254-11.946c-3.847-3.75-4.49-8.997-2.729-13.267l53.842 18.619 35.574 12.298c-.396 1.602-.475 3.301-.185 4.974l2.888 16.876c1.699 9.861-8.654 17.379-17.51 12.722z" fill="url(#SVGID_16_)"/><path d="m367.865 223.703-12.254 11.946c-1.629 1.585-2.747 3.565-3.284 5.705-.396 1.602-.475 3.301-.185 4.974l2.888 16.876c1.699 9.86-8.654 17.378-17.51 12.721l-15.151-7.967c-3.513-1.849-7.721-1.849-11.233 0l-15.151 7.967c-8.856 4.657-19.209-2.861-17.51-12.721l2.888-16.876c.29-1.673.211-3.372-.185-4.974l35.575-12.298 53.842-18.619c1.76 4.269 1.117 9.516-2.73 13.266z" fill="url(#SVGID_17_)"/></g></g></g><g><path d="m510 233.209c0 32.08-9.66 62.4-26.84 89.27-4.09 6.4-8.61 12.6-13.54 18.59l-65.14-65.14c-4.32-2.29-6.36-7.13-5.4-12.73l2.89-16.87c.31-1.81-.08-3.9-.81-5.85-.59-1.56-1.4-3.03-2.25-4.19l-12.67-13.47c-7.16-6.98-4.09-17.39 5.81-18.83l16.94-2.46c3.93-.57 8.21-3.92 9.97-7.48l7.57-15.35c4.39-8.88 16.07-8.97 20.62-.28l24.91 24.16 8.84 1.41c4.17.61 7.28 2.24 8.96 5.46l20.09 20.1c.04 1.22.05 2.44.05 3.66z" fill="url(#SVGID_18_)"/><g><path d="m447.304 178.698 7.575 15.348c1.758 3.563 5.157 6.032 9.089 6.604l16.937 2.461c9.901 1.439 13.855 13.606 6.69 20.59l-12.256 11.947c-2.845 2.773-4.143 6.769-3.472 10.685l2.893 16.869c1.691 9.861-8.659 17.381-17.515 12.725l-15.149-7.964c-3.517-1.849-7.718-1.849-11.235 0l-15.149 7.964c-8.856 4.656-19.206-2.864-17.515-12.725l2.893-16.869c.672-3.916-.627-7.912-3.472-10.685l-12.256-11.947c-7.165-6.984-3.211-19.151 6.69-20.59l16.937-2.461c3.932-.571 7.331-3.041 9.089-6.604l7.575-15.348c4.429-8.972 17.223-8.972 21.651 0z" fill="url(#SVGID_19_)"/><path d="m442.096 267.962 15.149 7.964c8.856 4.656 19.206-2.864 17.515-12.725l-2.893-16.869c-.672-3.916.627-7.912 3.472-10.685l12.256-11.947c7.165-6.984 3.211-19.151-6.69-20.59l-16.937-2.461c-3.932-.571-7.331-3.041-9.089-6.604l-7.575-15.348c-2.214-4.486-6.519-6.729-10.825-6.729v94.606c1.929.001 3.859.463 5.617 1.388z" fill="url(#SVGID_20_)"/><g><path d="m457.246 275.925-15.151-7.967c-3.513-1.849-7.721-1.849-11.233 0l-15.151 7.967c-8.856 4.657-19.209-2.861-17.51-12.721l2.888-16.876c.29-1.673.211-3.372-.185-4.974-.537-2.139-1.655-4.12-3.284-5.705l-12.254-11.946c-3.847-3.75-4.49-8.997-2.729-13.267l53.842 18.619 35.574 12.298c-.396 1.602-.475 3.301-.185 4.974l2.888 16.876c1.699 9.861-8.654 17.379-17.51 12.722z" fill="url(#SVGID_21_)"/><path d="m487.591 223.703-12.254 11.946c-1.629 1.585-2.747 3.565-3.284 5.705-.396 1.602-.475 3.301-.185 4.974l2.888 16.876c1.699 9.86-8.654 17.378-17.51 12.721l-15.151-7.967c-3.513-1.849-7.721-1.849-11.233 0l-15.151 7.967c-8.856 4.657-19.209-2.861-17.51-12.721l2.888-16.876c.29-1.673.211-3.372-.185-4.974l35.574-12.298 53.842-18.619c1.761 4.269 1.118 9.516-2.729 13.266z" fill="url(#SVGID_22_)"/></g></g></g></g></g></svg>