<svg width="454" height="453" viewBox="0 0 454 453" fill="none" xmlns="http://www.w3.org/2000/svg">
<path d="M422.316 52.1796C362.356 -14.151 250.014 -3.91618 197.8 10.0019C161.883 19.6123 141.174 51.28 116.062 55.1326C40.3976 66.7751 -9.37146 105.375 2.4385 171.209C14.2485 237.042 76.8222 257.744 107.511 353.096C138.2 448.449 214.012 464.124 294.47 431.832C374.928 399.54 389.447 374.476 408.496 284.713C427.544 194.949 491.038 128.152 422.316 52.1796Z" fill="#2C8CF4"/>
<path opacity="0.7" d="M422.316 52.1796C362.356 -14.151 250.014 -3.91618 197.8 10.0019C161.883 19.6123 141.174 51.28 116.062 55.1326C40.3976 66.7751 -9.37146 105.375 2.4385 171.209C14.2485 237.042 76.8222 257.744 107.511 353.096C138.2 448.449 214.012 464.124 294.47 431.832C374.928 399.54 389.447 374.476 408.496 284.713C427.544 194.949 491.038 128.152 422.316 52.1796Z" fill="white"/>
<path d="M155.143 132.661C168.762 130.544 168.476 101.523 144.444 93.066C120.411 84.6093 132.803 65.7802 144.719 69.9397C156.635 74.0993 156.836 101.893 174.784 104.37C192.731 106.847 196.509 70.9452 186.646 59.3873C176.784 47.8295 196.911 52.6029 199.345 49.1313C203.229 43.5218 190.318 16.5958 204.404 18.9772C211.377 20.152 204.065 37.4782 209.282 63.2294C214.499 88.9805 220.753 101.798 232.563 88.102C244.373 74.4062 231.368 63.6633 240.024 57.1541C248.68 50.6449 255.665 56.572 254.839 64.7535C254.014 72.935 253.654 80.9789 259.39 78.0471C265.125 75.1153 274.565 61.4195 279.253 50.6555C283.941 39.8914 289.274 40.5794 289.708 48.6021C290.142 56.6249 268.808 74.0887 268.258 86.0381C267.708 97.9876 276.025 119.632 294.925 105.238C313.826 90.8433 318.207 85.6042 324.747 93.2988C331.287 100.993 326.429 113.589 337.128 113.409C347.827 113.229 361.161 84.7575 367.891 86.9484C374.621 89.1393 387.331 95.331 364.198 108.117C341.065 120.902 333.223 120.352 334.25 134.302C335.276 148.252 389.458 149.913 383.987 159.164C378.516 168.414 317.889 167.303 311.561 190.091C305.233 212.878 338.017 209.396 332.281 222.15C326.546 234.904 313.233 216.688 301.201 205.924C289.169 195.16 288.915 203.215 278.332 206.612C267.75 210.01 265.432 203.977 258.638 202.262C251.845 200.548 255.993 214.487 245.77 213.005C235.548 211.523 242.596 209.428 235.675 206.771C228.754 204.114 222.775 230.511 207.896 226.394C193.017 222.277 183.969 210.253 174.657 218.742C165.344 227.23 172.148 245.255 158.868 244.006C145.587 242.757 150.296 230.374 155.915 228.934C161.534 227.495 176.71 207.131 174.085 199.299C171.461 191.466 146.158 212.328 140.761 201.606C135.364 190.884 130.687 181.687 117.734 184.915C104.781 188.143 102.802 170.097 112.94 170.372C123.078 170.648 146.603 172.415 148.444 163.927C150.285 155.438 144.274 145.934 128.274 137.921C112.273 129.909 127.978 113.705 139.227 122.659C150.476 131.613 144.37 134.291 155.143 132.661Z" fill="#2C8CF4"/>
<path d="M44.1332 264.656L35.0852 245.371H68.4409L44.1332 264.656Z" stroke="#263238" stroke-linecap="round" stroke-linejoin="round"/>
<path d="M188.202 131.137L192.382 142.377L173.662 140.822L188.202 131.137Z" stroke="#263238" stroke-linecap="round" stroke-linejoin="round"/>
<path d="M193.049 15.7385L203.07 20.5861L193.049 25.4865L203.07 31.6888L193.049 38.3991L204.287 43.5959L195.43 51.8515" stroke="#263238" stroke-linecap="round" stroke-linejoin="round"/>
<path d="M391.723 312.93L388.347 333.516H409.893L411.575 327.176L397.225 327.049L399.966 312.051L391.723 312.93Z" stroke="#263238" stroke-linecap="round" stroke-linejoin="round"/>
<path d="M352.691 378.841C356.237 375.295 356.237 369.545 352.691 365.998C349.145 362.452 343.396 362.452 339.85 365.998C336.305 369.545 336.305 375.295 339.85 378.841C343.396 382.387 349.145 382.387 352.691 378.841Z" stroke="#263238" stroke-linecap="round" stroke-linejoin="round"/>
<path d="M130.845 82.8418C135.86 82.8418 139.925 78.776 139.925 73.7606C139.925 68.7452 135.86 64.6794 130.845 64.6794C125.831 64.6794 121.766 68.7452 121.766 73.7606C121.766 78.776 125.831 82.8418 130.845 82.8418Z" stroke="#263238" stroke-linecap="round" stroke-linejoin="round"/>
<path d="M409.3 227.77L429.301 239.211" stroke="#263238" stroke-linecap="round" stroke-linejoin="round"/>
<path d="M423.152 227.262L415.448 242.429" stroke="#263238" stroke-linecap="round" stroke-linejoin="round"/>
<path d="M313.064 158.486L291.401 166.35" stroke="#263238" stroke-linecap="round" stroke-linejoin="round"/>
<path d="M304.492 169.378L297.899 153.692" stroke="#263238" stroke-linecap="round" stroke-linejoin="round"/>
<path d="M107.723 238.989C107.575 239.391 123.469 232.12 123.469 232.12L131.237 249.912L115.48 256.781L107.723 238.989Z" stroke="#263238" stroke-linecap="round" stroke-linejoin="round"/>
<path d="M325.805 215.154C325.636 215.154 330.038 220.446 330.038 220.446L324.101 225.188L319.868 219.895L325.805 215.154Z" stroke="#263238" stroke-linecap="round" stroke-linejoin="round"/>
<path d="M35.0852 165.779C35.0852 166.581 34.8475 167.364 34.4022 168.031C33.9568 168.698 33.3238 169.217 32.5832 169.524C31.8426 169.831 31.0277 169.911 30.2415 169.755C29.4553 169.598 28.7331 169.212 28.1662 168.645C27.5994 168.078 27.2134 167.356 27.057 166.57C26.9006 165.783 26.9809 164.968 27.2876 164.228C27.5944 163.487 28.1139 162.854 28.7804 162.408C29.447 161.963 30.2306 161.725 31.0322 161.725C31.5648 161.724 32.0925 161.828 32.5849 162.031C33.0772 162.234 33.5246 162.533 33.9012 162.909C34.2779 163.286 34.5764 163.734 34.7796 164.226C34.9828 164.718 35.0866 165.246 35.0852 165.779V165.779Z" stroke="#263238" stroke-linecap="round" stroke-linejoin="round"/>
<path d="M280.449 19.7817C280.451 20.5839 280.215 21.3686 279.771 22.0367C279.327 22.7047 278.694 23.2259 277.954 23.5343C277.214 23.8428 276.398 23.9246 275.611 23.7694C274.824 23.6141 274.101 23.2289 273.533 22.6624C272.966 22.0959 272.578 21.3736 272.421 20.587C272.264 19.8004 272.344 18.9847 272.65 18.2434C272.956 17.5021 273.476 16.8683 274.143 16.4224C274.809 15.9765 275.594 15.7385 276.396 15.7385C277.469 15.7385 278.498 16.1642 279.258 16.9221C280.018 17.68 280.446 18.7084 280.449 19.7817V19.7817Z" stroke="#263238" stroke-linecap="round" stroke-linejoin="round"/>
<path d="M331.509 264.01L335.816 271.207L327.011 271.895L329.35 278.627L319.593 279.368L324.334 292.291" stroke="#263238" stroke-linecap="round" stroke-linejoin="round"/>
<path d="M103.204 322.657L110.802 327.229L100.633 335.527L107.003 339.549L98.8125 348.63" stroke="#263238" stroke-linecap="round" stroke-linejoin="round"/>
<path d="M322.778 91.0234L316.513 84.7364L328.397 79.1586L323.202 73.7078L333.35 66.8916" stroke="#263238" stroke-linecap="round" stroke-linejoin="round"/>
<path d="M77.9652 94.5269C77.9652 94.5269 123.279 161.207 187.154 172.373" stroke="#263238" stroke-linecap="round" stroke-linejoin="round"/>
<path d="M66.4727 108.678C66.4727 108.678 131.374 176.554 183.027 180.385" stroke="#263238" stroke-linecap="round" stroke-linejoin="round"/>
<path d="M61.245 130.068C61.245 130.068 127.374 186.281 177.715 189.456" stroke="#263238" stroke-linecap="round" stroke-linejoin="round"/>
<path d="M61.245 153.375C61.245 153.375 115.914 195.362 173.725 196.06" stroke="#263238" stroke-linecap="round" stroke-linejoin="round"/>
<path d="M117.226 124.745C115.596 123.034 114.529 120.866 114.168 118.532C113.954 117.362 113.919 116.166 114.062 114.986L99.5956 141.139C98.8513 138.796 97.4344 136.724 95.5214 135.18C91.4366 131.741 86.2935 131.116 84.0395 133.805C81.7854 136.493 83.267 141.446 87.3518 144.886C91.4366 148.326 96.5796 148.94 98.8442 146.262C99.1869 145.845 99.4488 145.367 99.6168 144.854L111.003 124.247C112.123 126.118 113.623 127.733 115.406 128.989C116.61 129.843 117.547 131.022 118.109 132.387C118.671 133.753 118.835 135.25 118.58 136.705C118.697 136.355 121.882 129.624 117.226 124.745Z" fill="#263238"/>
<path d="M124.962 170.627C123.58 169.168 122.679 167.321 122.38 165.335C122.197 164.347 122.165 163.337 122.284 162.339L110.072 184.492C109.445 182.511 108.249 180.759 106.633 179.454C103.183 176.543 98.8337 176.024 96.9289 178.289C95.0241 180.555 96.2728 184.746 99.7332 187.656C103.194 190.567 107.532 191.086 109.437 188.821C109.729 188.47 109.951 188.068 110.093 187.635L119.723 170.214C120.67 171.794 121.939 173.158 123.448 174.215C124.46 174.943 125.244 175.943 125.71 177.099C126.177 178.254 126.306 179.519 126.083 180.745C126.21 180.449 128.898 174.754 124.962 170.627Z" fill="#263238"/>
<path d="M169.894 166.393C168.883 165.289 168.122 163.98 167.662 162.556C167.201 161.131 167.053 159.624 167.228 158.137L154.994 180.269C154.366 178.283 153.166 176.527 151.545 175.22C148.095 172.309 143.745 171.791 141.841 174.056C139.936 176.321 141.184 180.523 144.645 183.423C148.105 186.323 152.444 186.863 154.349 184.587C154.64 184.237 154.863 183.835 155.005 183.402L164.646 165.98C165.585 167.563 166.851 168.927 168.36 169.981C169.371 170.71 170.156 171.709 170.624 172.865C171.093 174.02 171.225 175.284 171.006 176.511C171.143 176.215 173.831 170.51 169.894 166.393Z" fill="#263238"/>
<path d="M331.9 130.418C319.381 160.328 335.604 192.112 370.727 196.78C405.85 201.448 423.565 176.755 408.496 168.954C393.426 161.154 395.268 149.681 391.797 124.808C388.326 99.9353 344.398 100.549 331.9 130.418ZM388.389 155.893C373.246 167.684 376.749 147.426 382.188 145.606C387.627 143.785 394.082 151.49 388.389 155.893Z" fill="#999999" stroke="#263238" stroke-linecap="round" stroke-linejoin="round"/>
<path d="M377.997 117.621C374.315 116.859 371.902 121.516 368.992 122.913C370.431 125.518 372.025 128.035 373.764 130.449C374.023 130.146 374.349 129.908 374.717 129.753C375.084 129.599 375.483 129.533 375.881 129.56C376.462 129.659 377.035 129.8 377.595 129.984C378.364 130.154 379.167 130.095 379.903 129.814C380.639 129.533 381.277 129.042 381.738 128.403C382.198 127.763 382.461 127.002 382.494 126.215C382.527 125.428 382.329 124.648 381.923 123.972C381.69 123.591 381.394 123.167 381.521 122.744C381.648 122.321 382.209 122.088 382.336 121.686C382.378 121.375 382.298 121.061 382.114 120.807C381.692 120.015 381.106 119.322 380.397 118.773C379.687 118.224 378.869 117.831 377.997 117.621Z" fill="#2C8CF4" stroke="#263238" stroke-linecap="round" stroke-linejoin="round"/>
<path d="M355.711 122.67C353.679 122.257 351.404 122.352 349.774 121.072C349.446 120.728 349.039 120.47 348.589 120.32C348.019 120.301 347.464 120.507 347.044 120.892C344.983 122.122 343.205 123.774 341.827 125.739C340.599 127.793 340.387 130.64 341.975 132.428C342.853 133.413 344.261 134.143 344.356 135.456C344.451 136.768 341.753 140.144 345.022 140.419C346.075 140.393 347.094 140.046 347.943 139.425C349.531 138.514 351.742 139.022 353.055 137.922C354.176 136.958 353.107 134.969 354.917 134.334C356.081 133.921 358.6 135.223 358.917 133.275C359.129 131.878 357.15 131.381 356.674 130.291C356.539 129.881 356.528 129.441 356.64 129.026C356.753 128.61 356.986 128.236 357.309 127.951C357.97 127.404 358.732 126.99 359.552 126.734C359.986 124.649 357.7 123.072 355.711 122.67Z" fill="#2C8CF4" stroke="#263238" stroke-linecap="round" stroke-linejoin="round"/>
<path d="M354.737 152.835C354.282 152.475 351.88 153.332 350.843 152.21C346.758 147.807 336.355 163.059 343.128 165.493C343.595 165.603 344.038 165.793 344.44 166.054C345.848 167.229 344.091 169.939 345.403 171.219C346.716 172.5 348.504 170.87 350.165 170.944C350.789 171.077 351.423 171.158 352.06 171.188C352.911 170.973 353.648 170.443 354.123 169.706C355.816 167.684 357.774 165.112 357.467 162.297C357.245 160.18 355.742 157.926 355.076 155.946C354.525 154.316 356.092 154.221 354.737 152.835Z" fill="#2C8CF4" stroke="#263238" stroke-linecap="round" stroke-linejoin="round"/>
<path d="M374.166 175.844C373.431 174.991 372.779 174.07 372.219 173.093C371.531 172.214 370.209 171.568 369.298 172.235C368.875 172.542 368.611 173.093 368.103 173.23C367.691 173.271 367.275 173.206 366.896 173.04C366.322 172.883 365.714 172.897 365.148 173.081C364.581 173.265 364.081 173.61 363.708 174.074C363.335 174.538 363.105 175.101 363.048 175.694C362.99 176.287 363.106 176.883 363.383 177.411C364.674 179.909 365.817 187.117 368.134 186.651C369.923 186.28 371.447 188.588 373.087 188.164C375.807 187.476 377.711 179.041 375.828 177.083C375.352 176.585 374.685 176.3 374.166 175.844Z" fill="#2C8CF4" stroke="#263238" stroke-linecap="round" stroke-linejoin="round"/>
<path d="M396.622 177.559C395.556 177.072 394.448 176.686 393.31 176.406C392.29 176.054 391.196 175.974 390.135 176.173C389.6 176.292 389.132 176.615 388.83 177.073C388.527 177.531 388.415 178.089 388.516 178.628C388.664 179.094 389.024 179.475 389.183 179.93C389.797 181.676 386.558 184.788 389.426 185.794C391.86 186.64 396.379 186.185 398.315 184.322C401.628 181.063 399.437 178.872 396.622 177.559Z" fill="#2C8CF4" stroke="#263238" stroke-linecap="round" stroke-linejoin="round"/>
<path d="M410.147 138.43L413.745 133.773L418.591 136.853L415.036 142.028L410.147 138.43Z" fill="#BFBFBF" stroke="#263238" stroke-linecap="round" stroke-linejoin="round"/>
<path d="M409.787 137.096C389.945 166.425 378.145 187.307 372.748 197.299C372.631 197.507 372.596 197.753 372.652 197.986C372.707 198.219 372.849 198.423 373.048 198.557C373.247 198.69 373.489 198.744 373.726 198.707C373.962 198.67 374.176 198.545 374.325 198.357C380.675 190.842 393.638 174.511 415.978 142.134C417.173 140.494 410.919 135.477 409.787 137.096Z" fill="#263238"/>
<path d="M413.332 133.603C414.341 135.266 415.787 136.62 417.512 137.519C417.512 137.519 426.888 137.519 429.66 126.628C432.433 115.737 437.777 113.409 437.777 113.409C437.444 113.128 437.048 112.931 436.622 112.835C436.197 112.739 435.754 112.747 435.333 112.858L436.634 111.408C435.949 111.108 435.196 110.995 434.452 111.08C433.708 111.166 433.001 111.447 432.401 111.895L432.729 109.778C431.584 111.683 429.769 113.091 427.639 113.726C424.274 114.478 409.882 120.437 413.332 133.603Z" fill="white"/>
<path d="M429.66 126.628C429.397 127.673 429.043 128.693 428.602 129.677C428.803 127.031 429.862 123.326 428.602 122.871C426.645 122.151 426.189 126.11 425.883 124.787C425.576 123.464 427.279 121.051 427.068 119.495C426.856 117.939 424.475 120.712 423.004 121.093C421.533 121.474 425.491 116.944 424.962 115.801C424.698 115.456 424.325 115.21 423.904 115.102C425.08 114.515 426.314 114.05 427.586 113.716C429.714 113.083 431.529 111.679 432.676 109.778L432.348 111.895C432.948 111.447 433.656 111.166 434.399 111.08C435.143 110.995 435.896 111.108 436.581 111.408L435.28 112.869C435.698 112.751 436.14 112.739 436.565 112.833C436.989 112.927 437.384 113.125 437.714 113.409C437.714 113.409 432.433 115.737 429.66 126.628Z" fill="#2C8CF4"/>
<path d="M413.332 133.603C414.341 135.266 415.787 136.62 417.512 137.519C417.512 137.519 426.888 137.519 429.66 126.628C432.433 115.737 437.777 113.409 437.777 113.409C437.444 113.128 437.048 112.931 436.622 112.835C436.197 112.739 435.754 112.747 435.333 112.858L436.634 111.408C435.949 111.108 435.196 110.995 434.452 111.08C433.708 111.166 433.001 111.447 432.401 111.895L432.729 109.778C431.584 111.683 429.769 113.091 427.639 113.726C424.274 114.478 409.882 120.437 413.332 133.603Z" stroke="#263238" stroke-linecap="round" stroke-linejoin="round"/>
<path d="M218.976 150.051C218.976 150.051 212.446 151.565 217.727 158.688C217.727 158.688 211.758 159.672 215.928 166.954C215.928 166.954 212.319 170.013 216.806 175.421C216.806 175.421 214.69 180.713 225.198 187.921C225.198 187.921 225.124 192.419 232.405 194.144C238.754 195.647 240.479 192.991 240.479 192.991C240.479 192.991 248.839 191.932 253.432 185.063C253.432 185.063 260.84 182.809 258.67 178.3C258.67 178.3 264.639 173.643 261.464 170.627C261.464 170.627 268.321 163.715 264.861 161.418C258.787 157.407 218.976 150.051 218.976 150.051Z" fill="#263238" stroke="#263238" stroke-linecap="round" stroke-linejoin="round"/>
<path d="M268.628 68.7981C305.963 84.325 306.439 120.438 293.624 138.463C281.983 154.879 266.237 153.64 264.861 161.494C263.485 169.347 219.568 157.906 217.526 152.286C215.483 146.665 224.595 147.427 207.727 124.904C190.858 102.381 222.785 49.7467 268.628 68.7981Z" fill="white"/>
<path opacity="0.4" d="M264.871 161.45C263.496 169.304 219.568 157.852 217.526 152.242C215.483 146.632 224.595 147.373 207.727 124.861C190.858 102.348 222.785 49.7136 268.628 68.765C273.113 70.5949 277.373 72.9315 281.327 75.7294C262.575 71.6016 237.093 70.8819 223.039 96.7283C207.748 124.871 231.505 150.464 243.506 152.454C243.506 152.454 233.6 145.235 230.299 133.095C230.299 133.095 247.231 158.18 273.687 153.988C268.956 156.253 265.485 157.936 264.871 161.45Z" fill="#2C8CF4"/>
<path d="M268.628 68.7981C305.963 84.325 306.439 120.438 293.624 138.463C281.983 154.879 266.237 153.64 264.861 161.494C263.485 169.347 219.568 157.906 217.526 152.286C215.483 146.665 224.595 147.427 207.727 124.904C190.858 102.381 222.785 49.7467 268.628 68.7981Z" stroke="#263238" stroke-linecap="round" stroke-linejoin="round"/>
<path d="M258.575 171.463C258.575 171.463 240.998 177.379 218.933 168.552" stroke="white" stroke-linecap="round" stroke-linejoin="round"/>
<path d="M248.289 166.171C249.337 166.097 250.379 165.959 251.411 165.758" stroke="white" stroke-linecap="round" stroke-linejoin="round"/>
<path d="M220.288 160.392C227.363 163.414 234.856 165.345 242.511 166.118" stroke="white" stroke-linecap="round" stroke-linejoin="round"/>
<path d="M232.309 179.507C239.632 180.66 247.4 180.883 254.532 178.681" stroke="white" stroke-linecap="round" stroke-linejoin="round"/>
<path d="M219.759 176.437C222.646 177.447 225.598 178.261 228.595 178.872" stroke="white" stroke-linecap="round" stroke-linejoin="round"/>
<path d="M243.537 186.079C236.965 185.339 230.543 183.608 224.489 180.946" stroke="white" stroke-linecap="round" stroke-linejoin="round"/>
<path d="M249.76 186.281C248.807 186.333 247.844 186.281 246.881 186.281" stroke="white" stroke-linecap="round" stroke-linejoin="round"/>
<path d="M226.796 189.075C230.336 191.583 234.544 192.977 238.881 193.076" stroke="white" stroke-linecap="round" stroke-linejoin="round"/>
<path d="M262.522 159.894C262.522 159.894 243.749 147.828 221.791 148.993" stroke="#263238" stroke-linecap="round" stroke-linejoin="round"/>
<path d="M249.379 156.476C249.379 156.476 260.141 133.011 275.168 131.423C275.168 131.423 266.067 124.109 262.522 123.009C258.977 121.908 256.723 129.645 259.199 128.819C261.676 127.994 265.21 117.261 260.988 114.457C256.765 111.652 248.617 125.602 251.019 126.745C253.421 127.888 256.416 113.208 250.532 111.546C244.648 109.884 240.289 122.543 243.051 122.797C245.813 123.051 246.765 117.505 240.479 115.452C233.675 113.176 225.145 116.51 225.145 116.51C225.145 116.51 238.32 132.302 233.971 152.411" stroke="#263238" stroke-linecap="round" stroke-linejoin="round"/>
<path d="M288.999 440.828C294.407 434.128 297.634 414.897 297.634 414.897C302.222 418.302 306.243 422.41 309.55 427.069C315.573 426.171 321.495 424.692 327.233 422.655C333.14 420.631 338.757 417.845 343.943 414.368C332.44 397.433 312.968 368.581 300.978 359.51C296.343 356.007 281.983 352.588 281.983 352.588C278.734 349.646 271.644 352.588 271.644 352.588C233.283 362.347 198.202 349.709 198.202 349.709C198.202 349.709 193.229 347.413 189.154 349.709C185.187 349.271 181.184 349.271 177.217 349.709C168.434 350.916 158.836 360.95 154.878 365.512L121.173 404.556C121.173 404.556 120.041 419.924 122.422 421.957C141.47 438.288 169.556 401.18 169.556 401.18C169.736 401.254 170.169 433.493 185.207 450.354C185.207 450.354 195.864 455.222 237.304 451.412C278.427 447.634 288.999 440.828 288.999 440.828Z" fill="#2C8CF4"/>
<path opacity="0.2" d="M145.259 393.02C138.909 393.581 135.576 392.057 134.306 389.347C143.491 378.763 154.211 366.295 154.878 365.522L155.936 364.316C160.698 374.974 164.656 391.326 145.259 393.02Z" fill="black"/>
<path opacity="0.2" d="M173.482 426.645C171.326 418.295 170.011 409.75 169.556 401.138C169.556 401.138 174.17 395.094 175.45 388.744C175.45 388.786 181.44 412.674 173.482 426.645Z" fill="black"/>
<path opacity="0.2" d="M306.047 422.655C303.546 419.759 300.723 417.156 297.634 414.897C297.634 414.897 298.089 399.73 302.322 395.137C305.73 391.443 309.36 410.663 306.047 422.655Z" fill="black"/>
<path d="M288.999 440.828C294.407 434.128 297.634 414.897 297.634 414.897C302.222 418.302 306.243 422.41 309.55 427.069" stroke="#263238" stroke-linecap="round" stroke-linejoin="round"/>
<path d="M343.943 414.368C332.44 397.433 312.968 368.581 300.978 359.51C296.343 356.007 281.983 352.588 281.983 352.588C278.734 349.646 271.644 352.588 271.644 352.588C233.283 362.347 198.202 349.709 198.202 349.709C198.202 349.709 193.229 347.413 189.154 349.709C185.187 349.271 181.184 349.271 177.217 349.709C168.434 350.916 158.836 360.95 154.878 365.512L121.173 404.556C121.173 404.556 120.041 419.925 122.422 421.957C141.47 438.288 169.556 401.18 169.556 401.18C169.736 401.254 170.169 433.493 185.207 450.354" stroke="#263238" stroke-linecap="round" stroke-linejoin="round"/>
<path d="M273.041 343.274L272.533 343.486C272.712 343.442 272.884 343.371 273.041 343.274Z" fill="#263238"/>
<path d="M284.459 314.718C288.481 315.311 289.465 312.358 289.465 312.358C289.465 312.358 284.459 314.718 280.025 305.637C277.507 300.462 278.755 290.957 280.29 283.739C283.391 278.627 287.888 271.556 288.481 263.174C289.539 248.779 282.777 241.487 274.978 243.625C274.978 243.625 274.406 231.464 263.432 227.103C252.458 222.743 250.733 226.32 240.151 223.674C229.568 221.028 219.219 223.335 215.43 230.183C211.642 237.031 210.351 249.467 203.885 254.283C197.419 259.099 186.107 270.689 189.683 283.654C193.26 296.62 191.228 301.054 186.509 307.183C181.789 313.311 184.667 325.377 193.673 329.166C193.673 329.166 189.853 327.123 192.551 323.704C192.551 323.704 194.668 331.833 201.726 330.351C208.785 328.869 217.748 328.372 222.32 333.378C226.891 338.385 243.601 339.729 247.368 335.918C251.135 332.108 254.056 335.643 260.882 339.094C267.707 342.544 275.284 339.517 275.284 339.517C275.284 339.517 274.649 342.47 273.02 343.348C274.406 342.766 278.247 340.935 279.369 338.183C280.491 335.432 281.126 332.775 279.782 326.35C284.512 324.498 282.332 321.365 282.332 321.365C286.798 323.874 288.915 316.465 288.915 316.465C284.756 316.401 284.459 314.718 284.459 314.718Z" fill="#263238"/>
<path d="M275.485 353.911C275.485 353.911 245.611 367.205 236.013 367.745C226.415 368.285 193.768 350.916 193.768 350.916L218.658 344.121C222.044 337.665 222.129 330.065 221.325 321.164C221.06 318.402 220.732 315.798 220.372 313.459C219.526 307.818 218.584 303.88 218.584 303.88L253.76 305.341C253.027 307.577 252.423 309.852 251.95 312.157C250.978 316.937 250.422 321.792 250.289 326.668C249.887 338.84 251.77 345.719 251.77 345.719L275.485 353.911Z" fill="white" stroke="#263238" stroke-linecap="round" stroke-linejoin="round"/>
<path d="M202.763 355.489C202.763 355.489 221.6 358.791 226.277 358.251C230.955 357.711 234.627 362.315 234.627 362.315" fill="white"/>
<path d="M202.763 355.489C202.763 355.489 221.6 358.791 226.277 358.251C230.955 357.711 234.627 362.315 234.627 362.315" stroke="#263238" stroke-linecap="round" stroke-linejoin="round"/>
<path d="M268.956 356.685C268.956 356.685 249.76 358.801 245.114 358.907C240.468 359.013 239.093 362.315 239.093 362.315" fill="white"/>
<path d="M268.956 356.685C268.956 356.685 249.76 358.801 245.114 358.907C240.468 359.013 239.093 362.315 239.093 362.315" stroke="#263238" stroke-linecap="round" stroke-linejoin="round"/>
<path d="M251.95 312.157C250.978 316.937 250.422 321.792 250.289 326.668C247.401 329.212 244.058 331.187 240.437 332.489C234.521 334.447 226.679 327.197 221.325 321.164C221.06 318.402 220.732 315.798 220.372 313.459L251.95 312.157Z" fill="#263238"/>
<path d="M210.414 274.266C210.414 274.266 207.515 269.81 204.933 270.71C202.351 271.609 202.351 283.654 202.552 286.829C202.753 290.005 209.07 296.979 211.716 295.064" fill="white"/>
<path d="M210.414 274.266C210.414 274.266 207.515 269.81 204.933 270.71C202.351 271.609 202.351 283.654 202.552 286.829C202.753 290.005 209.07 296.979 211.716 295.064" stroke="#263238" stroke-linecap="round" stroke-linejoin="round"/>
<path d="M274.099 283.654C274.099 283.654 278.152 280.225 280.375 281.834C282.597 283.442 279.105 295 278.004 297.953C276.904 300.906 268.829 305.796 266.85 303.192" fill="white"/>
<path d="M274.099 283.654C274.099 283.654 278.152 280.225 280.375 281.834C282.597 283.442 279.105 295 278.004 297.953C276.904 300.906 268.829 305.796 266.85 303.192" stroke="#263238" stroke-linecap="round" stroke-linejoin="round"/>
<path d="M234.754 329.875C224.097 328.298 213.515 310.22 212.234 305.129C210.816 299.467 207.695 271.535 213.78 256.231C220.626 239.032 234.944 231.771 248.902 233.824C262.861 235.877 274.48 246.959 276.078 265.407C277.496 281.812 266.448 307.659 263.453 312.676C260.765 317.185 246.003 331.526 234.754 329.875Z" fill="white" stroke="#263238" stroke-linecap="round" stroke-linejoin="round"/>
<path d="M258.913 285.062C258.628 287.041 257.506 288.512 256.416 288.343C255.326 288.174 254.691 286.459 254.977 284.48C255.262 282.5 256.384 281.04 257.474 281.199C258.564 281.357 259.21 283.083 258.913 285.062Z" fill="#263238"/>
<path d="M224.119 279.939C223.833 281.908 224.478 283.644 225.568 283.802C226.658 283.961 227.769 282.49 228.055 280.511C228.341 278.531 227.706 276.806 226.616 276.647C225.526 276.489 224.415 277.96 224.119 279.939Z" fill="#263238"/>
<path d="M247.95 306.664C247.95 306.664 242.426 317.502 235.378 315.724C228.33 313.946 228.383 304.081 228.383 303.796L229.378 304.177C232.163 305.22 235.05 305.965 237.992 306.399C240.84 306.773 243.716 306.887 246.585 306.738C247.442 306.706 247.95 306.664 247.95 306.664Z" fill="#757575"/>
<path d="M238.754 284.109C239.029 290.915 233.188 292.068 234.309 294.429C235.106 295.914 236.45 297.03 238.056 297.54" fill="white"/>
<path d="M238.754 284.109C239.029 290.915 233.188 292.068 234.309 294.429C235.106 295.914 236.45 297.03 238.056 297.54" stroke="#263238" stroke-linecap="round" stroke-linejoin="round"/>
<path d="M228.383 303.764C228.383 303.764 228.32 313.935 235.378 315.713C242.437 317.492 247.95 306.643 247.95 306.643" stroke="#263238" stroke-linecap="round" stroke-linejoin="round"/>
<path d="M217.822 270.953C217.822 270.953 224.171 262.93 234.024 265.471" stroke="#263238" stroke-linecap="round" stroke-linejoin="round"/>
<path d="M266.596 278.15C266.596 278.15 262.818 268.625 252.67 268.233" stroke="#263238" stroke-linecap="round" stroke-linejoin="round"/>
<path d="M296.365 271.747L294.396 273.927L292.872 275.61L275.232 285.856L275.951 280.913L290.396 272.52L293.518 272.118L296.365 271.747Z" fill="#2C8CF4" stroke="#263238" stroke-linecap="round" stroke-linejoin="round"/>
<path d="M292.089 276.044C289.475 275.547 290.354 272.509 290.354 272.509L296.322 271.747L292.089 276.044Z" fill="white" stroke="#263238" stroke-linecap="round" stroke-linejoin="round"/>
<path d="M296.322 271.747L294.354 273.917C294.169 273.87 293.997 273.783 293.849 273.663C293.701 273.543 293.582 273.392 293.498 273.221C293.414 273.049 293.369 272.862 293.365 272.672C293.361 272.481 293.399 272.292 293.476 272.118L296.322 271.747Z" fill="#263238"/>
<path d="M259.358 248.547C259.358 248.547 252.659 257.331 238.119 259.872C219.907 263.047 209.853 278.796 210.107 285.369C206.527 276.15 205.45 266.148 206.986 256.379C210.605 232.205 233.156 225.293 249.548 226.976C265.94 228.659 273.888 245.096 273.888 245.096C273.888 245.096 286.195 254.685 284.47 266.772C282.756 278.341 279.951 278.669 278.459 281.283C276.406 284.903 279.105 286.416 271.909 292.375C271.909 292.375 274.755 276.224 271.221 264.179C267.686 252.135 259.358 248.547 259.358 248.547Z" fill="#263238"/>
<path d="M263.866 244.493C263.866 244.493 257.442 269.027 220.933 272.858C220.933 272.858 245.527 268.413 256.913 245.943L263.866 244.493Z" fill="#263238"/>
<path d="M236.161 310.4C236.161 310.4 241.177 308.611 243.114 310.4C243.114 310.4 239.812 315.692 235.569 314.401C231.325 313.11 230.426 308.05 230.426 308.05C230.426 308.05 232.722 306.939 236.161 310.4Z" fill="#BFBFBF"/>
<path d="M247.283 306.749L245.855 308.368C240.223 309.086 234.504 308.171 229.378 305.733L228.881 303.976C231.827 305.092 234.88 305.905 237.992 306.399C241.074 306.772 244.182 306.889 247.283 306.749Z" fill="white"/>
<path d="M226.806 303.129C226.806 303.129 238.278 308.474 249.368 306.452" stroke="#263238" stroke-linecap="round" stroke-linejoin="round"/>
<path d="M262.892 238.396C262.892 238.396 255.114 248.589 236.161 250.145C217.208 251.701 211.716 259.554 211.716 259.554" stroke="#757575" stroke-linecap="round" stroke-linejoin="round"/>
<path d="M220.214 239.201C218.457 239.539 215.981 240.164 215.198 241.953" stroke="#757575" stroke-linecap="round" stroke-linejoin="round"/>
<path d="M265.231 230.479C253.802 239.021 239.04 240.005 224.044 238.799" stroke="#757575" stroke-linecap="round" stroke-linejoin="round"/>
<path d="M192.826 308.611C191.736 309.741 190.882 311.076 190.311 312.538C189.741 314.001 189.466 315.562 189.503 317.132" stroke="#757575" stroke-linecap="round" stroke-linejoin="round"/>
<path d="M206.488 260.972C201.197 263.989 196.911 269.535 196.625 275.79C196.149 286.374 203.716 295.9 195.864 305.119" stroke="#757575" stroke-linecap="round" stroke-linejoin="round"/>
<path d="M204.255 295.392C204.255 295.392 210.118 301.594 206.308 307.902C202.499 314.21 200.53 320.603 208.34 325.26" stroke="#757575" stroke-linecap="round" stroke-linejoin="round"/>
<path d="M247.061 262.846C245.813 263.627 244.52 264.334 243.188 264.962" stroke="#757575" stroke-linecap="round" stroke-linejoin="round"/>
<path d="M260.755 247.224C258.48 252.462 254.907 257.033 250.373 260.507" stroke="#757575" stroke-linecap="round" stroke-linejoin="round"/>
<path d="M265.231 248.102C265.231 248.102 273.157 252.41 276.205 259.554C279.253 266.698 274.956 276.753 276.946 280.225" stroke="#757575" stroke-linecap="round" stroke-linejoin="round"/>
<path d="M277.56 317.788C278.651 318.475 279.849 318.975 281.105 319.27" stroke="#757575" stroke-linecap="round" stroke-linejoin="round"/>
<path d="M271.284 307.902C271.768 310.484 272.856 312.914 274.459 314.994" stroke="#757575" stroke-linecap="round" stroke-linejoin="round"/>
<path d="M268.152 313.586C268.152 313.586 267.411 321.651 272.554 326.985C277.697 332.32 276.195 335.643 276.195 335.643" stroke="#757575" stroke-linecap="round" stroke-linejoin="round"/>
<path d="M259.633 322.815C259.633 322.815 262.702 330.986 257.834 333.706" stroke="#757575" stroke-linecap="round" stroke-linejoin="round"/>
<path d="M271.284 245.858C271.284 245.858 282.861 248.197 284.555 253.267C286.248 258.337 284.555 264.169 284.555 264.169" stroke="#757575" stroke-linecap="round" stroke-linejoin="round"/>
<path d="M122.422 421.957C112.601 416.506 114.506 396.904 121.004 372.423C124.178 360.399 135.205 330.087 134.983 329.028C134.389 326.99 133.573 325.024 132.549 323.165C132.549 323.165 135.724 319.926 137.057 319.344C142.782 316.899 154.084 313.819 159.28 315.967C160.899 316.634 163.249 320.413 162.921 321.958C162.592 323.503 157.957 328.584 158.402 333.452C158.846 338.321 154.624 354.388 154.74 360.791C154.74 362.103 154.814 363.755 154.889 365.554C154.889 366.697 154.889 386.722 147.185 396.946" fill="#2C8CF4"/>
<path d="M122.422 421.957C112.601 416.506 114.506 396.904 121.004 372.423C124.178 360.399 135.205 330.087 134.983 329.028C134.389 326.99 133.573 325.024 132.549 323.165C132.549 323.165 135.724 319.926 137.057 319.344C142.782 316.899 154.084 313.819 159.28 315.967C160.899 316.634 163.249 320.413 162.921 321.958C162.592 323.503 157.957 328.584 158.402 333.452C158.846 338.321 154.624 354.388 154.74 360.791C154.74 362.103 154.814 363.755 154.889 365.554C154.889 366.697 154.889 386.722 147.185 396.946" stroke="#263238" stroke-linecap="round" stroke-linejoin="round"/>
<path d="M154.349 269.895C154.56 271.842 158.762 285.771 160.063 299.922C162.719 298.957 165.216 297.602 167.471 295.9C170.106 293.593 175.619 295.434 175.397 296.958C175.175 298.482 170.106 298.228 165.82 303.986C161.534 309.744 160.656 316.126 154.963 319.206C149.269 322.286 140.422 323.355 136.973 319.259C133.523 315.163 129.692 293.434 131.036 291.169C132.182 289.516 133.616 288.082 135.269 286.935C135.269 286.935 136.719 282.702 138.92 282.373C141.121 282.045 146.327 281.94 146.327 281.94C147.544 281.037 149.054 280.622 150.56 280.775C150.56 280.775 148.846 264.476 147.386 259.004C145.925 253.532 152.624 253.564 154.349 269.895Z" fill="white" stroke="#263238" stroke-linecap="round" stroke-linejoin="round"/>
<path d="M150.634 280.775C155.132 282.807 157.121 291.359 157.121 291.973C156.222 295.013 155.141 297.996 153.883 300.906C152.761 303.34 150.338 300.906 150.338 300.906C150.338 300.906 149.597 304.081 147.894 302.695C145.724 300.906 145.724 295.117 145.724 295.117C145.724 295.117 145.46 299.932 144.2 302.282C142.941 304.632 140.401 303.065 140.772 296.112C140.772 296.112 135.586 294.841 135.406 293.571" stroke="#263238" stroke-linecap="round" stroke-linejoin="round"/>
<path d="M145.724 295.117C144.454 291.857 139.576 288.861 139.576 288.861" stroke="#263238" stroke-linecap="round" stroke-linejoin="round"/>
<path d="M150.338 300.906C150.338 300.906 152.888 293.497 152.201 291.973C151.513 290.449 147.174 286.247 147.174 286.247" stroke="#263238" stroke-linecap="round" stroke-linejoin="round"/>
<path d="M160.063 299.954C160.063 299.954 155.28 301.012 153.153 307.109" stroke="#263238" stroke-linecap="round" stroke-linejoin="round"/>
<path d="M134.983 328.986C134.983 328.986 142.708 335.336 151.015 330.044" stroke="#263238" stroke-linecap="round" stroke-linejoin="round"/>
<path d="M141.481 347.836C139.994 348.706 138.4 349.378 136.74 349.837" stroke="#263238" stroke-linecap="round" stroke-linejoin="round"/>
<path d="M160.063 326.985C156.331 333.959 151.303 340.155 145.248 345.243" stroke="#263238" stroke-linecap="round" stroke-linejoin="round"/>
<path d="M189.154 349.709C189.154 349.709 204.234 363.871 213.06 367.702" stroke="#263238" stroke-linecap="round" stroke-linejoin="round"/>
<path d="M174.117 365.035C174.797 366.918 175.245 368.876 175.45 370.867" stroke="#263238" stroke-linecap="round" stroke-linejoin="round"/>
<path d="M168.878 353.033C170.233 355.584 171.461 358.219 172.572 360.897" stroke="#263238" stroke-linecap="round" stroke-linejoin="round"/>
<path d="M230.426 372.423C230.426 372.423 255.104 372.762 270.946 361.945" stroke="#263238" stroke-linecap="round" stroke-linejoin="round"/>
<path d="M281.983 352.588C279.862 354.03 277.922 355.722 276.205 357.626" stroke="#263238" stroke-linecap="round" stroke-linejoin="round"/>
<path d="M294.375 370.677C291.84 373.307 288.951 375.573 285.793 377.408" stroke="#263238" stroke-linecap="round" stroke-linejoin="round"/>
<path d="M299.751 364.093C298.947 365.304 298.078 366.47 297.148 367.586" stroke="#263238" stroke-linecap="round" stroke-linejoin="round"/>
<path d="M169.556 401.138C169.556 401.138 175.577 393.337 175.45 383.981" stroke="#263238" stroke-linecap="round" stroke-linejoin="round"/>
<path d="M297.634 414.897C297.634 414.897 296.343 399.201 307.349 387.728" stroke="#263238" stroke-linecap="round" stroke-linejoin="round"/>
<path d="M309.55 396.375C310.079 396.904 300.153 405.562 297.793 409.436" stroke="#263238" stroke-linecap="round" stroke-linejoin="round"/>
<path d="M201.081 435.187C201.081 435.187 237.198 449.539 255.908 449.243" stroke="#263238" stroke-linecap="round" stroke-linejoin="round"/>
<path d="M240.31 400.524H236.024C235.328 400.524 234.764 401.088 234.764 401.783V408.324C234.764 409.02 235.328 409.584 236.024 409.584H240.31C241.005 409.584 241.569 409.02 241.569 408.324V401.783C241.569 401.088 241.005 400.524 240.31 400.524Z" fill="#BFBFBF"/>
<path d="M240.31 410.261H236.077C235.565 410.258 235.075 410.053 234.714 409.69C234.353 409.327 234.151 408.836 234.151 408.324V401.783C234.151 401.271 234.353 400.78 234.714 400.417C235.075 400.055 235.565 399.849 236.077 399.846H240.31C240.563 399.846 240.815 399.897 241.049 399.994C241.283 400.092 241.496 400.234 241.675 400.414C241.854 400.594 241.996 400.808 242.092 401.043C242.188 401.278 242.237 401.529 242.236 401.783V408.324C242.237 408.578 242.188 408.83 242.092 409.065C241.996 409.3 241.854 409.513 241.675 409.693C241.496 409.873 241.283 410.016 241.049 410.114C240.815 410.211 240.563 410.261 240.31 410.261ZM236.077 401.191C235.921 401.193 235.773 401.257 235.664 401.368C235.556 401.479 235.495 401.628 235.495 401.783V408.324C235.495 408.479 235.556 408.627 235.665 408.736C235.774 408.845 235.922 408.906 236.077 408.906H240.31C240.387 408.908 240.464 408.894 240.536 408.865C240.607 408.837 240.673 408.794 240.728 408.74C240.783 408.686 240.827 408.621 240.857 408.55C240.887 408.478 240.902 408.402 240.902 408.324V401.783C240.902 401.626 240.84 401.475 240.729 401.364C240.617 401.253 240.467 401.191 240.31 401.191H236.077Z" fill="#263238"/>
<path d="M251.77 345.762C251.77 345.762 270.946 349.71 238.172 399.518C238.172 399.518 199.991 351.149 218.658 344.121" stroke="#263238" stroke-linecap="round" stroke-linejoin="round"/>
<path d="M238.849 399.021C238.849 399.751 238.521 400.344 238.119 400.344C237.717 400.344 237.389 399.751 237.389 399.021C237.389 398.291 237.717 397.698 238.119 397.698C238.521 397.698 238.849 398.291 238.849 399.021Z" fill="#263238"/>
</svg>
