<svg width="31" height="20" viewBox="0 0 31 20" fill="none" xmlns="http://www.w3.org/2000/svg">
<g clip-path="url(#clip0)">
<path d="M25.7226 11.3372C25.2214 10.6999 25.3648 10.4164 25.7226 9.84669C25.729 9.84019 29.8662 4.08376 30.2925 2.13156L30.2951 2.13026C30.5069 1.41884 30.2951 0.895996 29.2708 0.895996H25.8814C25.0186 0.895996 24.6208 1.3447 24.4076 1.84673C24.4076 1.84673 22.682 6.00604 20.2407 8.70217C19.4528 9.48123 19.0886 9.73094 18.6584 9.73094C18.4466 9.73094 18.1172 9.48123 18.1172 8.7698V2.13026C18.1172 1.27707 17.8757 0.895996 17.1614 0.895996H11.832C11.2908 0.895996 10.9691 1.29398 10.9691 1.66465C10.9691 2.47362 12.1898 2.6596 12.3164 4.93565V9.87401C12.3164 10.9561 12.1213 11.1551 11.6886 11.1551C10.5364 11.1551 7.73998 6.97888 6.08277 2.19919C5.74823 1.27187 5.42144 0.897297 4.55215 0.897297H1.16152C0.194065 0.897297 -0.000976562 1.346 -0.000976562 1.84803C-0.000976562 2.73504 1.15119 7.14536 5.35686 12.972C8.15977 16.9492 12.1071 19.1043 15.6979 19.1043C17.8563 19.1043 18.1198 18.6257 18.1198 17.8024C18.1198 14.0021 17.9248 13.6431 19.0059 13.6431C19.5071 13.6431 20.3699 13.8928 22.3849 15.8112C24.6879 18.086 25.0664 19.1043 26.3555 19.1043H29.7448C30.711 19.1043 31.2005 18.6257 30.9189 17.6815C30.2744 15.6955 25.9189 11.6103 25.7226 11.3372Z" fill="#0A2540"/>
</g>
<defs>
<clipPath id="clip0">
<rect width="31" height="19" fill="white" transform="translate(-0.000976562 0.5)"/>
</clipPath>
</defs>
</svg>
